<svg width="1440" height="353" viewBox="0 0 1440 353" fill="none" xmlns="http://www.w3.org/2000/svg">
<path d="M106.688 120.664L119.456 70.072H130.304L143.168 120.664L156.224 70.072H168.512L149.888 139H137.792L124.736 90.424L111.776 139H99.68L80.96 70.072H93.632L106.688 120.664ZM220.318 98.104V70.072H232.606V139H220.318V108.856H187.294V139H175.006V70.072H187.294V98.104H220.318ZM244.733 139V70.072H291.389V80.824H256.829V98.104H285.917V108.856H256.829V128.248H291.389V139H244.733ZM324.197 112.312H313.061V139H300.773V70.072H328.325C344.165 70.072 353.285 77.752 353.285 91.192C353.285 101.848 347.621 108.952 337.253 111.352L355.013 139H340.997L324.197 112.312ZM313.061 80.632V101.752H327.653C336.389 101.752 341.189 98.008 341.189 91.192C341.189 84.28 336.485 80.632 327.653 80.632H313.061ZM362.532 139V70.072H409.188V80.824H374.628V98.104H403.716V108.856H374.628V128.248H409.188V139H362.532ZM488.945 70.072V80.824H466.769V139H454.481V80.824H432.305V70.072H488.945ZM496.079 129.496C490.607 123.064 487.631 114.424 487.631 104.536C487.631 94.648 490.607 86.008 496.079 79.576C501.935 72.76 510.191 69.016 519.695 69.016C529.199 69.016 537.455 72.76 543.311 79.576C548.783 86.008 551.759 94.648 551.759 104.536C551.759 114.424 548.783 123.064 543.311 129.496C537.455 136.312 529.199 140.056 519.695 140.056C510.191 140.056 501.935 136.312 496.079 129.496ZM519.695 129.208C525.551 129.208 530.351 126.904 533.999 122.392C537.647 117.88 539.471 111.928 539.471 104.536C539.471 97.144 537.647 91.192 533.999 86.68C530.351 82.168 525.551 79.864 519.695 79.864C513.839 79.864 509.039 82.168 505.391 86.68C501.743 91.192 499.919 97.144 499.919 104.536C499.919 111.928 501.743 117.88 505.391 122.392C509.039 126.904 513.839 129.208 519.695 129.208ZM591.265 110.296V139H579.169V70.072H625.153V80.824H591.265V99.544H619.681V110.296H591.265ZM633.616 70.072H645.904V139H633.616V70.072ZM702.896 70.072H714.704V139H703.952L669.776 88.408V139H657.968V70.072H670.64L702.896 118.36V70.072ZM749.798 139H726.758V70.072H749.798C760.262 70.072 768.998 73.24 775.046 79.384C781.19 85.432 784.454 94.168 784.454 104.536C784.454 114.904 781.19 123.64 775.046 129.688C768.998 135.832 760.262 139 749.798 139ZM738.758 80.632V128.44H749.798C763.718 128.44 772.358 119.224 772.358 104.536C772.358 89.656 763.814 80.632 749.702 80.632H738.758ZM838.62 139.96C821.244 139.96 810.876 129.592 810.876 111.64V70.072H823.164V111.256C823.164 122.872 828.636 129.112 838.62 129.112C848.7 129.112 854.172 122.872 854.172 111.256V70.072H866.46V111.64C866.46 129.688 856.188 139.96 838.62 139.96ZM899.422 140.056C893.374 140.056 887.71 138.712 882.43 136.12C877.15 133.432 873.118 129.88 870.526 125.56L879.934 117.784C884.83 125.368 892.03 129.592 899.806 129.592C908.158 129.592 913.438 125.656 913.438 119.416C913.438 116.728 912.382 114.808 910.078 113.368C908.542 112.312 906.526 111.544 903.166 110.68L899.326 109.816C897.694 109.336 896.542 109.048 895.966 108.952C887.902 107.032 884.254 105.496 881.182 103.48C876.67 100.408 874.462 95.992 874.462 89.944C874.462 83.512 877.15 78.136 882.238 74.296C886.558 70.84 892.702 69.016 899.326 69.016C910.174 69.016 919.966 74.008 924.958 81.784L915.934 89.56C911.422 82.648 906.142 79.48 898.942 79.48C891.55 79.48 886.462 83.224 886.462 88.696C886.462 92.056 887.998 94.072 891.838 95.608C893.47 96.28 895.39 96.856 901.054 98.104C906.238 99.256 909.886 100.216 911.998 100.984C914.206 101.752 916.03 102.616 917.566 103.576C922.942 106.744 925.534 111.544 925.534 118.168C925.534 124.792 922.654 130.456 917.374 134.584C912.67 138.04 906.334 140.056 899.422 140.056Z" fill="black"/>
<path d="M1299.81 97C1299.81 69.3858 1277.42 47 1249.81 47C1222.2 47 1199.81 69.3858 1199.81 97C1199.81 124.614 1222.2 147 1249.81 147C1277.42 147 1299.81 124.614 1299.81 97Z" stroke="black" stroke-width="2" stroke-miterlimit="10"/>
<g clip-path="url(#clip0_6924_2316)">
<path d="M1399 146L1300.52 47.52" stroke="black" stroke-width="2" stroke-miterlimit="10"/>
<path d="M1399 47.52V146H1300.52" stroke="black" stroke-width="2" stroke-miterlimit="10"/>
</g>
<path d="M609.644 252.528C606.62 252.528 603.788 251.856 601.148 250.56C598.508 249.216 596.492 247.44 595.196 245.28L599.9 241.392C602.348 245.184 605.948 247.296 609.836 247.296C614.012 247.296 616.652 245.328 616.652 242.208C616.652 240.864 616.124 239.904 614.972 239.184C614.204 238.656 613.196 238.272 611.516 237.84L609.596 237.408C608.78 237.168 608.204 237.024 607.916 236.976C603.884 236.016 602.06 235.248 600.524 234.24C598.268 232.704 597.164 230.496 597.164 227.472C597.164 224.256 598.508 221.568 601.052 219.648C603.212 217.92 606.284 217.008 609.596 217.008C615.02 217.008 619.916 219.504 622.412 223.392L617.9 227.28C615.644 223.824 613.004 222.24 609.404 222.24C605.708 222.24 603.164 224.112 603.164 226.848C603.164 228.528 603.932 229.536 605.852 230.304C606.668 230.64 607.628 230.928 610.46 231.552C613.052 232.128 614.876 232.608 615.932 232.992C617.036 233.376 617.948 233.808 618.716 234.288C621.404 235.872 622.7 238.272 622.7 241.584C622.7 244.896 621.26 247.728 618.62 249.792C616.268 251.52 613.1 252.528 609.644 252.528ZM651.605 217.536V222.912H640.517V252H634.373V222.912H623.285V217.536H651.605ZM655.115 252V217.536H678.443V222.912H661.163V231.552H675.707V236.928H661.163V246.624H678.443V252H655.115ZM696.911 238.656H689.279V252H683.135V217.536H696.911C704.831 217.536 709.391 221.376 709.391 228.096C709.391 234.816 704.783 238.656 696.911 238.656ZM689.279 222.816V233.376H696.575C700.943 233.376 703.343 231.504 703.343 228.096C703.343 224.64 700.991 222.816 696.575 222.816H689.279ZM722.393 217.536H728.537V252H722.393V217.536ZM757.034 217.536H762.938V252H757.562L740.474 226.704V252H734.57V217.536H740.906L757.034 241.68V217.536ZM794.741 217.536V222.912H783.653V252H777.509V222.912H766.421V217.536H794.741ZM798.308 247.248C795.572 244.032 794.084 239.712 794.084 234.768C794.084 229.824 795.572 225.504 798.308 222.288C801.236 218.88 805.364 217.008 810.116 217.008C814.868 217.008 818.996 218.88 821.924 222.288C824.66 225.504 826.148 229.824 826.148 234.768C826.148 239.712 824.66 244.032 821.924 247.248C818.996 250.656 814.868 252.528 810.116 252.528C805.364 252.528 801.236 250.656 798.308 247.248ZM810.116 247.104C813.044 247.104 815.444 245.952 817.268 243.696C819.092 241.44 820.004 238.464 820.004 234.768C820.004 231.072 819.092 228.096 817.268 225.84C815.444 223.584 813.044 222.432 810.116 222.432C807.188 222.432 804.788 223.584 802.964 225.84C801.14 228.096 800.228 231.072 800.228 234.768C800.228 238.464 801.14 241.44 802.964 243.696C804.788 245.952 807.188 247.104 810.116 247.104ZM865.629 217.536V222.912H854.541V252H848.397V222.912H837.309V217.536H865.629ZM891.794 231.552V217.536H897.938V252H891.794V236.928H875.282V252H869.138V217.536H875.282V231.552H891.794ZM904.002 252V217.536H927.33V222.912H910.05V231.552H924.594V236.928H910.05V246.624H927.33V252H904.002ZM951.513 242.832L957.897 217.536H963.321L969.753 242.832L976.281 217.536H982.425L973.113 252H967.065L960.537 227.712L954.057 252H948.009L938.649 217.536H944.985L951.513 242.832ZM986.901 247.248C984.165 244.032 982.677 239.712 982.677 234.768C982.677 229.824 984.165 225.504 986.901 222.288C989.829 218.88 993.957 217.008 998.709 217.008C1003.46 217.008 1007.59 218.88 1010.52 222.288C1013.25 225.504 1014.74 229.824 1014.74 234.768C1014.74 239.712 1013.25 244.032 1010.52 247.248C1007.59 250.656 1003.46 252.528 998.709 252.528C993.957 252.528 989.829 250.656 986.901 247.248ZM998.709 247.104C1001.64 247.104 1004.04 245.952 1005.86 243.696C1007.68 241.44 1008.6 238.464 1008.6 234.768C1008.6 231.072 1007.68 228.096 1005.86 225.84C1004.04 223.584 1001.64 222.432 998.709 222.432C995.781 222.432 993.381 223.584 991.557 225.84C989.733 228.096 988.821 231.072 988.821 234.768C988.821 238.464 989.733 241.44 991.557 243.696C993.381 245.952 995.781 247.104 998.709 247.104ZM1030.75 238.656H1025.18V252H1019.04V217.536H1032.81C1040.73 217.536 1045.29 221.376 1045.29 228.096C1045.29 233.424 1042.46 236.976 1037.28 238.176L1046.16 252H1039.15L1030.75 238.656ZM1025.18 222.816V233.376H1032.48C1036.84 233.376 1039.24 231.504 1039.24 228.096C1039.24 224.64 1036.89 222.816 1032.48 222.816H1025.18ZM1072.28 252H1049.91V217.536H1056.06V246.624H1072.28V252ZM1087.3 252H1075.78V217.536H1087.3C1092.53 217.536 1096.9 219.12 1099.92 222.192C1102.99 225.216 1104.63 229.584 1104.63 234.768C1104.63 239.952 1102.99 244.32 1099.92 247.344C1096.9 250.416 1092.53 252 1087.3 252ZM1081.78 222.816V246.72H1087.3C1094.26 246.72 1098.58 242.112 1098.58 234.768C1098.58 227.328 1094.31 222.816 1087.25 222.816H1081.78ZM1120.81 247.248C1118.08 244.032 1116.59 239.712 1116.59 234.768C1116.59 229.824 1118.08 225.504 1120.81 222.288C1123.74 218.88 1127.87 217.008 1132.62 217.008C1137.37 217.008 1141.5 218.88 1144.43 222.288C1147.17 225.504 1148.65 229.824 1148.65 234.768C1148.65 239.712 1147.17 244.032 1144.43 247.248C1141.5 250.656 1137.37 252.528 1132.62 252.528C1127.87 252.528 1123.74 250.656 1120.81 247.248ZM1132.62 247.104C1135.55 247.104 1137.95 245.952 1139.77 243.696C1141.6 241.44 1142.51 238.464 1142.51 234.768C1142.51 231.072 1141.6 228.096 1139.77 225.84C1137.95 223.584 1135.55 222.432 1132.62 222.432C1129.69 222.432 1127.29 223.584 1125.47 225.84C1123.65 228.096 1122.73 231.072 1122.73 234.768C1122.73 238.464 1123.65 241.44 1125.47 243.696C1127.29 245.952 1129.69 247.104 1132.62 247.104ZM1159 237.648V252H1152.95V217.536H1175.94V222.912H1159V232.272H1173.2V237.648H1159ZM1186.8 252L1199.85 217.536H1206.81L1219.87 252H1213.68L1210.7 244.128H1195.82L1192.89 252H1186.8ZM1208.69 238.752L1203.21 224.352L1197.84 238.752H1208.69ZM1234.84 238.656H1229.28V252H1223.13V217.536H1236.91C1244.83 217.536 1249.39 221.376 1249.39 228.096C1249.39 233.424 1246.56 236.976 1241.37 238.176L1250.25 252H1243.24L1234.84 238.656ZM1229.28 222.816V233.376H1236.57C1240.94 233.376 1243.34 231.504 1243.34 228.096C1243.34 224.64 1240.99 222.816 1236.57 222.816H1229.28ZM1279.32 217.536V222.912H1268.23V252H1262.09V222.912H1251V217.536H1279.32ZM1294.54 238.656H1288.97V252H1282.83V217.536H1296.6C1304.52 217.536 1309.08 221.376 1309.08 228.096C1309.08 233.424 1306.25 236.976 1301.07 238.176L1309.95 252H1302.94L1294.54 238.656ZM1288.97 222.816V233.376H1296.27C1300.64 233.376 1303.04 231.504 1303.04 228.096C1303.04 224.64 1300.68 222.816 1296.27 222.816H1288.97ZM1310.69 252L1323.75 217.536H1330.71L1343.76 252H1337.57L1334.59 244.128H1319.71L1316.79 252H1310.69ZM1332.58 238.752L1327.11 224.352L1321.73 238.752H1332.58ZM1398.1 240.336H1355.09V235.68H1398.1V240.336ZM698.229 285.648V300H692.181V265.536H715.173V270.912H698.229V280.272H712.437V285.648H698.229ZM719.405 265.536H725.549V300H719.405V265.536ZM754.045 265.536H759.949V300H754.573L737.485 274.704V300H731.581V265.536H737.917L754.045 289.68V265.536ZM777.496 300H765.976V265.536H777.496C782.728 265.536 787.096 267.12 790.12 270.192C793.192 273.216 794.824 277.584 794.824 282.768C794.824 287.952 793.192 292.32 790.12 295.344C787.096 298.416 782.728 300 777.496 300ZM771.976 270.816V294.72H777.496C784.456 294.72 788.776 290.112 788.776 282.768C788.776 275.328 784.504 270.816 777.448 270.816H771.976ZM811.971 265.536L820.899 280.176L829.827 265.536H836.355L823.923 285.792V300H817.779V285.792L805.299 265.536H811.971ZM838.749 295.248C836.013 292.032 834.525 287.712 834.525 282.768C834.525 277.824 836.013 273.504 838.749 270.288C841.677 266.88 845.805 265.008 850.557 265.008C855.309 265.008 859.437 266.88 862.365 270.288C865.101 273.504 866.589 277.824 866.589 282.768C866.589 287.712 865.101 292.032 862.365 295.248C859.437 298.656 855.309 300.528 850.557 300.528C845.805 300.528 841.677 298.656 838.749 295.248ZM850.557 295.104C853.485 295.104 855.885 293.952 857.709 291.696C859.533 289.44 860.445 286.464 860.445 282.768C860.445 279.072 859.533 276.096 857.709 273.84C855.885 271.584 853.485 270.432 850.557 270.432C847.629 270.432 845.229 271.584 843.405 273.84C841.581 276.096 840.669 279.072 840.669 282.768C840.669 286.464 841.581 289.44 843.405 291.696C845.229 293.952 847.629 295.104 850.557 295.104ZM884.228 300.48C875.54 300.48 870.356 295.296 870.356 286.32V265.536H876.5V286.128C876.5 291.936 879.236 295.056 884.228 295.056C889.268 295.056 892.004 291.936 892.004 286.128V265.536H898.148V286.32C898.148 295.344 893.012 300.48 884.228 300.48ZM915.397 286.656H909.829V300H903.685V265.536H917.461C925.381 265.536 929.941 269.376 929.941 276.096C929.941 281.424 927.109 284.976 921.925 286.176L930.805 300H923.797L915.397 286.656ZM909.829 270.816V281.376H917.125C921.493 281.376 923.893 279.504 923.893 276.096C923.893 272.64 921.541 270.816 917.125 270.816H909.829ZM954.055 290.832L960.439 265.536H965.863L972.295 290.832L978.823 265.536H984.967L975.655 300H969.607L963.079 275.712L956.599 300H950.551L941.191 265.536H947.527L954.055 290.832ZM982.805 300L995.861 265.536H1002.82L1015.88 300H1009.68L1006.71 292.128H991.829L988.901 300H982.805ZM1004.69 286.752L999.221 272.352L993.845 286.752H1004.69ZM1018.47 265.536L1027.4 280.176L1036.33 265.536H1042.85L1030.42 285.792V300H1024.28V285.792L1011.8 265.536H1018.47ZM1080.85 265.536V270.912H1069.76V300H1063.61V270.912H1052.53V265.536H1080.85ZM1084.41 295.248C1081.68 292.032 1080.19 287.712 1080.19 282.768C1080.19 277.824 1081.68 273.504 1084.41 270.288C1087.34 266.88 1091.47 265.008 1096.22 265.008C1100.97 265.008 1105.1 266.88 1108.03 270.288C1110.77 273.504 1112.25 277.824 1112.25 282.768C1112.25 287.712 1110.77 292.032 1108.03 295.248C1105.1 298.656 1100.97 300.528 1096.22 300.528C1091.47 300.528 1087.34 298.656 1084.41 295.248ZM1096.22 295.104C1099.15 295.104 1101.55 293.952 1103.37 291.696C1105.2 289.44 1106.11 286.464 1106.11 282.768C1106.11 279.072 1105.2 276.096 1103.37 273.84C1101.55 271.584 1099.15 270.432 1096.22 270.432C1093.29 270.432 1090.89 271.584 1089.07 273.84C1087.25 276.096 1086.33 279.072 1086.33 282.768C1086.33 286.464 1087.25 289.44 1089.07 291.696C1090.89 293.952 1093.29 295.104 1096.22 295.104ZM1128.41 295.248C1125.67 292.032 1124.18 287.712 1124.18 282.768C1124.18 277.824 1125.67 273.504 1128.41 270.288C1131.33 266.88 1135.46 265.008 1140.21 265.008C1144.97 265.008 1149.09 266.88 1152.02 270.288C1154.76 273.504 1156.25 277.824 1156.25 282.768C1156.25 287.712 1154.76 292.032 1152.02 295.248C1149.09 298.656 1144.97 300.528 1140.21 300.528C1135.46 300.528 1131.33 298.656 1128.41 295.248ZM1140.21 295.104C1143.14 295.104 1145.54 293.952 1147.37 291.696C1149.19 289.44 1150.1 286.464 1150.1 282.768C1150.1 279.072 1149.19 276.096 1147.37 273.84C1145.54 271.584 1143.14 270.432 1140.21 270.432C1137.29 270.432 1134.89 271.584 1133.06 273.84C1131.24 276.096 1130.33 279.072 1130.33 282.768C1130.33 286.464 1131.24 289.44 1133.06 291.696C1134.89 293.952 1137.29 295.104 1140.21 295.104ZM1173.89 300.48C1165.2 300.48 1160.01 295.296 1160.01 286.32V265.536H1166.16V286.128C1166.16 291.936 1168.89 295.056 1173.89 295.056C1178.93 295.056 1181.66 291.936 1181.66 286.128V265.536H1187.81V286.32C1187.81 295.344 1182.67 300.48 1173.89 300.48ZM1205.05 286.656H1199.49V300H1193.34V265.536H1207.12C1215.04 265.536 1219.6 269.376 1219.6 276.096C1219.6 281.424 1216.77 284.976 1211.58 286.176L1220.46 300H1213.45L1205.05 286.656ZM1199.49 270.816V281.376H1206.78C1211.15 281.376 1213.55 279.504 1213.55 276.096C1213.55 272.64 1211.2 270.816 1206.78 270.816H1199.49ZM1244.58 300.528C1241.55 300.528 1238.72 299.856 1236.08 298.56C1233.44 297.216 1231.42 295.44 1230.13 293.28L1234.83 289.392C1237.28 293.184 1240.88 295.296 1244.77 295.296C1248.94 295.296 1251.58 293.328 1251.58 290.208C1251.58 288.864 1251.06 287.904 1249.9 287.184C1249.14 286.656 1248.13 286.272 1246.45 285.84L1244.53 285.408C1243.71 285.168 1243.14 285.024 1242.85 284.976C1238.82 284.016 1236.99 283.248 1235.46 282.24C1233.2 280.704 1232.1 278.496 1232.1 275.472C1232.1 272.256 1233.44 269.568 1235.98 267.648C1238.14 265.92 1241.22 265.008 1244.53 265.008C1249.95 265.008 1254.85 267.504 1257.34 271.392L1252.83 275.28C1250.58 271.824 1247.94 270.24 1244.34 270.24C1240.64 270.24 1238.1 272.112 1238.1 274.848C1238.1 276.528 1238.86 277.536 1240.78 278.304C1241.6 278.64 1242.56 278.928 1245.39 279.552C1247.98 280.128 1249.81 280.608 1250.86 280.992C1251.97 281.376 1252.88 281.808 1253.65 282.288C1256.34 283.872 1257.63 286.272 1257.63 289.584C1257.63 292.896 1256.19 295.728 1253.55 297.792C1251.2 299.52 1248.03 300.528 1244.58 300.528ZM1286.54 265.536V270.912H1275.45V300H1269.31V270.912H1258.22V265.536H1286.54ZM1303.39 300.48C1294.7 300.48 1289.52 295.296 1289.52 286.32V265.536H1295.66V286.128C1295.66 291.936 1298.4 295.056 1303.39 295.056C1308.43 295.056 1311.17 291.936 1311.17 286.128V265.536H1317.31V286.32C1317.31 295.344 1312.18 300.48 1303.39 300.48ZM1334.37 300H1322.85V265.536H1334.37C1339.6 265.536 1343.97 267.12 1346.99 270.192C1350.06 273.216 1351.7 277.584 1351.7 282.768C1351.7 287.952 1350.06 292.32 1346.99 295.344C1343.97 298.416 1339.6 300 1334.37 300ZM1328.85 270.816V294.72H1334.37C1341.33 294.72 1345.65 290.112 1345.65 282.768C1345.65 275.328 1341.38 270.816 1334.32 270.816H1328.85ZM1356.03 265.536H1362.17V300H1356.03V265.536ZM1370.65 295.248C1367.91 292.032 1366.43 287.712 1366.43 282.768C1366.43 277.824 1367.91 273.504 1370.65 270.288C1373.58 266.88 1377.71 265.008 1382.46 265.008C1387.21 265.008 1391.34 266.88 1394.27 270.288C1397 273.504 1398.49 277.824 1398.49 282.768C1398.49 287.712 1397 292.032 1394.27 295.248C1391.34 298.656 1387.21 300.528 1382.46 300.528C1377.71 300.528 1373.58 298.656 1370.65 295.248ZM1382.46 295.104C1385.39 295.104 1387.79 293.952 1389.61 291.696C1391.43 289.44 1392.35 286.464 1392.35 282.768C1392.35 279.072 1391.43 276.096 1389.61 273.84C1387.79 271.584 1385.39 270.432 1382.46 270.432C1379.53 270.432 1377.13 271.584 1375.31 273.84C1373.48 276.096 1372.57 279.072 1372.57 282.768C1372.57 286.464 1373.48 289.44 1375.31 291.696C1377.13 293.952 1379.53 295.104 1382.46 295.104Z" fill="black"/>
<path d="M225.74 238.361C222.117 238.38 220.445 242.261 217.305 243.243C210.779 247.461 204.536 252.201 197.459 255.365C195.363 256.302 193.125 258.177 190.947 255.96C188.477 253.451 189.689 250.522 190.842 247.817C191.808 245.547 192.938 243.355 193.996 241.124C205.616 225.125 218.722 210.333 228.032 192.459C231.937 184.956 229.832 179.517 222.04 178.184C214.785 176.944 207.516 176.871 200.189 177.74C194.902 178.365 189.712 180.147 184.316 179.532C181.824 179.249 178.698 178.248 180.762 175.045C184.635 169.04 180.092 169.582 177.276 169.45C166.02 168.933 154.732 168.44 143.754 172.092C137.365 171.281 131.437 174.054 125.28 175.006C120.864 175.69 116.458 176.705 111.996 177.237C101.164 178.834 90.4691 182.256 79.2041 179.341C90.2184 176.92 101.233 174.503 112.243 172.082C122.956 171.764 133.278 168.816 143.722 166.687C153.598 163.997 163.7 163.909 173.726 164.554C179.208 164.905 186.759 162.708 187.538 172.985C187.707 175.197 190.136 174.054 191.594 173.795C200.79 172.179 210.05 171.745 219.337 172.228C233.359 172.956 238.217 182.119 231.559 195.423C225.266 208.004 216.152 218.364 207.699 229.226C205.552 231.985 203.082 234.465 202.13 238.068C201.829 238.263 201.528 238.458 201.228 238.653C201.761 239.449 202.057 238.697 202.426 238.444C203.36 239.2 204.299 239.952 205.242 240.709C199.295 239.747 196.215 243.453 194.05 248.632C193.663 249.555 192.934 250.531 193.745 251.503C194.561 252.475 195.595 251.903 196.443 251.474C201.888 248.696 207.548 246.284 211.832 241.456C236.85 224.456 260.852 205.968 283.878 185.981C288.271 182.168 291.603 177.027 296.884 174.293C298.753 173.327 301.013 171.594 300.17 168.908C299.299 166.14 296.542 166.638 294.473 166.892C283.673 168.205 272.891 169.66 262.114 171.144C260.227 171.403 258.391 172.101 255.37 171.013C266.894 167.014 277.699 165.076 288.549 163.348C293.043 162.63 297.536 161.913 302.043 161.263C304.412 160.921 307.096 160.482 308.523 163.031C309.899 165.491 307.867 167.332 306.586 169.187C299.195 179.898 289.247 187.641 279.513 195.54C261.708 209.986 243.676 224.1 225.74 238.356V238.361Z" fill="black"/>
<defs>
<clipPath id="clip0_6924_2316">
<rect width="100.19" height="100.19" fill="white" transform="translate(1299.81 46.81)"/>
</clipPath>
</defs>
</svg>
