<svg width="1440" height="322" viewBox="0 0 1440 322" fill="none" xmlns="http://www.w3.org/2000/svg">
<path d="M143.84 108H132.608V100.896C129.632 105.888 122.528 109.056 114.08 109.056C104.864 109.056 96.8 105.216 91.04 98.304C85.76 92.064 82.976 83.424 82.976 73.824C82.976 64.128 85.952 55.296 91.328 48.768C97.184 41.856 105.536 38.016 114.848 38.016C128.384 38.016 138.368 45.12 142.688 57.792L130.976 61.728C128.96 53.568 123.104 48.864 114.944 48.864C109.088 48.864 104.384 51.168 100.736 55.776C97.088 60.288 95.264 66.24 95.264 73.632C95.264 81.024 97.088 87.072 100.736 91.68C104.384 96.192 109.184 98.496 115.136 98.496C124.832 98.496 131.648 91.68 132.032 81.6H113.888V70.848H143.84V108ZM149.75 108L175.862 39.072H189.782L215.894 108H203.51L197.558 92.256H167.798L161.942 108H149.75ZM193.526 81.504L182.582 52.704L171.83 81.504H193.526ZM267.157 108H222.421V39.072H234.709V97.248H267.157V108ZM318.884 108H274.148V39.072H286.436V97.248H318.884V108ZM325.876 108V39.072H372.532V49.824H337.972V67.104H367.06V77.856H337.972V97.248H372.532V108H325.876ZM405.34 81.312H394.204V108H381.916V39.072H409.468C425.308 39.072 434.428 46.752 434.428 60.192C434.428 70.848 428.764 77.952 418.396 80.352L436.156 108H422.14L405.34 81.312ZM394.204 49.632V70.752H408.796C417.532 70.752 422.332 67.008 422.332 60.192C422.332 53.28 417.628 49.632 408.796 49.632H394.204ZM447.115 39.072L464.971 68.352L482.827 39.072H495.883L471.019 79.584V108H458.731V79.584L433.771 39.072H447.115Z" fill="black"/>
<path d="M1299.81 66C1299.81 38.3858 1277.42 16 1249.81 16C1222.2 16 1199.81 38.3858 1199.81 66C1199.81 93.6142 1222.2 116 1249.81 116C1277.42 116 1299.81 93.6142 1299.81 66Z" stroke="black" stroke-width="2" stroke-miterlimit="10"/>
<g clip-path="url(#clip0_6925_2464)">
<path d="M1399 115L1300.52 16.52" stroke="black" stroke-width="2" stroke-miterlimit="10"/>
<path d="M1399 16.52V115H1300.52" stroke="black" stroke-width="2" stroke-miterlimit="10"/>
</g>
<path d="M838.891 269V234.536H862.219V239.912H844.939V248.552H859.483V253.928H844.939V263.624H862.219V269H838.891ZM888.223 234.536H894.943L883.375 251.48L895.423 269H888.511L879.727 256.04L870.895 269H864.175L876.223 251.48L864.607 234.536H871.519L879.871 246.872L888.223 234.536ZM903.009 243.416C901.473 245.576 900.705 248.504 900.705 251.768C900.705 255.032 901.473 257.96 903.009 260.12C904.737 262.664 907.377 264.104 910.401 264.104C914.385 264.104 917.313 261.704 918.417 257.624L924.177 259.592C922.065 265.928 917.121 269.528 910.401 269.528C905.745 269.528 901.569 267.608 898.689 264.152C896.001 260.936 894.561 256.616 894.561 251.768C894.561 246.92 896.001 242.6 898.689 239.384C901.569 235.928 905.745 234.008 910.401 234.008C917.121 234.008 922.065 237.608 924.177 243.944L918.417 245.912C917.313 241.832 914.385 239.432 910.401 239.432C907.377 239.432 904.737 240.872 903.009 243.416ZM950.241 269H927.873V234.536H934.017V263.624H950.241V269ZM965.627 269.48C956.939 269.48 951.755 264.296 951.755 255.32V234.536H957.899V255.128C957.899 260.936 960.635 264.056 965.627 264.056C970.667 264.056 973.403 260.936 973.403 255.128V234.536H979.547V255.32C979.547 264.344 974.411 269.48 965.627 269.48ZM996.029 269.528C993.005 269.528 990.173 268.856 987.533 267.56C984.893 266.216 982.877 264.44 981.581 262.28L986.285 258.392C988.733 262.184 992.333 264.296 996.221 264.296C1000.4 264.296 1003.04 262.328 1003.04 259.208C1003.04 257.864 1002.51 256.904 1001.36 256.184C1000.59 255.656 999.581 255.272 997.901 254.84L995.981 254.408C995.165 254.168 994.589 254.024 994.301 253.976C990.269 253.016 988.445 252.248 986.909 251.24C984.653 249.704 983.549 247.496 983.549 244.472C983.549 241.256 984.893 238.568 987.437 236.648C989.597 234.92 992.669 234.008 995.981 234.008C1001.4 234.008 1006.3 236.504 1008.8 240.392L1004.28 244.28C1002.03 240.824 999.389 239.24 995.789 239.24C992.093 239.24 989.549 241.112 989.549 243.848C989.549 245.528 990.317 246.536 992.237 247.304C993.053 247.64 994.013 247.928 996.845 248.552C999.437 249.128 1001.26 249.608 1002.32 249.992C1003.42 250.376 1004.33 250.808 1005.1 251.288C1007.79 252.872 1009.08 255.272 1009.08 258.584C1009.08 261.896 1007.64 264.728 1005 266.792C1002.65 268.52 999.485 269.528 996.029 269.528ZM1012.92 234.536H1019.06V269H1012.92V234.536ZM1054.33 234.536L1041.61 269H1035.13L1022.31 234.536H1028.93L1038.44 261.32L1047.99 234.536H1054.33ZM1057.57 269V234.536H1080.89V239.912H1063.61V248.552H1078.16V253.928H1063.61V263.624H1080.89V269H1057.57ZM1092.21 269L1105.27 234.536H1112.23L1125.29 269H1119.09L1116.12 261.128H1101.24L1098.31 269H1092.21ZM1114.1 255.752L1108.63 241.352L1103.25 255.752H1114.1ZM1140.26 255.656H1134.69V269H1128.55V234.536H1142.32C1150.24 234.536 1154.8 238.376 1154.8 245.096C1154.8 250.424 1151.97 253.976 1146.79 255.176L1155.67 269H1148.66L1140.26 255.656ZM1134.69 239.816V250.376H1141.99C1146.36 250.376 1148.76 248.504 1148.76 245.096C1148.76 241.64 1146.4 239.816 1141.99 239.816H1134.69ZM1184.74 234.536V239.912H1173.65V269H1167.5V239.912H1156.42V234.536H1184.74ZM1197.66 269V234.536H1220.98V239.912H1203.7V248.552H1218.25V253.928H1203.7V263.624H1220.98V269H1197.66ZM1246.99 234.536H1253.71L1242.14 251.48L1254.19 269H1247.28L1238.49 256.04L1229.66 269H1222.94L1234.99 251.48L1223.37 234.536H1230.28L1238.64 246.872L1246.99 234.536ZM1280.15 248.552V234.536H1286.29V269H1280.15V253.928H1263.64V269H1257.49V234.536H1263.64V248.552H1280.15ZM1292.36 234.536H1298.5V269H1292.36V234.536ZM1319.08 269H1304.53V234.536H1318.21C1325.56 234.536 1329.54 237.704 1329.54 243.608C1329.54 247.208 1327.76 249.848 1324.64 251.048C1328.44 252.248 1330.64 255.368 1330.64 259.4C1330.64 265.352 1326.23 269 1319.08 269ZM1310.44 239.72V248.792H1317.64C1321.62 248.792 1323.73 247.256 1323.73 244.232C1323.73 241.304 1321.67 239.72 1317.64 239.72H1310.44ZM1318.74 253.976H1310.44V263.816H1318.74C1322.44 263.816 1324.74 261.944 1324.74 258.872C1324.74 255.848 1322.44 253.976 1318.74 253.976ZM1334.71 234.536H1340.85V269H1334.71V234.536ZM1372.66 234.536V239.912H1361.57V269H1355.43V239.912H1344.34V234.536H1372.66ZM1385.9 269.528C1382.87 269.528 1380.04 268.856 1377.4 267.56C1374.76 266.216 1372.74 264.44 1371.45 262.28L1376.15 258.392C1378.6 262.184 1382.2 264.296 1386.09 264.296C1390.26 264.296 1392.9 262.328 1392.9 259.208C1392.9 257.864 1392.38 256.904 1391.22 256.184C1390.46 255.656 1389.45 255.272 1387.77 254.84L1385.85 254.408C1385.03 254.168 1384.46 254.024 1384.17 253.976C1380.14 253.016 1378.31 252.248 1376.78 251.24C1374.52 249.704 1373.42 247.496 1373.42 244.472C1373.42 241.256 1374.76 238.568 1377.3 236.648C1379.46 234.92 1382.54 234.008 1385.85 234.008C1391.27 234.008 1396.17 236.504 1398.66 240.392L1394.15 244.28C1391.9 240.824 1389.26 239.24 1385.66 239.24C1381.96 239.24 1379.42 241.112 1379.42 243.848C1379.42 245.528 1380.18 246.536 1382.1 247.304C1382.92 247.64 1383.88 247.928 1386.71 248.552C1389.3 249.128 1391.13 249.608 1392.18 249.992C1393.29 250.376 1394.2 250.808 1394.97 251.288C1397.66 252.872 1398.95 255.272 1398.95 258.584C1398.95 261.896 1397.51 264.728 1394.87 266.792C1392.52 268.52 1389.35 269.528 1385.9 269.528Z" fill="black"/>
<path d="M225.74 207.361C222.117 207.38 220.445 211.261 217.305 212.243C210.779 216.461 204.536 221.201 197.459 224.365C195.363 225.302 193.125 227.177 190.947 224.96C188.477 222.451 189.689 219.522 190.842 216.817C191.808 214.547 192.938 212.355 193.996 210.124C205.616 194.125 218.722 179.333 228.032 161.459C231.937 153.956 229.832 148.517 222.04 147.184C214.785 145.944 207.516 145.871 200.189 146.74C194.902 147.365 189.712 149.147 184.316 148.532C181.824 148.249 178.698 147.248 180.762 144.045C184.635 138.04 180.092 138.582 177.276 138.45C166.02 137.933 154.732 137.44 143.754 141.092C137.365 140.281 131.437 143.054 125.28 144.006C120.864 144.69 116.458 145.705 111.996 146.237C101.164 147.834 90.4691 151.256 79.2041 148.341C90.2184 145.92 101.233 143.503 112.243 141.082C122.956 140.764 133.278 137.816 143.722 135.687C153.598 132.997 163.7 132.909 173.726 133.554C179.208 133.905 186.759 131.708 187.538 141.985C187.707 144.197 190.136 143.054 191.594 142.795C200.79 141.179 210.05 140.745 219.337 141.228C233.359 141.956 238.217 151.119 231.559 164.423C225.266 177.004 216.152 187.364 207.699 198.226C205.552 200.985 203.082 203.465 202.13 207.068C201.829 207.263 201.528 207.458 201.228 207.653C201.761 208.449 202.057 207.697 202.426 207.444C203.36 208.2 204.299 208.952 205.242 209.709C199.295 208.747 196.215 212.453 194.05 217.632C193.663 218.555 192.934 219.531 193.745 220.503C194.561 221.475 195.595 220.903 196.443 220.474C201.888 217.696 207.548 215.284 211.832 210.456C236.85 193.456 260.852 174.968 283.878 154.981C288.271 151.168 291.603 146.027 296.884 143.293C298.753 142.327 301.013 140.594 300.17 137.908C299.299 135.14 296.542 135.638 294.473 135.892C283.673 137.205 272.891 138.66 262.114 140.144C260.227 140.403 258.391 141.101 255.37 140.013C266.894 136.014 277.699 134.076 288.549 132.348C293.043 131.63 297.536 130.913 302.043 130.263C304.412 129.921 307.096 129.482 308.523 132.031C309.899 134.491 307.867 136.332 306.586 138.187C299.195 148.898 289.247 156.641 279.513 164.54C261.708 178.986 243.676 193.1 225.74 207.356V207.361Z" fill="black"/>
<defs>
<clipPath id="clip0_6925_2464">
<rect width="100.19" height="100.19" fill="white" transform="translate(1299.81 15.8101)"/>
</clipPath>
</defs>
</svg>
