<svg width="1440" height="360" viewBox="0 0 1440 360" fill="none" xmlns="http://www.w3.org/2000/svg">
<path d="M143.84 146H132.608V138.896C129.632 143.888 122.528 147.056 114.08 147.056C104.864 147.056 96.8 143.216 91.04 136.304C85.76 130.064 82.976 121.424 82.976 111.824C82.976 102.128 85.952 93.296 91.328 86.768C97.184 79.856 105.536 76.016 114.848 76.016C128.384 76.016 138.368 83.12 142.688 95.792L130.976 99.728C128.96 91.568 123.104 86.864 114.944 86.864C109.088 86.864 104.384 89.168 100.736 93.776C97.088 98.288 95.264 104.24 95.264 111.632C95.264 119.024 97.088 125.072 100.736 129.68C104.384 134.192 109.184 136.496 115.136 136.496C124.832 136.496 131.648 129.68 132.032 119.6H113.888V108.848H143.84V146ZM149.75 146L175.862 77.072H189.782L215.894 146H203.51L197.558 130.256H167.798L161.942 146H149.75ZM193.526 119.504L182.582 90.704L171.83 119.504H193.526ZM267.157 146H222.421V77.072H234.709V135.248H267.157V146ZM318.884 146H274.148V77.072H286.436V135.248H318.884V146ZM325.876 146V77.072H372.532V87.824H337.972V105.104H367.06V115.856H337.972V135.248H372.532V146H325.876ZM405.34 119.312H394.204V146H381.916V77.072H409.468C425.308 77.072 434.428 84.752 434.428 98.192C434.428 108.848 428.764 115.952 418.396 118.352L436.156 146H422.14L405.34 119.312ZM394.204 87.632V108.752H408.796C417.532 108.752 422.332 105.008 422.332 98.192C422.332 91.28 417.628 87.632 408.796 87.632H394.204ZM447.115 77.072L464.971 106.352L482.827 77.072H495.883L471.019 117.584V146H458.731V117.584L433.771 77.072H447.115Z" fill="black"/>
<path d="M1299.81 104C1299.81 76.3858 1277.42 54 1249.81 54C1222.2 54 1199.81 76.3858 1199.81 104C1199.81 131.614 1222.2 154 1249.81 154C1277.42 154 1299.81 131.614 1299.81 104Z" stroke="black" stroke-width="2" stroke-miterlimit="10"/>
<g clip-path="url(#clip0_6925_2464)">
<path d="M1399 153L1300.52 54.52" stroke="black" stroke-width="2" stroke-miterlimit="10"/>
<path d="M1399 54.52V153H1300.52" stroke="black" stroke-width="2" stroke-miterlimit="10"/>
</g>
<path d="M838.891 307V272.536H862.219V277.912H844.939V286.552H859.483V291.928H844.939V301.624H862.219V307H838.891ZM888.223 272.536H894.943L883.375 289.48L895.423 307H888.511L879.727 294.04L870.895 307H864.175L876.223 289.48L864.607 272.536H871.519L879.871 284.872L888.223 272.536ZM903.009 281.416C901.473 283.576 900.705 286.504 900.705 289.768C900.705 293.032 901.473 295.96 903.009 298.12C904.737 300.664 907.377 302.104 910.401 302.104C914.385 302.104 917.313 299.704 918.417 295.624L924.177 297.592C922.065 303.928 917.121 307.528 910.401 307.528C905.745 307.528 901.569 305.608 898.689 302.152C896.001 298.936 894.561 294.616 894.561 289.768C894.561 284.92 896.001 280.6 898.689 277.384C901.569 273.928 905.745 272.008 910.401 272.008C917.121 272.008 922.065 275.608 924.177 281.944L918.417 283.912C917.313 279.832 914.385 277.432 910.401 277.432C907.377 277.432 904.737 278.872 903.009 281.416ZM950.241 307H927.873V272.536H934.017V301.624H950.241V307ZM965.627 307.48C956.939 307.48 951.755 302.296 951.755 293.32V272.536H957.899V293.128C957.899 298.936 960.635 302.056 965.627 302.056C970.667 302.056 973.403 298.936 973.403 293.128V272.536H979.547V293.32C979.547 302.344 974.411 307.48 965.627 307.48ZM996.029 307.528C993.005 307.528 990.173 306.856 987.533 305.56C984.893 304.216 982.877 302.44 981.581 300.28L986.285 296.392C988.733 300.184 992.333 302.296 996.221 302.296C1000.4 302.296 1003.04 300.328 1003.04 297.208C1003.04 295.864 1002.51 294.904 1001.36 294.184C1000.59 293.656 999.581 293.272 997.901 292.84L995.981 292.408C995.165 292.168 994.589 292.024 994.301 291.976C990.269 291.016 988.445 290.248 986.909 289.24C984.653 287.704 983.549 285.496 983.549 282.472C983.549 279.256 984.893 276.568 987.437 274.648C989.597 272.92 992.669 272.008 995.981 272.008C1001.4 272.008 1006.3 274.504 1008.8 278.392L1004.28 282.28C1002.03 278.824 999.389 277.24 995.789 277.24C992.093 277.24 989.549 279.112 989.549 281.848C989.549 283.528 990.317 284.536 992.237 285.304C993.053 285.64 994.013 285.928 996.845 286.552C999.437 287.128 1001.26 287.608 1002.32 287.992C1003.42 288.376 1004.33 288.808 1005.1 289.288C1007.79 290.872 1009.08 293.272 1009.08 296.584C1009.08 299.896 1007.64 302.728 1005 304.792C1002.65 306.52 999.485 307.528 996.029 307.528ZM1012.92 272.536H1019.06V307H1012.92V272.536ZM1054.33 272.536L1041.61 307H1035.13L1022.31 272.536H1028.93L1038.44 299.32L1047.99 272.536H1054.33ZM1057.57 307V272.536H1080.89V277.912H1063.61V286.552H1078.16V291.928H1063.61V301.624H1080.89V307H1057.57ZM1092.21 307L1105.27 272.536H1112.23L1125.29 307H1119.09L1116.12 299.128H1101.24L1098.31 307H1092.21ZM1114.1 293.752L1108.63 279.352L1103.25 293.752H1114.1ZM1140.26 293.656H1134.69V307H1128.55V272.536H1142.32C1150.24 272.536 1154.8 276.376 1154.8 283.096C1154.8 288.424 1151.97 291.976 1146.79 293.176L1155.67 307H1148.66L1140.26 293.656ZM1134.69 277.816V288.376H1141.99C1146.36 288.376 1148.76 286.504 1148.76 283.096C1148.76 279.64 1146.4 277.816 1141.99 277.816H1134.69ZM1184.74 272.536V277.912H1173.65V307H1167.5V277.912H1156.42V272.536H1184.74ZM1197.66 307V272.536H1220.98V277.912H1203.7V286.552H1218.25V291.928H1203.7V301.624H1220.98V307H1197.66ZM1246.99 272.536H1253.71L1242.14 289.48L1254.19 307H1247.28L1238.49 294.04L1229.66 307H1222.94L1234.99 289.48L1223.37 272.536H1230.28L1238.64 284.872L1246.99 272.536ZM1280.15 286.552V272.536H1286.29V307H1280.15V291.928H1263.64V307H1257.49V272.536H1263.64V286.552H1280.15ZM1292.36 272.536H1298.5V307H1292.36V272.536ZM1319.08 307H1304.53V272.536H1318.21C1325.56 272.536 1329.54 275.704 1329.54 281.608C1329.54 285.208 1327.76 287.848 1324.64 289.048C1328.44 290.248 1330.64 293.368 1330.64 297.4C1330.64 303.352 1326.23 307 1319.08 307ZM1310.44 277.72V286.792H1317.64C1321.62 286.792 1323.73 285.256 1323.73 282.232C1323.73 279.304 1321.67 277.72 1317.64 277.72H1310.44ZM1318.74 291.976H1310.44V301.816H1318.74C1322.44 301.816 1324.74 299.944 1324.74 296.872C1324.74 293.848 1322.44 291.976 1318.74 291.976ZM1334.71 272.536H1340.85V307H1334.71V272.536ZM1372.66 272.536V277.912H1361.57V307H1355.43V277.912H1344.34V272.536H1372.66ZM1385.9 307.528C1382.87 307.528 1380.04 306.856 1377.4 305.56C1374.76 304.216 1372.74 302.44 1371.45 300.28L1376.15 296.392C1378.6 300.184 1382.2 302.296 1386.09 302.296C1390.26 302.296 1392.9 300.328 1392.9 297.208C1392.9 295.864 1392.38 294.904 1391.22 294.184C1390.46 293.656 1389.45 293.272 1387.77 292.84L1385.85 292.408C1385.03 292.168 1384.46 292.024 1384.17 291.976C1380.14 291.016 1378.31 290.248 1376.78 289.24C1374.52 287.704 1373.42 285.496 1373.42 282.472C1373.42 279.256 1374.76 276.568 1377.3 274.648C1379.46 272.92 1382.54 272.008 1385.85 272.008C1391.27 272.008 1396.17 274.504 1398.66 278.392L1394.15 282.28C1391.9 278.824 1389.26 277.24 1385.66 277.24C1381.96 277.24 1379.42 279.112 1379.42 281.848C1379.42 283.528 1380.18 284.536 1382.1 285.304C1382.92 285.64 1383.88 285.928 1386.71 286.552C1389.3 287.128 1391.13 287.608 1392.18 287.992C1393.29 288.376 1394.2 288.808 1394.97 289.288C1397.66 290.872 1398.95 293.272 1398.95 296.584C1398.95 299.896 1397.51 302.728 1394.87 304.792C1392.52 306.52 1389.35 307.528 1385.9 307.528Z" fill="black"/>
<path d="M225.74 245.361C222.117 245.38 220.445 249.261 217.305 250.243C210.779 254.461 204.536 259.201 197.459 262.365C195.363 263.302 193.125 265.177 190.947 262.96C188.477 260.451 189.689 257.522 190.842 254.817C191.808 252.547 192.938 250.355 193.996 248.124C205.616 232.125 218.722 217.333 228.032 199.459C231.937 191.956 229.832 186.517 222.04 185.184C214.785 183.944 207.516 183.871 200.189 184.74C194.902 185.365 189.712 187.147 184.316 186.532C181.824 186.249 178.698 185.248 180.762 182.045C184.635 176.04 180.092 176.582 177.276 176.45C166.02 175.933 154.732 175.44 143.754 179.092C137.365 178.281 131.437 181.054 125.28 182.006C120.864 182.69 116.458 183.705 111.996 184.237C101.164 185.834 90.4691 189.256 79.2041 186.341C90.2184 183.92 101.233 181.503 112.243 179.082C122.956 178.764 133.278 175.816 143.722 173.687C153.598 170.997 163.7 170.909 173.726 171.554C179.208 171.905 186.759 169.708 187.538 179.985C187.707 182.197 190.136 181.054 191.594 180.795C200.79 179.179 210.05 178.745 219.337 179.228C233.359 179.956 238.217 189.119 231.559 202.423C225.266 215.004 216.152 225.364 207.699 236.226C205.552 238.985 203.082 241.465 202.13 245.068C201.829 245.263 201.528 245.458 201.228 245.653C201.761 246.449 202.057 245.697 202.426 245.444C203.36 246.2 204.299 246.952 205.242 247.709C199.295 246.747 196.215 250.453 194.05 255.632C193.663 256.555 192.934 257.531 193.745 258.503C194.561 259.475 195.595 258.903 196.443 258.474C201.888 255.696 207.548 253.284 211.832 248.456C236.85 231.456 260.852 212.968 283.878 192.981C288.271 189.168 291.603 184.027 296.884 181.293C298.753 180.327 301.013 178.594 300.17 175.908C299.299 173.14 296.542 173.638 294.473 173.892C283.673 175.205 272.891 176.66 262.114 178.144C260.227 178.403 258.391 179.101 255.37 178.013C266.894 174.014 277.699 172.076 288.549 170.348C293.043 169.63 297.536 168.913 302.043 168.263C304.412 167.921 307.096 167.482 308.523 170.031C309.899 172.491 307.867 174.332 306.586 176.187C299.195 186.898 289.247 194.641 279.513 202.54C261.708 216.986 243.676 231.1 225.74 245.356V245.361Z" fill="black"/>
<defs>
<clipPath id="clip0_6925_2464">
<rect width="100.19" height="100.19" fill="white" transform="translate(1299.81 53.8101)"/>
</clipPath>
</defs>
</svg>
