<svg width="1440" height="205" viewBox="0 0 1440 205" fill="none" xmlns="http://www.w3.org/2000/svg">
<path d="M91.84 131.294V103.262H104.128V172.19H91.84V142.046H58.816V172.19H46.528V103.262H58.816V131.294H91.84ZM121.152 162.686C115.68 156.254 112.704 147.614 112.704 137.726C112.704 127.838 115.68 119.198 121.152 112.766C127.008 105.95 135.264 102.206 144.768 102.206C154.272 102.206 162.528 105.95 168.384 112.766C173.856 119.198 176.832 127.838 176.832 137.726C176.832 147.614 173.856 156.254 168.384 162.686C162.528 169.502 154.272 173.246 144.768 173.246C135.264 173.246 127.008 169.502 121.152 162.686ZM144.768 162.398C150.624 162.398 155.424 160.094 159.072 155.582C162.72 151.07 164.544 145.118 164.544 137.726C164.544 130.334 162.72 124.382 159.072 119.87C155.424 115.358 150.624 113.054 144.768 113.054C138.912 113.054 134.112 115.358 130.464 119.87C126.816 124.382 124.992 130.334 124.992 137.726C124.992 145.118 126.816 151.07 130.464 155.582C134.112 160.094 138.912 162.398 144.768 162.398ZM203.143 153.854L215.911 103.262H226.759L239.623 153.854L252.679 103.262H264.967L246.343 172.19H234.247L221.191 123.614L208.231 172.19H196.135L177.415 103.262H190.087L203.143 153.854ZM310.442 153.854L323.21 103.262H334.058L346.922 153.854L359.978 103.262H372.266L353.642 172.19H341.546L328.49 123.614L315.53 172.19H303.434L284.714 103.262H297.386L310.442 153.854ZM378.759 172.19V103.262H425.415V114.014H390.855V131.294H419.943V142.046H390.855V161.438H425.415V172.19H378.759ZM476.661 172.19H453.62V103.262H476.661C487.125 103.262 495.861 106.43 501.909 112.574C508.053 118.622 511.317 127.358 511.317 137.726C511.317 148.094 508.053 156.83 501.909 162.878C495.861 169.022 487.125 172.19 476.661 172.19ZM465.62 113.822V161.63H476.661C490.58 161.63 499.221 152.414 499.221 137.726C499.221 122.846 490.677 113.822 476.564 113.822H465.62ZM525.338 162.686C519.866 156.254 516.89 147.614 516.89 137.726C516.89 127.838 519.866 119.198 525.338 112.766C531.194 105.95 539.45 102.206 548.954 102.206C558.458 102.206 566.714 105.95 572.57 112.766C578.042 119.198 581.018 127.838 581.018 137.726C581.018 147.614 578.042 156.254 572.57 162.686C566.714 169.502 558.458 173.246 548.954 173.246C539.45 173.246 531.194 169.502 525.338 162.686ZM548.954 162.398C554.81 162.398 559.61 160.094 563.258 155.582C566.906 151.07 568.73 145.118 568.73 137.726C568.73 130.334 566.906 124.382 563.258 119.87C559.61 115.358 554.81 113.054 548.954 113.054C543.098 113.054 538.298 115.358 534.65 119.87C531.002 124.382 529.178 130.334 529.178 137.726C529.178 145.118 531.002 151.07 534.65 155.582C538.298 160.094 543.098 162.398 548.954 162.398ZM608.428 103.262H620.716V172.19H608.428V103.262ZM684.333 103.262V114.014H662.157V172.19H649.869V114.014H627.693V103.262H684.333Z" fill="black"/>
<path d="M1299.81 130.19C1299.81 102.576 1277.42 80.1899 1249.81 80.1899C1222.2 80.1899 1199.81 102.576 1199.81 130.19C1199.81 157.804 1222.2 180.19 1249.81 180.19C1277.42 180.19 1299.81 157.804 1299.81 130.19Z" stroke="black" stroke-width="2" stroke-miterlimit="10"/>
<g clip-path="url(#clip0_4889_3495)">
<path d="M1399 179.19L1300.52 80.71" stroke="black" stroke-width="2" stroke-miterlimit="10"/>
<path d="M1399 80.71V179.19H1300.52" stroke="black" stroke-width="2" stroke-miterlimit="10"/>
</g>
<defs>
<clipPath id="clip0_4889_3495">
<rect width="100.19" height="100.19" fill="white" transform="translate(1299.81 80)"/>
</clipPath>
</defs>
</svg>
