<svg width="1564" height="353" viewBox="0 0 1564 353" fill="none" xmlns="http://www.w3.org/2000/svg">
<path d="M115.616 139H86.528V70.072H113.888C128.576 70.072 136.544 76.408 136.544 88.216C136.544 95.416 132.992 100.696 126.752 103.096C134.336 105.496 138.752 111.736 138.752 119.8C138.752 131.704 129.92 139 115.616 139ZM98.336 80.44V98.584H112.736C120.704 98.584 124.928 95.512 124.928 89.464C124.928 83.608 120.8 80.44 112.736 80.44H98.336ZM114.944 108.952H98.336V128.632H114.944C122.336 128.632 126.944 124.888 126.944 118.744C126.944 112.696 122.336 108.952 114.944 108.952ZM146.881 139V70.072H193.537V80.824H158.977V98.104H188.065V108.856H158.977V128.248H193.537V139H146.881ZM248.233 98.104V70.072H260.521V139H248.233V108.856H215.209V139H202.921V70.072H215.209V98.104H248.233ZM272.648 70.072H284.936V139H272.648V70.072ZM341.929 70.072H353.737V139H342.985L308.809 88.408V139H297.001V70.072H309.673L341.929 118.36V70.072ZM388.831 139H365.791V70.072H388.831C399.295 70.072 408.031 73.24 414.079 79.384C420.223 85.432 423.487 94.168 423.487 104.536C423.487 114.904 420.223 123.64 414.079 129.688C408.031 135.832 399.295 139 388.831 139ZM377.791 80.632V128.44H388.831C402.751 128.44 411.391 119.224 411.391 104.536C411.391 89.656 402.847 80.632 388.735 80.632H377.791ZM502.516 70.072V80.824H480.34V139H468.052V80.824H445.876V70.072H502.516ZM554.848 98.104V70.072H567.136V139H554.848V108.856H521.824V139H509.536V70.072H521.824V98.104H554.848ZM579.263 139V70.072H625.919V80.824H591.359V98.104H620.447V108.856H591.359V128.248H625.919V139H579.263ZM666.22 110.296V139H654.124V70.072H700.108V80.824H666.22V99.544H694.636V110.296H666.22ZM731.994 112.312H720.858V139H708.57V70.072H736.122C751.962 70.072 761.082 77.752 761.082 91.192C761.082 101.848 755.418 108.952 745.05 111.352L762.81 139H748.794L731.994 112.312ZM720.858 80.632V101.752H735.45C744.186 101.752 748.986 98.008 748.986 91.192C748.986 84.28 744.282 80.632 735.45 80.632H720.858ZM764.293 139L790.405 70.072H804.325L830.437 139H818.053L812.101 123.256H782.341L776.485 139H764.293ZM808.069 112.504L797.125 83.704L786.373 112.504H808.069ZM894.467 85.72L876.419 139H866.435L848.387 85.72V139H836.963V70.072H853.859L871.619 122.872L889.379 70.072H905.891V139H894.467V85.72ZM917.94 139V70.072H964.596V80.824H930.036V98.104H959.124V108.856H930.036V128.248H964.596V139H917.94Z" fill="black"/>
<path d="M1403.81 97C1403.81 69.3858 1381.42 47 1353.81 47C1326.2 47 1303.81 69.3858 1303.81 97C1303.81 124.614 1326.2 147 1353.81 147C1381.42 147 1403.81 124.614 1403.81 97Z" stroke="black" stroke-width="2" stroke-miterlimit="10"/>
<g clip-path="url(#clip0_6924_2389)">
<path d="M1503 146L1404.52 47.52" stroke="black" stroke-width="2" stroke-miterlimit="10"/>
<path d="M1503 47.52V146H1404.52" stroke="black" stroke-width="2" stroke-miterlimit="10"/>
</g>
<path d="M1238.77 242.832L1245.16 217.536H1250.58L1257.01 242.832L1263.54 217.536H1269.69L1260.37 252H1254.33L1247.8 227.712L1241.32 252H1235.27L1225.91 217.536H1232.25L1238.77 242.832ZM1295.59 231.552V217.536H1301.73V252H1295.59V236.928H1279.08V252H1272.93V217.536H1279.08V231.552H1295.59ZM1307.8 252V217.536H1331.12V222.912H1313.84V231.552H1328.39V236.928H1313.84V246.624H1331.12V252H1307.8ZM1347.53 238.656H1341.96V252H1335.82V217.536H1349.59C1357.51 217.536 1362.07 221.376 1362.07 228.096C1362.07 233.424 1359.24 236.976 1354.06 238.176L1362.94 252H1355.93L1347.53 238.656ZM1341.96 222.816V233.376H1349.26C1353.62 233.376 1356.02 231.504 1356.02 228.096C1356.02 224.64 1353.67 222.816 1349.26 222.816H1341.96ZM1366.7 252V217.536H1390.02V222.912H1372.74V231.552H1387.29V236.928H1372.74V246.624H1390.02V252H1366.7ZM1401.34 252L1414.4 217.536H1421.36L1434.41 252H1428.22L1425.25 244.128H1410.37L1407.44 252H1401.34ZM1423.23 238.752L1417.76 224.352L1412.38 238.752H1423.23ZM1449.39 238.656H1443.82V252H1437.68V217.536H1451.45C1459.37 217.536 1463.93 221.376 1463.93 228.096C1463.93 233.424 1461.1 236.976 1455.92 238.176L1464.8 252H1457.79L1449.39 238.656ZM1443.82 222.816V233.376H1451.12C1455.49 233.376 1457.89 231.504 1457.89 228.096C1457.89 224.64 1455.53 222.816 1451.12 222.816H1443.82ZM1493.86 217.536V222.912H1482.78V252H1476.63V222.912H1465.54V217.536H1493.86ZM976.167 273.36L967.143 300H962.151L953.127 273.36V300H947.415V265.536H955.863L964.743 291.936L973.623 265.536H981.879V300H976.167V273.36ZM987.904 300V265.536H1011.23V270.912H993.952V279.552H1008.5V284.928H993.952V294.624H1011.23V300H987.904ZM1015.92 300V265.536H1039.25V270.912H1021.97V279.552H1036.52V284.928H1021.97V294.624H1039.25V300H1015.92ZM1069.72 265.536V270.912H1058.63V300H1052.49V270.912H1041.4V265.536H1069.72ZM1082.95 300.528C1079.93 300.528 1077.1 299.856 1074.46 298.56C1071.82 297.216 1069.8 295.44 1068.51 293.28L1073.21 289.392C1075.66 293.184 1079.26 295.296 1083.15 295.296C1087.32 295.296 1089.96 293.328 1089.96 290.208C1089.96 288.864 1089.43 287.904 1088.28 287.184C1087.51 286.656 1086.51 286.272 1084.83 285.84L1082.91 285.408C1082.09 285.168 1081.51 285.024 1081.23 284.976C1077.19 284.016 1075.37 283.248 1073.83 282.24C1071.58 280.704 1070.47 278.496 1070.47 275.472C1070.47 272.256 1071.82 269.568 1074.36 267.648C1076.52 265.92 1079.59 265.008 1082.91 265.008C1088.33 265.008 1093.23 267.504 1095.72 271.392L1091.21 275.28C1088.95 271.824 1086.31 270.24 1082.71 270.24C1079.02 270.24 1076.47 272.112 1076.47 274.848C1076.47 276.528 1077.24 277.536 1079.16 278.304C1079.98 278.64 1080.94 278.928 1083.77 279.552C1086.36 280.128 1088.19 280.608 1089.24 280.992C1090.35 281.376 1091.26 281.808 1092.03 282.288C1094.71 283.872 1096.01 286.272 1096.01 289.584C1096.01 292.896 1094.57 295.728 1091.93 297.792C1089.58 299.52 1086.41 300.528 1082.95 300.528ZM1115.93 274.416C1114.39 276.576 1113.62 279.504 1113.62 282.768C1113.62 286.032 1114.39 288.96 1115.93 291.12C1117.65 293.664 1120.29 295.104 1123.32 295.104C1127.3 295.104 1130.23 292.704 1131.33 288.624L1137.09 290.592C1134.98 296.928 1130.04 300.528 1123.32 300.528C1118.66 300.528 1114.49 298.608 1111.61 295.152C1108.92 291.936 1107.48 287.616 1107.48 282.768C1107.48 277.92 1108.92 273.6 1111.61 270.384C1114.49 266.928 1118.66 265.008 1123.32 265.008C1130.04 265.008 1134.98 268.608 1137.09 274.944L1131.33 276.912C1130.23 272.832 1127.3 270.432 1123.32 270.432C1120.29 270.432 1117.65 271.872 1115.93 274.416ZM1152.5 286.656H1146.93V300H1140.79V265.536H1154.57C1162.49 265.536 1167.05 269.376 1167.05 276.096C1167.05 281.424 1164.21 284.976 1159.03 286.176L1167.91 300H1160.9L1152.5 286.656ZM1146.93 270.816V281.376H1154.23C1158.6 281.376 1161 279.504 1161 276.096C1161 272.64 1158.65 270.816 1154.23 270.816H1146.93ZM1168.65 300L1181.71 265.536H1188.67L1201.72 300H1195.53L1192.55 292.128H1177.67L1174.75 300H1168.65ZM1190.54 286.752L1185.07 272.352L1179.69 286.752H1190.54ZM1211.03 285.648V300H1204.99V265.536H1227.98V270.912H1211.03V280.272H1225.24V285.648H1211.03ZM1257.99 265.536V270.912H1246.9V300H1240.75V270.912H1229.67V265.536H1257.99ZM1271.22 300.528C1268.2 300.528 1265.36 299.856 1262.72 298.56C1260.08 297.216 1258.07 295.44 1256.77 293.28L1261.48 289.392C1263.92 293.184 1267.52 295.296 1271.41 295.296C1275.59 295.296 1278.23 293.328 1278.23 290.208C1278.23 288.864 1277.7 287.904 1276.55 287.184C1275.78 286.656 1274.77 286.272 1273.09 285.84L1271.17 285.408C1270.36 285.168 1269.78 285.024 1269.49 284.976C1265.46 284.016 1263.64 283.248 1262.1 282.24C1259.84 280.704 1258.74 278.496 1258.74 275.472C1258.74 272.256 1260.08 269.568 1262.63 267.648C1264.79 265.92 1267.86 265.008 1271.17 265.008C1276.6 265.008 1281.49 267.504 1283.99 271.392L1279.48 275.28C1277.22 271.824 1274.58 270.24 1270.98 270.24C1267.28 270.24 1264.74 272.112 1264.74 274.848C1264.74 276.528 1265.51 277.536 1267.43 278.304C1268.24 278.64 1269.2 278.928 1272.04 279.552C1274.63 280.128 1276.45 280.608 1277.51 280.992C1278.61 281.376 1279.52 281.808 1280.29 282.288C1282.98 283.872 1284.28 286.272 1284.28 289.584C1284.28 292.896 1282.84 295.728 1280.2 297.792C1277.84 299.52 1274.68 300.528 1271.22 300.528ZM1316.86 273.36L1307.84 300H1302.84L1293.82 273.36V300H1288.11V265.536H1296.56L1305.44 291.936L1314.32 265.536H1322.57V300H1316.86V273.36ZM1325.81 300L1338.87 265.536H1345.83L1358.89 300H1352.69L1349.72 292.128H1334.84L1331.91 300H1325.81ZM1347.7 286.752L1342.23 272.352L1336.85 286.752H1347.7ZM1384.61 265.536H1390.52V300H1385.14L1368.05 274.704V300H1362.15V265.536H1368.48L1384.61 289.68V265.536ZM1407.49 300.528C1404.46 300.528 1401.63 299.856 1398.99 298.56C1396.35 297.216 1394.34 295.44 1393.04 293.28L1397.74 289.392C1400.19 293.184 1403.79 295.296 1407.68 295.296C1411.86 295.296 1414.5 293.328 1414.5 290.208C1414.5 288.864 1413.97 287.904 1412.82 287.184C1412.05 286.656 1411.04 286.272 1409.36 285.84L1407.44 285.408C1406.62 285.168 1406.05 285.024 1405.76 284.976C1401.73 284.016 1399.9 283.248 1398.37 282.24C1396.11 280.704 1395.01 278.496 1395.01 275.472C1395.01 272.256 1396.35 269.568 1398.9 267.648C1401.06 265.92 1404.13 265.008 1407.44 265.008C1412.86 265.008 1417.76 267.504 1420.26 271.392L1415.74 275.28C1413.49 271.824 1410.85 270.24 1407.25 270.24C1403.55 270.24 1401.01 272.112 1401.01 274.848C1401.01 276.528 1401.78 277.536 1403.7 278.304C1404.51 278.64 1405.47 278.928 1408.3 279.552C1410.9 280.128 1412.72 280.608 1413.78 280.992C1414.88 281.376 1415.79 281.808 1416.56 282.288C1419.25 283.872 1420.54 286.272 1420.54 289.584C1420.54 292.896 1419.1 295.728 1416.46 297.792C1414.11 299.52 1410.94 300.528 1407.49 300.528ZM1447.03 279.552V265.536H1453.18V300H1447.03V284.928H1430.52V300H1424.38V265.536H1430.52V279.552H1447.03ZM1459.24 265.536H1465.38V300H1459.24V265.536ZM1485.19 286.656H1477.56V300H1471.42V265.536H1485.19C1493.11 265.536 1497.67 269.376 1497.67 276.096C1497.67 282.816 1493.06 286.656 1485.19 286.656ZM1477.56 270.816V281.376H1484.86C1489.22 281.376 1491.62 279.504 1491.62 276.096C1491.62 272.64 1489.27 270.816 1484.86 270.816H1477.56ZM1502.1 300H1495.14V293.04H1502.1V300Z" fill="black"/>
<path d="M239.944 238.361C236.044 238.38 234.243 242.261 230.863 243.243C223.839 247.461 217.118 252.201 209.5 255.365C207.243 256.302 204.835 258.177 202.49 255.96C199.831 253.451 201.136 250.522 202.377 247.817C203.417 245.547 204.634 243.355 205.772 241.124C218.281 225.125 232.389 210.333 242.411 192.459C246.615 184.956 244.349 179.517 235.96 178.184C228.151 176.944 220.326 176.871 212.438 177.74C206.748 178.365 201.161 180.147 195.353 179.532C192.669 179.249 189.304 178.248 191.526 175.045C195.696 169.04 190.805 169.582 187.774 169.45C175.657 168.933 163.506 168.44 151.689 172.092C144.811 171.281 138.429 174.054 131.802 175.006C127.048 175.69 122.305 176.705 117.502 177.237C105.842 178.834 94.3286 182.256 82.2021 179.341C94.0588 176.92 105.915 174.503 117.767 172.082C129.3 171.764 140.411 168.816 151.654 166.687C162.285 163.997 173.16 163.909 183.952 164.554C189.853 164.905 197.982 162.708 198.821 172.985C199.002 175.197 201.617 174.054 203.187 173.795C213.086 172.179 223.054 171.745 233.051 172.228C248.146 172.956 253.375 182.119 246.208 195.423C239.433 208.004 229.622 218.364 220.523 229.226C218.212 231.985 215.553 234.465 214.528 238.068C214.204 238.263 213.881 238.458 213.557 238.653C214.131 239.449 214.45 238.697 214.847 238.444C215.853 239.2 216.863 239.952 217.879 240.709C211.477 239.747 208.161 243.453 205.831 248.632C205.414 249.555 204.629 250.531 205.502 251.503C206.38 252.475 207.494 251.903 208.406 251.474C214.268 248.696 220.361 246.284 224.972 241.456C251.903 224.456 277.74 205.968 302.528 185.981C307.257 182.168 310.843 177.027 316.528 174.293C318.54 173.327 320.973 171.594 320.065 168.908C319.128 166.14 316.16 166.638 313.933 166.892C302.307 168.205 290.701 169.66 279.099 171.144C277.068 171.403 275.092 172.101 271.839 171.013C284.245 167.014 295.876 165.076 307.556 163.348C312.393 162.63 317.23 161.913 322.081 161.263C324.632 160.921 327.522 160.482 329.057 163.031C330.538 165.491 328.351 167.332 326.972 169.187C319.015 179.898 308.307 187.641 297.829 195.54C278.663 209.986 259.252 224.1 239.944 238.356V238.361Z" fill="black"/>
<defs>
<clipPath id="clip0_6924_2389">
<rect width="100.19" height="100.19" fill="white" transform="translate(1403.81 46.8101)"/>
</clipPath>
</defs>
</svg>
