<svg width="1564" height="304" viewBox="0 0 1564 304" fill="none" xmlns="http://www.w3.org/2000/svg">
<path d="M131.84 131.294V103.262H144.128V172.19H131.84V142.046H98.816V172.19H86.528V103.262H98.816V131.294H131.84ZM161.152 162.686C155.68 156.254 152.704 147.614 152.704 137.726C152.704 127.838 155.68 119.198 161.152 112.766C167.008 105.95 175.264 102.206 184.768 102.206C194.272 102.206 202.528 105.95 208.384 112.766C213.856 119.198 216.832 127.838 216.832 137.726C216.832 147.614 213.856 156.254 208.384 162.686C202.528 169.502 194.272 173.246 184.768 173.246C175.264 173.246 167.008 169.502 161.152 162.686ZM184.768 162.398C190.624 162.398 195.424 160.094 199.072 155.582C202.72 151.07 204.544 145.118 204.544 137.726C204.544 130.334 202.72 124.382 199.072 119.87C195.424 115.358 190.624 113.054 184.768 113.054C178.912 113.054 174.112 115.358 170.464 119.87C166.816 124.382 164.992 130.334 164.992 137.726C164.992 145.118 166.816 151.07 170.464 155.582C174.112 160.094 178.912 162.398 184.768 162.398ZM243.143 153.854L255.911 103.262H266.759L279.623 153.854L292.679 103.262H304.967L286.343 172.19H274.247L261.191 123.614L248.231 172.19H236.135L217.415 103.262H230.087L243.143 153.854ZM350.442 153.854L363.21 103.262H374.058L386.922 153.854L399.978 103.262H412.266L393.642 172.19H381.546L368.49 123.614L355.53 172.19H343.434L324.714 103.262H337.386L350.442 153.854ZM418.759 172.19V103.262H465.415V114.014H430.855V131.294H459.943V142.046H430.855V161.438H465.415V172.19H418.759ZM516.661 172.19H493.62V103.262H516.661C527.125 103.262 535.861 106.43 541.909 112.574C548.053 118.622 551.317 127.358 551.317 137.726C551.317 148.094 548.053 156.83 541.909 162.878C535.861 169.022 527.125 172.19 516.661 172.19ZM505.62 113.822V161.63H516.661C530.58 161.63 539.221 152.414 539.221 137.726C539.221 122.846 530.677 113.822 516.564 113.822H505.62ZM565.338 162.686C559.866 156.254 556.89 147.614 556.89 137.726C556.89 127.838 559.866 119.198 565.338 112.766C571.194 105.95 579.45 102.206 588.954 102.206C598.458 102.206 606.714 105.95 612.57 112.766C618.042 119.198 621.018 127.838 621.018 137.726C621.018 147.614 618.042 156.254 612.57 162.686C606.714 169.502 598.458 173.246 588.954 173.246C579.45 173.246 571.194 169.502 565.338 162.686ZM588.954 162.398C594.81 162.398 599.61 160.094 603.258 155.582C606.906 151.07 608.73 145.118 608.73 137.726C608.73 130.334 606.906 124.382 603.258 119.87C599.61 115.358 594.81 113.054 588.954 113.054C583.098 113.054 578.298 115.358 574.65 119.87C571.002 124.382 569.178 130.334 569.178 137.726C569.178 145.118 571.002 151.07 574.65 155.582C578.298 160.094 583.098 162.398 588.954 162.398ZM648.428 103.262H660.716V172.19H648.428V103.262ZM724.333 103.262V114.014H702.157V172.19H689.869V114.014H667.693V103.262H724.333Z" fill="black"/>
<path d="M1383.81 130.19C1383.81 102.576 1361.42 80.1899 1333.81 80.1899C1306.2 80.1899 1283.81 102.576 1283.81 130.19C1283.81 157.804 1306.2 180.19 1333.81 180.19C1361.42 180.19 1383.81 157.804 1383.81 130.19Z" stroke="black" stroke-width="2" stroke-miterlimit="10"/>
<g clip-path="url(#clip0_4913_2725)">
<path d="M1483 179.19L1384.52 80.71" stroke="black" stroke-width="2" stroke-miterlimit="10"/>
<path d="M1483 80.71V179.19H1384.52" stroke="black" stroke-width="2" stroke-miterlimit="10"/>
</g>
<g clip-path="url(#clip1_4913_2725)">
<path d="M193.272 143.747C193.404 143.81 194.147 144.794 194.235 145.028C194.324 145.261 194.512 146.504 194.475 146.713C194.261 148.013 193.404 149.597 192.844 150.751C191.428 153.66 189.854 156.677 188.211 159.586C186.253 163.063 183.987 166.685 181.872 170.125C181.841 170.181 181.979 170.32 181.941 170.421C181.419 171.746 180.141 173.45 179.222 175.009C178.523 176.202 178.202 176.94 177.862 178.259C177.831 178.379 176.509 179.868 176.408 180.095C176.257 180.449 176.446 180.871 176.263 181.231C176.125 181.509 175.678 181.547 175.602 181.654C175.539 181.749 175.734 182.064 175.627 182.342C175.451 182.79 174.564 183.711 174.242 184.292C173.959 184.815 173.852 185.453 173.6 185.958C173.43 186.292 172.801 186.961 172.65 187.39C172.499 187.819 172.769 187.624 172.895 187.643C173.147 187.68 174.431 187.592 174.822 187.573C177.957 187.409 181.098 187.213 184.239 187.283C186.14 187.327 189.332 187.264 191.075 187.687C191.371 187.756 191.415 187.548 191.371 188.072C190.207 188.305 189.011 188.501 187.846 188.747C187.002 188.924 185.718 189.397 184.85 189.422C184.56 189.428 184.195 189.176 183.899 189.233C183.698 189.271 183.641 189.826 183.477 189.832C183.439 189.832 183.276 189.548 183.087 189.523C182.873 189.498 182.59 189.725 182.313 189.738C179.543 189.864 176.376 190.451 173.525 190.438C173.009 190.438 172.675 190.097 172.555 190.097C172.385 190.097 171.479 190.672 170.925 190.438L169.704 193.373C168.873 194.092 168.627 195.588 168.193 196.376C167.796 197.089 166.575 198.383 166.361 199.077C166.147 199.771 166.777 199.677 165.82 199.917C165.769 200.163 165.757 200.453 165.644 200.68C164.385 203.23 163.056 205.533 161.703 208.07C160.551 210.222 159.141 212.443 158.165 214.5C158.008 214.828 157.926 215.264 157.819 215.617L157.441 215.428C157.17 216.444 156.409 217.163 155.93 218.122C149.931 230.258 143.151 242.229 136.699 254.521C135.075 259.286 132.45 263.855 130.234 268.594C129.661 269.812 129.221 271.61 128.66 272.683C128.503 272.986 127.074 274.437 126.816 274.564C126.023 274.936 124.449 274.381 124.178 273.491C124.103 273.245 124.084 272.267 124.159 272.046C124.248 271.787 124.537 271.642 124.625 271.377C126.445 266.101 128.56 260.176 131.147 255.228C133.388 250.931 135.264 245.668 137.335 241.263C144.964 224.988 153.815 209.502 162.704 193.972C162.943 193.556 164.441 190.962 164.271 190.798C162.502 190.533 161.023 191.442 159.336 190.798C159.021 190.609 158.971 189.687 159.185 189.359C159.814 188.394 164.838 188.236 166.097 188.028L166.411 187.27L167.091 188.04C167.67 187.92 167.576 187.491 167.796 187.195C168.275 186.564 168.52 186.097 168.835 185.308C170.132 182.077 172.171 178.928 173.67 175.886C174.815 173.57 176.037 171.147 177.182 168.654C177.434 168.105 177.994 167.575 178.089 166.868L178.693 166.748L178.391 166.168C178.945 165.31 179.612 164.502 180.109 163.618C181.475 161.176 182.778 158.955 183.981 156.355C184.05 156.204 184.296 156.178 184.302 156.166C184.359 156.002 184.038 155.648 184.17 155.446C184.226 155.364 184.875 155.207 185.038 154.828C185.215 154.424 184.975 154.569 185.315 153.919C186.077 152.461 186.807 151.048 187.689 149.496C188.633 147.823 189.464 145.987 190.899 144.693C191.101 144.51 191.409 144.523 191.51 144.416C191.617 144.302 191.484 143.999 191.686 143.885C191.931 143.74 192.989 143.608 193.266 143.747H193.272ZM166.021 190.81L165.266 190.836L163.881 194.521C164.668 194.269 164.945 192.42 165.228 192.066C165.499 191.738 166.046 191.561 166.021 190.804V190.81ZM162.704 197.449L163.094 195.884C162.697 195.991 162.232 197.266 162.704 197.449ZM159.695 203.249C160.198 202.308 161.451 200.169 161.684 199.26C161.734 199.071 161.879 198.572 161.539 198.623C159.581 202.113 157.995 205.804 156.163 209.363C156.025 209.635 155.786 209.799 155.477 210.411C154.797 211.736 154.004 213.024 153.545 214.456C153.96 214.948 156.415 209.54 156.585 209.199C157.636 207.098 158.744 205.009 159.695 203.249ZM152.676 216.538C152.928 215.996 153.381 215.504 153.343 214.847L151.788 217.681C152.411 218.122 152.361 216.797 152.443 216.652C152.468 216.602 152.651 216.595 152.676 216.538ZM151.977 217.977C151.473 217.857 151.637 218.129 151.473 218.35C151.297 218.589 150.271 219.908 150.907 220.129C151.096 219.246 152.021 218.892 151.977 217.984V217.977Z" fill="black"/>
<path d="M218.2 181.547C216.079 185.642 212.289 189.637 209.809 193.556C207.644 196.97 205.661 200.422 203.533 203.88C202.022 206.341 200.518 208.777 198.912 210.992C198.094 212.121 197.307 213.718 196.678 214.986C195.305 217.769 193.744 220.502 191.824 223.322C191.73 223.461 191.755 223.669 191.761 223.84L191.377 223.638L191.554 224.313L191.025 224.654C191.428 225.67 190.817 225.544 190.534 226.036C189.822 227.304 189.269 229.639 188.771 231.072C188.67 231.356 189.086 231.734 188.45 231.659C188.368 231.987 188.708 231.785 188.796 231.873C188.834 231.911 188.847 232.845 188.847 232.895C188.828 233.053 188.488 233.009 188.394 233.268C188.362 233.343 188.054 234.801 188.047 234.883C187.991 235.748 188.412 236.461 187.588 237.344C186.965 237.855 183.949 236.36 183.823 235.439C183.792 235.192 184 234.921 183.974 234.713C183.974 234.662 183.817 234.58 183.679 233.905C183.616 233.596 182.955 233.198 183.767 233.217C183.143 232.681 183.723 232.46 183.697 232.151C183.578 230.611 184.17 228.27 184.686 226.623C184.786 226.295 185.126 225.399 185.328 224.913C185.718 223.985 186.807 222.445 187.04 221.745C187.298 220.962 186.813 220.539 186.505 221.057C185.8 222.237 185.089 222.761 184.151 223.739C182.35 225.607 180.267 227.803 178.391 229.582C177.616 230.314 177.547 230.15 177.063 230.497C176.773 230.699 176.37 231.122 176.018 231.261C175.394 231.507 174.211 231.488 173.632 231.173C173.223 230.952 173.374 230.213 172.461 230.491C172.958 229.582 171.863 228.913 172.071 228.08C172.108 227.935 172.461 227.967 172.473 227.828C173.009 222.13 178.309 215.977 181.236 210.897L184.358 207.13C184.402 206.814 184.371 206.808 184.063 206.833C183.036 206.915 182.527 208.114 181.815 208.682C180.468 209.767 180.09 209.616 178.844 211.08C178.762 211.175 177.125 212.121 176.83 212.374C176.332 212.796 175.86 213.932 175.218 213.491C175.01 214.014 174.884 214.601 174.223 214.462L174.387 214.816C173.015 215.548 171.737 216.513 171.07 217.946C170.283 217.731 169.401 219.176 168.822 219.328C168.413 219.435 168.199 218.949 167.922 218.987C167.847 219 166.739 219.706 166.613 219.826C166.172 220.249 165.927 220.969 165.536 221.48C162.874 224.932 160.387 228.686 157.649 232.144C156.352 233.785 155.03 235.218 153.544 236.638C153.223 236.947 151.763 239.029 151.31 238.31C150.793 237.502 151.75 237.054 152.178 236.581C156.975 231.286 160.928 224.414 165.272 218.28C165.524 214.513 168.174 211.623 170.207 208.764C170.975 207.679 171.076 207.477 172.001 206.454C172.562 205.83 172.82 205.123 173.279 204.403C174.595 202.353 175.948 200.201 177.358 198.181C178.007 197.247 178.416 196.477 179.322 195.613C179.442 195.499 179.864 195.177 179.983 195.177C180.468 195.556 180.884 195.304 181.488 195.543C184.182 196.616 181.614 199.513 180.789 200.989C179.965 202.466 179.36 203.589 178.397 204.94C178.007 205.483 176.817 206.997 178.366 206.221C180.915 204.94 183.175 202.517 185.932 201.254C187.984 200.314 190.011 200.251 191.585 198.516C196.829 192.716 203.023 186.444 209.337 181.717C209.771 181.389 210.426 181.307 210.797 180.834C210.942 180.802 210.93 181.036 210.892 181.124C210.747 181.452 208.191 183.636 207.669 184.147C202.494 189.195 197.408 195.007 192.945 200.819C188.482 206.631 183.666 212.708 179.902 219.479C179.285 220.59 177.868 223.348 177.484 224.66C177.428 224.856 177.138 225.859 177.642 225.6L182.036 221.448C186.688 216.539 191.61 211.295 195.866 205.754C199.082 201.564 202.022 196.749 204.918 192.761C205.277 192.262 205.478 191.366 205.667 191.044C206.051 190.375 207.109 189.448 207.663 188.646C208.166 187.908 208.04 187.807 208.739 186.999C210.879 184.544 212.352 181.723 214.404 179.224C214.927 178.587 215.758 178.328 216.274 177.71C217.011 177.943 219.101 178.341 219.019 179.338C218.981 179.792 218.452 181.105 218.219 181.547H218.2Z" fill="black"/>
<path d="M135.075 196.143C134.918 196.364 134.968 196.73 134.842 196.932C134.672 197.203 134.263 197.121 134.087 197.298C133.879 197.512 133.199 199.071 132.67 199.696C131.569 200.996 130.316 202.214 129.258 203.501C128.635 204.265 127.691 205.098 127.609 206.057L127.225 205.861C127.269 206.303 127.143 206.625 126.904 206.984C126.596 207.445 125.318 208.366 125.173 208.606C125.066 208.783 125.255 209.098 125.179 209.199C125.06 209.363 124.682 209.307 124.48 209.521C124.027 209.988 123.681 211.111 123.329 211.585C123.133 211.85 122.485 212.235 122.227 212.594C121.837 213.15 120.685 215.472 120.559 215.592C120.515 215.636 120.212 215.422 120.099 215.623C119.917 215.945 120.206 216.242 120.099 216.425C120.061 216.494 119.142 217.182 118.903 217.479C118.053 218.539 117.732 219.814 116.819 220.855C113.848 224.275 111.739 228.51 109.473 232.353C108.573 233.88 107.383 234.908 107.119 236.789C106.2 237.508 105.69 239.427 104.318 239.282C104.204 239.269 102.599 238.518 102.505 238.442C102.177 238.177 101.988 236.751 102.102 236.442C102.146 236.316 102.769 236.353 102.24 235.476L102.612 235.281C102.58 233.659 103.48 231.816 104.393 230.434C105.281 229.09 105.854 228.049 106.685 226.623C106.886 226.276 108.686 224.54 107.811 224.225C107.723 224.193 107.729 224.433 107.547 224.591C106.829 225.184 105.986 225.443 105.243 226.048C104.859 226.364 104.311 227.228 103.927 227.563C102.322 228.958 100.383 230.63 98.6395 231.646C96.3041 233.009 94.3715 234.839 91.9857 236.316C91.224 236.789 91.1799 236.757 90.4623 237.325C89.965 237.717 85.6844 239.383 85.0045 239.477C83.1349 239.749 82.5872 239.25 81.3471 238.177C81.2905 238.127 80.9631 238.278 80.7995 238.038C80.6169 237.767 80.4343 236.107 80.4343 235.685C80.4343 235.11 81.1583 232.889 81.429 232.384C81.6556 231.968 82.0018 231.955 82.1718 231.709C82.5432 231.179 84.589 228.434 84.5198 228.068C84.0099 227.481 83.5315 228.068 83.0342 228.131C82.4487 228.207 80.5225 228.434 80.1385 228.162C79.7671 227.727 80.1951 226.011 80.5414 225.777C81.0576 225.43 81.8822 225.67 82.241 225.581C82.3984 225.544 82.3732 225.228 82.6061 225.146C84.5198 224.496 88.7312 223.84 90.1035 222.609C90.2923 222.439 90.6197 221.574 90.947 221.196C91.8409 220.167 94.1134 218.798 94.7744 217.927C94.9066 217.75 94.7492 216.759 95.6242 216.993L95.429 216.608C96.5118 216.557 97.6197 215.409 98.4129 214.658C99.8481 213.301 101.095 211.736 102.719 210.436C103.216 210.039 104.488 209.49 104.916 209.117C105.998 208.171 106.54 207.376 107.925 206.366C111.418 203.823 114.975 201.116 118.576 198.819C119.293 198.358 119.489 198.295 120.112 197.853C120.489 197.582 122.302 196.496 122.781 196.238C123.259 195.979 123.782 196.036 123.901 195.972C124.109 195.859 125.041 194.792 125.324 194.597C126.558 193.745 129.246 191.877 130.272 191.404C132.406 190.419 133.243 191.391 135.169 191.681C135.881 191.789 136.548 191.151 136.749 192.489C136.951 193.827 136.296 194.78 135.585 195.802C135.465 195.972 135.157 196.023 135.062 196.149L135.075 196.143ZM124.455 199.961C124.638 199.633 125.079 199.008 124.493 198.825C124.506 199.058 123.769 199.639 123.637 199.727C120.099 201.974 116.807 203.999 113.559 206.53C111.349 208.246 108.888 209.963 106.628 211.806C105.797 212.487 103.562 214.172 103.052 214.822C102.542 215.472 102.593 215.762 101.818 216.28C101.466 216.513 101.139 216.425 101.12 216.45C101.044 216.557 101.088 216.86 100.975 216.974C100.654 217.302 100.068 217.416 100.113 217.971C100.541 218.003 100.943 217.908 101.334 217.731C102.442 217.214 103.896 215.971 105.048 215.396C106.584 214.633 106.515 214.898 107.906 213.762C109.033 212.847 110.436 212.348 111.664 211.528C112.218 211.162 112.47 210.827 112.967 210.43C114.654 209.067 115.491 208.392 117.279 207.306C117.745 207.022 119.142 205.129 119.967 204.845L119.81 204.498C121.106 204.164 121.566 202.655 122.46 201.772C123.077 201.16 123.971 200.964 124.115 199.809L124.449 199.954L124.455 199.961ZM109.889 217.939C109.794 217.864 109.996 217.504 109.668 217.586C109.876 218.627 109.385 218.223 108.982 218.552C108.768 218.728 108.479 219.176 108.309 219.239C108.069 219.328 107.604 219.063 107.522 219.151C107.478 219.195 107.597 219.561 107.49 219.687C107.434 219.751 106.219 220.211 105.935 220.344C105.211 220.691 104.72 220.811 103.971 221.114C103.751 221.202 102.612 222.01 102.524 222.041C102.158 222.18 101.346 222.041 101.132 222.142C101.076 222.167 100.515 222.83 100.175 223.019C98.1233 224.124 95.876 225.077 93.6476 225.859C91.6709 226.547 91.608 226.017 89.858 227.746C88.108 229.475 86.509 231.854 85.1052 234.05C84.8031 234.523 84.0288 234.688 84.3247 235.76C85.5962 235.918 86.5594 235.325 87.6421 234.915C93.2195 232.794 98.7528 228.03 103.184 224.578C103.373 224.433 103.298 224.061 103.487 223.89C103.776 223.625 104.827 223.348 105.23 223.051C106.206 222.344 107.144 220.88 108.025 220.129C108.611 219.624 109.265 219.511 109.775 219.151C110.109 218.911 111.167 217.92 110.946 217.586C110.745 217.782 110.134 218.129 109.895 217.939H109.889Z" fill="black"/>
<path d="M141.565 204.801C139.318 207.678 136.8 210.531 134.823 213.427C134.678 213.642 134.647 213.932 134.446 214.166C133.86 214.828 132.746 214.992 132.689 216.217L133.035 216.071L133.174 216.419H133.564C133.866 216.28 133.665 215.863 133.848 215.731C134.244 215.44 134.773 215.636 134.811 215.605C134.88 215.535 135.182 214.633 135.472 214.506C136.844 213.907 137.014 213.535 138.191 212.645C138.613 212.329 139.482 211.976 139.903 211.623C141.08 210.638 142.132 209.25 143.561 208.448C144.543 207.893 144.197 208.026 144.82 207.546C145.009 207.401 146.614 206.732 146.878 206.681C147.791 206.511 149.069 206.871 150.051 206.644C150.108 207.054 150.007 207.338 149.831 207.691C149.686 207.988 147.319 210.916 147.13 211.017C146.96 211.105 146.752 210.928 146.746 210.947C146.696 211.042 146.796 211.534 146.683 211.875C146.614 212.09 145.751 212.424 145.575 212.607L145.965 212.897C145.097 212.834 144.807 213.781 144.398 213.97C144.209 214.058 143.894 213.894 143.813 213.97C143.63 214.122 143.705 214.506 143.58 214.62C143.353 214.835 142.843 214.368 143.202 215.011C143.082 215.201 141.981 215.731 141.76 215.907C139.746 217.548 137.889 219.302 135.667 220.691C134.496 221.423 134.439 221.612 133.476 222.363C132.4 223.196 131.166 223.234 130.171 223.568C129.265 223.871 129.026 224.578 127.49 224.578C126.086 224.578 125.16 223.335 124.027 224.042C123.07 224.641 121.138 227.342 120.137 228.352C117.254 231.267 112.432 235.987 109.209 238.31C108.869 238.556 107.358 239.553 107.069 239.099C107.018 238.089 108.114 237.881 108.705 237.401C109.379 236.858 110.317 235.483 110.934 234.852C115.85 229.841 121.522 224.837 125.324 218.697C126.092 217.453 127.068 216.223 128.025 214.948C129.819 212.55 131.789 210.461 133.659 208.082C134.03 207.609 134.339 206.543 134.773 206.069C135.409 205.369 135.937 205.495 136.598 204.359C137.593 202.655 139.582 200.914 141.087 199.311C141.483 198.888 142.012 198.187 142.283 197.664L142.73 197.84L143.095 197.392L143.624 197.354C146.488 199.109 144.587 201.015 143.126 202.908C142.648 203.526 142.107 204.157 141.603 204.807L141.565 204.801Z" fill="black"/>
<path d="M166.997 187.094L167.092 186.115L167.394 186.601L166.997 187.094Z" fill="black"/>
</g>
<defs>
<clipPath id="clip0_4913_2725">
<rect width="100.19" height="100.19" fill="white" transform="translate(1383.81 80)"/>
</clipPath>
<clipPath id="clip1_4913_2725">
<rect width="139" height="131" fill="white" transform="translate(80 143.69)"/>
</clipPath>
</defs>
</svg>
