<svg width="1484" height="303" viewBox="0 0 1484 303" fill="none" xmlns="http://www.w3.org/2000/svg">
<path d="M75.616 140H46.528V71.072H73.888C88.576 71.072 96.544 77.408 96.544 89.216C96.544 96.416 92.992 101.696 86.752 104.096C94.336 106.496 98.752 112.736 98.752 120.8C98.752 132.704 89.92 140 75.616 140ZM58.336 81.44V99.584H72.736C80.704 99.584 84.928 96.512 84.928 90.464C84.928 84.608 80.8 81.44 72.736 81.44H58.336ZM74.944 109.952H58.336V129.632H74.944C82.336 129.632 86.944 125.888 86.944 119.744C86.944 113.696 82.336 109.952 74.944 109.952ZM106.881 140V71.072H153.537V81.824H118.977V99.104H148.065V109.856H118.977V129.248H153.537V140H106.881ZM208.233 99.104V71.072H220.521V140H208.233V109.856H175.209V140H162.921V71.072H175.209V99.104H208.233ZM232.648 71.072H244.936V140H232.648V71.072ZM301.929 71.072H313.737V140H302.985L268.809 89.408V140H257.001V71.072H269.673L301.929 119.36V71.072ZM348.831 140H325.791V71.072H348.831C359.295 71.072 368.031 74.24 374.079 80.384C380.223 86.432 383.487 95.168 383.487 105.536C383.487 115.904 380.223 124.64 374.079 130.688C368.031 136.832 359.295 140 348.831 140ZM337.791 81.632V129.44H348.831C362.751 129.44 371.391 120.224 371.391 105.536C371.391 90.656 362.847 81.632 348.735 81.632H337.791ZM462.516 71.072V81.824H440.34V140H428.052V81.824H405.876V71.072H462.516ZM514.848 99.104V71.072H527.136V140H514.848V109.856H481.824V140H469.536V71.072H481.824V99.104H514.848ZM539.263 140V71.072H585.919V81.824H551.359V99.104H580.447V109.856H551.359V129.248H585.919V140H539.263ZM626.22 111.296V140H614.124V71.072H660.108V81.824H626.22V100.544H654.636V111.296H626.22ZM691.994 113.312H680.858V140H668.57V71.072H696.122C711.962 71.072 721.082 78.752 721.082 92.192C721.082 102.848 715.418 109.952 705.05 112.352L722.81 140H708.794L691.994 113.312ZM680.858 81.632V102.752H695.45C704.186 102.752 708.986 99.008 708.986 92.192C708.986 85.28 704.282 81.632 695.45 81.632H680.858ZM724.293 140L750.405 71.072H764.325L790.437 140H778.053L772.101 124.256H742.341L736.485 140H724.293ZM768.069 113.504L757.125 84.704L746.373 113.504H768.069ZM854.467 86.72L836.419 140H826.435L808.387 86.72V140H796.963V71.072H813.859L831.619 123.872L849.379 71.072H865.891V140H854.467V86.72ZM877.94 140V71.072H924.596V81.824H890.036V99.104H919.124V109.856H890.036V129.248H924.596V140H877.94Z" fill="black"/>
<path d="M1343.81 98C1343.81 70.3858 1321.42 48 1293.81 48C1266.2 48 1243.81 70.3858 1243.81 98C1243.81 125.614 1266.2 148 1293.81 148C1321.42 148 1343.81 125.614 1343.81 98Z" stroke="black" stroke-width="2" stroke-miterlimit="10"/>
<g clip-path="url(#clip0_6891_6215)">
<path d="M1443 147L1344.52 48.52" stroke="black" stroke-width="2" stroke-miterlimit="10"/>
<path d="M1443 48.52V147H1344.52" stroke="black" stroke-width="2" stroke-miterlimit="10"/>
</g>
<path d="M196.987 249.361C193.106 249.38 191.314 253.261 187.951 254.243C180.959 258.461 174.271 263.201 166.689 266.365C164.443 267.302 162.046 269.177 159.713 266.96C157.067 264.451 158.365 261.522 159.6 258.817C160.635 256.547 161.846 254.355 162.979 252.124C175.428 236.125 189.469 221.333 199.443 203.459C203.627 195.956 201.371 190.517 193.023 189.184C185.251 187.944 177.464 187.871 169.614 188.74C163.95 189.365 158.39 191.147 152.609 190.532C149.939 190.249 146.59 189.248 148.801 186.045C152.951 180.04 148.084 180.582 145.067 180.45C133.008 179.933 120.915 179.44 109.154 183.092C102.31 182.281 95.9581 185.054 89.3624 186.006C84.6317 186.69 79.9108 187.705 75.1312 188.237C63.5266 189.834 52.0684 193.256 40 190.341C51.7999 187.92 63.5998 185.503 75.3949 183.082C86.8726 182.764 97.9304 179.816 109.12 177.687C119.699 174.997 130.523 174.909 141.263 175.554C147.137 175.905 155.226 173.708 156.061 183.985C156.242 186.197 158.844 185.054 160.406 184.795C170.258 183.179 180.178 182.745 190.128 183.228C205.15 183.956 210.354 193.119 203.222 206.423C196.479 219.004 186.715 229.364 177.659 240.226C175.36 242.985 172.714 245.465 171.693 249.068C171.371 249.263 171.049 249.458 170.727 249.653C171.298 250.449 171.615 249.697 172.011 249.444C173.011 250.2 174.017 250.952 175.028 251.709C168.657 250.747 165.356 254.453 163.037 259.632C162.622 260.555 161.841 261.531 162.71 262.503C163.584 263.475 164.692 262.903 165.6 262.474C171.435 259.696 177.498 257.284 182.087 252.456C208.89 235.456 234.603 216.968 259.272 196.981C263.979 193.168 267.547 188.027 273.206 185.293C275.207 184.327 277.629 182.594 276.726 179.908C275.793 177.14 272.84 177.638 270.623 177.892C259.053 179.205 247.502 180.66 235.956 182.144C233.935 182.403 231.967 183.101 228.73 182.013C241.077 178.014 252.652 176.076 264.276 174.348C269.09 173.63 273.904 172.913 278.732 172.263C281.271 171.921 284.146 171.482 285.675 174.031C287.149 176.491 284.971 178.332 283.6 180.187C275.681 190.898 265.023 198.641 254.595 206.54C235.521 220.986 216.203 235.1 196.987 249.356V249.361Z" fill="black"/>
<defs>
<clipPath id="clip0_6891_6215">
<rect width="100.19" height="100.19" fill="white" transform="translate(1343.81 47.8101)"/>
</clipPath>
</defs>
</svg>
