<svg width="1564" height="304" viewBox="0 0 1564 304" fill="none" xmlns="http://www.w3.org/2000/svg">
<path d="M40.96 172.19L67.072 103.262H80.992L107.104 172.19H94.72L88.768 156.446H59.008L53.152 172.19H40.96ZM84.736 145.694L73.792 116.894L63.04 145.694H84.736ZM142.719 172.19H113.631V103.262H140.991C155.679 103.262 163.647 109.598 163.647 121.406C163.647 128.606 160.095 133.886 153.855 136.286C161.439 138.686 165.855 144.926 165.855 152.99C165.855 164.894 157.023 172.19 142.719 172.19ZM125.439 113.63V131.774H139.839C147.807 131.774 152.031 128.702 152.031 122.654C152.031 116.798 147.903 113.63 139.839 113.63H125.439ZM142.047 142.142H125.439V161.822H142.047C149.439 161.822 154.047 158.078 154.047 151.934C154.047 145.886 149.439 142.142 142.047 142.142ZM178.879 162.686C173.407 156.254 170.431 147.614 170.431 137.726C170.431 127.838 173.407 119.198 178.879 112.766C184.735 105.95 192.991 102.206 202.495 102.206C211.999 102.206 220.255 105.95 226.111 112.766C231.583 119.198 234.559 127.838 234.559 137.726C234.559 147.614 231.583 156.254 226.111 162.686C220.255 169.502 211.999 173.246 202.495 173.246C192.991 173.246 184.735 169.502 178.879 162.686ZM202.495 162.398C208.351 162.398 213.151 160.094 216.799 155.582C220.447 151.07 222.271 145.118 222.271 137.726C222.271 130.334 220.447 124.382 216.799 119.87C213.151 115.358 208.351 113.054 202.495 113.054C196.639 113.054 191.839 115.358 188.191 119.87C184.543 124.382 182.719 130.334 182.719 137.726C182.719 145.118 184.543 151.07 188.191 155.582C191.839 160.094 196.639 162.398 202.495 162.398ZM269.836 173.15C252.46 173.15 242.092 162.782 242.092 144.83V103.262H254.38V144.446C254.38 156.062 259.852 162.302 269.836 162.302C279.916 162.302 285.388 156.062 285.388 144.446V103.262H297.676V144.83C297.676 162.878 287.404 173.15 269.836 173.15ZM360.303 103.262V114.014H338.127V172.19H325.839V114.014H303.663V103.262H360.303ZM412.831 173.15C395.455 173.15 385.087 162.782 385.087 144.83V103.262H397.375V144.446C397.375 156.062 402.847 162.302 412.831 162.302C422.911 162.302 428.383 156.062 428.383 144.446V103.262H440.671V144.83C440.671 162.878 430.399 173.15 412.831 173.15ZM473.633 173.246C467.585 173.246 461.921 171.902 456.641 169.31C451.361 166.622 447.329 163.07 444.737 158.75L454.145 150.974C459.041 158.558 466.241 162.782 474.017 162.782C482.37 162.782 487.65 158.846 487.65 152.606C487.65 149.918 486.594 147.998 484.289 146.558C482.754 145.502 480.737 144.734 477.377 143.87L473.538 143.006C471.906 142.526 470.753 142.238 470.178 142.142C462.114 140.222 458.465 138.686 455.393 136.67C450.881 133.598 448.673 129.182 448.673 123.134C448.673 116.702 451.361 111.326 456.449 107.486C460.769 104.03 466.913 102.206 473.538 102.206C484.386 102.206 494.178 107.198 499.17 114.974L490.146 122.75C485.634 115.838 480.354 112.67 473.153 112.67C465.762 112.67 460.674 116.414 460.674 121.886C460.674 125.246 462.209 127.262 466.049 128.798C467.681 129.47 469.601 130.046 475.266 131.294C480.45 132.446 484.098 133.406 486.21 134.174C488.418 134.942 490.241 135.806 491.778 136.766C497.153 139.934 499.746 144.734 499.746 151.358C499.746 157.982 496.866 163.646 491.585 167.774C486.882 171.23 480.546 173.246 473.633 173.246Z" fill="black"/>
<path d="M1423.81 130.19C1423.81 102.576 1401.42 80.19 1373.81 80.19C1346.2 80.19 1323.81 102.576 1323.81 130.19C1323.81 157.804 1346.2 180.19 1373.81 180.19C1401.42 180.19 1423.81 157.804 1423.81 130.19Z" stroke="black" stroke-width="2" stroke-miterlimit="10"/>
<g clip-path="url(#clip0_4979_2583)">
<path d="M1523 179.19L1424.52 80.71" stroke="black" stroke-width="2" stroke-miterlimit="10"/>
<path d="M1523 80.71V179.19H1424.52" stroke="black" stroke-width="2" stroke-miterlimit="10"/>
</g>
<g clip-path="url(#clip1_4979_2583)">
<path d="M153.272 143.747C153.404 143.81 154.147 144.794 154.235 145.028C154.324 145.261 154.512 146.505 154.475 146.713C154.261 148.013 153.404 149.597 152.844 150.751C151.428 153.661 149.854 156.677 148.211 159.586C146.253 163.063 143.987 166.686 141.872 170.125C141.841 170.182 141.979 170.32 141.941 170.421C141.419 171.747 140.141 173.45 139.222 175.009C138.523 176.202 138.202 176.94 137.862 178.259C137.831 178.379 136.509 179.868 136.408 180.095C136.257 180.449 136.446 180.872 136.263 181.231C136.125 181.509 135.678 181.547 135.602 181.654C135.539 181.749 135.734 182.064 135.627 182.342C135.451 182.79 134.564 183.711 134.242 184.292C133.959 184.816 133.852 185.453 133.6 185.958C133.43 186.292 132.801 186.961 132.65 187.39C132.499 187.819 132.769 187.624 132.895 187.643C133.147 187.681 134.431 187.592 134.822 187.573C137.957 187.409 141.098 187.214 144.239 187.283C146.14 187.327 149.332 187.264 151.075 187.687C151.371 187.756 151.415 187.548 151.371 188.072C150.207 188.305 149.011 188.501 147.846 188.747C147.002 188.924 145.718 189.397 144.85 189.422C144.56 189.429 144.195 189.176 143.899 189.233C143.698 189.271 143.641 189.826 143.477 189.833C143.439 189.833 143.276 189.549 143.087 189.523C142.873 189.498 142.59 189.725 142.313 189.738C139.543 189.864 136.376 190.451 133.525 190.438C133.009 190.438 132.675 190.098 132.555 190.098C132.385 190.098 131.479 190.672 130.925 190.438L129.704 193.373C128.873 194.092 128.627 195.588 128.193 196.377C127.796 197.09 126.575 198.383 126.361 199.077C126.147 199.772 126.777 199.677 125.82 199.917C125.769 200.163 125.757 200.453 125.644 200.68C124.385 203.23 123.056 205.533 121.703 208.07C120.551 210.222 119.141 212.443 118.165 214.5C118.008 214.828 117.926 215.264 117.819 215.617L117.441 215.428C117.17 216.444 116.409 217.163 115.93 218.123C109.931 230.258 103.151 242.229 96.6991 254.522C95.075 259.286 92.4499 263.855 90.2341 268.594C89.6613 269.812 89.2206 271.61 88.6603 272.683C88.503 272.986 87.074 274.438 86.8159 274.564C86.0227 274.936 84.449 274.381 84.1783 273.491C84.1028 273.245 84.0839 272.267 84.1594 272.046C84.2475 271.787 84.5371 271.642 84.6252 271.377C86.4445 266.101 88.5596 260.176 91.1469 255.228C93.3879 250.931 95.2638 245.668 97.3349 241.263C104.964 224.988 113.815 209.502 122.704 193.972C122.943 193.556 124.441 190.962 124.271 190.798C122.502 190.533 121.023 191.442 119.336 190.798C119.021 190.609 118.971 189.687 119.185 189.359C119.814 188.394 124.838 188.236 126.097 188.028L126.411 187.27L127.091 188.04C127.67 187.92 127.576 187.491 127.796 187.195C128.275 186.564 128.52 186.097 128.835 185.308C130.132 182.077 132.171 178.928 133.67 175.886C134.815 173.57 136.037 171.147 137.182 168.654C137.434 168.105 137.994 167.575 138.089 166.869L138.693 166.749L138.391 166.168C138.945 165.31 139.612 164.502 140.109 163.619C141.475 161.176 142.778 158.955 143.981 156.355C144.05 156.204 144.296 156.179 144.302 156.166C144.359 156.002 144.038 155.648 144.17 155.447C144.226 155.364 144.875 155.207 145.038 154.828C145.215 154.424 144.975 154.569 145.315 153.919C146.077 152.462 146.807 151.048 147.689 149.496C148.633 147.823 149.464 145.987 150.899 144.693C151.101 144.51 151.409 144.523 151.51 144.416C151.617 144.302 151.484 143.999 151.686 143.886C151.931 143.741 152.989 143.608 153.266 143.747H153.272ZM126.021 190.811L125.266 190.836L123.881 194.521C124.668 194.269 124.945 192.42 125.228 192.066C125.499 191.738 126.046 191.562 126.021 190.804V190.811ZM122.704 197.449L123.094 195.884C122.697 195.992 122.232 197.266 122.704 197.449ZM119.695 203.249C120.198 202.308 121.451 200.169 121.684 199.26C121.734 199.071 121.879 198.573 121.539 198.623C119.581 202.113 117.995 205.804 116.163 209.364C116.025 209.635 115.786 209.799 115.477 210.411C114.797 211.736 114.004 213.024 113.545 214.456C113.96 214.948 116.415 209.54 116.585 209.199C117.636 207.098 118.744 205.009 119.695 203.249ZM112.676 216.539C112.928 215.996 113.381 215.504 113.343 214.847L111.788 217.681C112.411 218.123 112.361 216.797 112.443 216.652C112.468 216.602 112.651 216.595 112.676 216.539ZM111.977 217.977C111.473 217.858 111.637 218.129 111.473 218.35C111.297 218.59 110.271 219.908 110.907 220.129C111.096 219.246 112.021 218.892 111.977 217.984V217.977Z" fill="black"/>
<path d="M178.2 181.547C176.079 185.642 172.289 189.637 169.809 193.556C167.644 196.97 165.661 200.422 163.533 203.88C162.022 206.341 160.518 208.777 158.912 210.992C158.094 212.121 157.307 213.718 156.678 214.986C155.305 217.769 153.744 220.502 151.824 223.322C151.73 223.461 151.755 223.669 151.761 223.84L151.377 223.638L151.554 224.313L151.025 224.654C151.428 225.67 150.817 225.544 150.534 226.036C149.822 227.304 149.269 229.639 148.771 231.072C148.67 231.356 149.086 231.734 148.45 231.659C148.368 231.987 148.708 231.785 148.796 231.873C148.834 231.911 148.847 232.845 148.847 232.895C148.828 233.053 148.488 233.009 148.394 233.268C148.362 233.343 148.054 234.801 148.047 234.883C147.991 235.748 148.412 236.461 147.588 237.344C146.965 237.856 143.949 236.36 143.823 235.439C143.792 235.192 144 234.921 143.974 234.713C143.974 234.662 143.817 234.58 143.679 233.905C143.616 233.596 142.955 233.198 143.767 233.217C143.143 232.681 143.723 232.46 143.697 232.151C143.578 230.611 144.17 228.27 144.686 226.623C144.786 226.295 145.126 225.399 145.328 224.913C145.718 223.985 146.807 222.445 147.04 221.745C147.298 220.962 146.813 220.539 146.505 221.057C145.8 222.237 145.089 222.761 144.151 223.739C142.35 225.607 140.267 227.803 138.391 229.582C137.616 230.314 137.547 230.15 137.063 230.497C136.773 230.699 136.37 231.122 136.018 231.261C135.394 231.507 134.211 231.488 133.632 231.173C133.223 230.952 133.374 230.213 132.461 230.491C132.958 229.582 131.863 228.914 132.071 228.081C132.108 227.935 132.461 227.967 132.473 227.828C133.009 222.13 138.309 215.977 141.236 210.897L144.358 207.13C144.402 206.814 144.371 206.808 144.063 206.833C143.036 206.915 142.527 208.114 141.815 208.682C140.468 209.767 140.09 209.616 138.844 211.08C138.762 211.175 137.125 212.121 136.83 212.374C136.332 212.796 135.86 213.932 135.218 213.491C135.01 214.014 134.884 214.601 134.223 214.462L134.387 214.816C133.015 215.548 131.737 216.513 131.07 217.946C130.283 217.731 129.401 219.176 128.822 219.328C128.413 219.435 128.199 218.949 127.922 218.987C127.847 219 126.739 219.706 126.613 219.826C126.172 220.249 125.927 220.969 125.536 221.48C122.874 224.932 120.387 228.686 117.649 232.145C116.352 233.785 115.03 235.218 113.544 236.638C113.223 236.947 111.763 239.029 111.31 238.31C110.793 237.502 111.75 237.054 112.178 236.581C116.975 231.286 120.928 224.414 125.272 218.28C125.524 214.513 128.174 211.623 130.207 208.764C130.975 207.679 131.076 207.477 132.001 206.454C132.562 205.83 132.82 205.123 133.279 204.403C134.595 202.353 135.948 200.201 137.358 198.181C138.007 197.247 138.416 196.477 139.322 195.613C139.442 195.499 139.864 195.177 139.983 195.177C140.468 195.556 140.884 195.304 141.488 195.544C144.182 196.616 141.614 199.513 140.789 200.989C139.965 202.466 139.36 203.589 138.397 204.94C138.007 205.483 136.817 206.997 138.366 206.221C140.915 204.94 143.175 202.517 145.932 201.255C147.984 200.314 150.011 200.251 151.585 198.516C156.829 192.716 163.023 186.444 169.337 181.717C169.771 181.389 170.426 181.307 170.797 180.834C170.942 180.802 170.93 181.036 170.892 181.124C170.747 181.452 168.191 183.636 167.669 184.147C162.494 189.195 157.408 195.007 152.945 200.819C148.482 206.631 143.666 212.708 139.902 219.479C139.285 220.59 137.868 223.348 137.484 224.66C137.428 224.856 137.138 225.859 137.642 225.6L142.036 221.448C146.688 216.539 151.61 211.295 155.866 205.754C159.082 201.564 162.022 196.749 164.918 192.761C165.277 192.262 165.478 191.366 165.667 191.044C166.051 190.375 167.109 189.448 167.663 188.646C168.166 187.908 168.04 187.807 168.739 186.999C170.879 184.544 172.352 181.723 174.404 179.225C174.927 178.587 175.758 178.328 176.274 177.71C177.011 177.943 179.101 178.341 179.019 179.338C178.981 179.792 178.452 181.105 178.219 181.547H178.2Z" fill="black"/>
<path d="M95.075 196.143C94.9176 196.364 94.968 196.73 94.8421 196.932C94.6721 197.203 94.2629 197.121 94.0867 197.298C93.8789 197.512 93.1991 199.071 92.6703 199.696C91.5687 200.996 90.316 202.214 89.2584 203.501C88.6352 204.265 87.6909 205.098 87.6091 206.057L87.2251 205.861C87.2692 206.303 87.1433 206.625 86.9041 206.984C86.5956 207.445 85.3177 208.366 85.1729 208.606C85.0659 208.783 85.2548 209.098 85.1792 209.199C85.0596 209.364 84.6819 209.307 84.4805 209.521C84.0273 209.988 83.681 211.112 83.3285 211.585C83.1334 211.85 82.485 212.235 82.2269 212.595C81.8366 213.15 80.6846 215.472 80.5587 215.592C80.5146 215.636 80.2125 215.422 80.0992 215.624C79.9166 215.945 80.2062 216.242 80.0992 216.425C80.0614 216.494 79.1423 217.182 78.9031 217.479C78.0533 218.539 77.7322 219.814 76.8195 220.855C73.8482 224.275 71.7394 228.51 69.4732 232.353C68.573 233.88 67.3833 234.909 67.1189 236.789C66.1998 237.508 65.6899 239.427 64.3176 239.282C64.2043 239.269 62.5991 238.518 62.5046 238.442C62.1773 238.177 61.9884 236.751 62.1018 236.442C62.1458 236.316 62.769 236.354 62.2402 235.476L62.6116 235.281C62.5802 233.659 63.4804 231.816 64.3931 230.434C65.2807 229.09 65.8536 228.049 66.6845 226.623C66.886 226.276 68.6863 224.54 67.8113 224.225C67.7232 224.193 67.7295 224.433 67.5469 224.591C66.8293 225.184 65.9858 225.443 65.243 226.049C64.859 226.364 64.3113 227.229 63.9273 227.563C62.3221 228.958 60.3832 230.63 58.6395 231.646C56.3041 233.009 54.3715 234.839 51.9857 236.316C51.224 236.789 51.1799 236.757 50.4623 237.325C49.965 237.717 45.6844 239.383 45.0045 239.477C43.1349 239.749 42.5872 239.25 41.3471 238.177C41.2905 238.127 40.9631 238.278 40.7995 238.039C40.6169 237.767 40.4343 236.108 40.4343 235.685C40.4343 235.11 41.1583 232.889 41.429 232.384C41.6556 231.968 42.0018 231.955 42.1718 231.709C42.5432 231.179 44.589 228.434 44.5198 228.068C44.0099 227.481 43.5315 228.068 43.0342 228.131C42.4487 228.207 40.5225 228.434 40.1385 228.163C39.7671 227.727 40.1951 226.011 40.5414 225.777C41.0576 225.43 41.8822 225.67 42.241 225.582C42.3984 225.544 42.3732 225.228 42.6061 225.146C44.5198 224.496 48.7312 223.84 50.1035 222.609C50.2923 222.439 50.6197 221.574 50.947 221.196C51.8409 220.167 54.1134 218.798 54.7744 217.927C54.9066 217.75 54.7492 216.759 55.6242 216.993L55.429 216.608C56.5118 216.558 57.6197 215.409 58.4129 214.658C59.8481 213.301 61.0945 211.736 62.7187 210.436C63.216 210.039 64.4876 209.49 64.9156 209.117C65.9984 208.171 66.5397 207.376 67.9246 206.366C71.4184 203.823 74.975 201.116 78.5758 198.819C79.2934 198.358 79.4886 198.295 80.1118 197.853C80.4895 197.582 82.3024 196.496 82.7808 196.238C83.2593 195.979 83.7817 196.036 83.9014 195.973C84.1091 195.859 85.0407 194.793 85.324 194.597C86.5578 193.745 89.2458 191.877 90.2719 191.404C92.4059 190.419 93.2431 191.391 95.1694 191.681C95.8807 191.789 96.548 191.151 96.7495 192.489C96.9509 193.827 96.2962 194.78 95.5849 195.802C95.4653 195.973 95.1568 196.023 95.0624 196.149L95.075 196.143ZM84.4553 199.961C84.6379 199.633 85.0785 199.008 84.4931 198.825C84.5057 199.058 83.7692 199.639 83.637 199.727C80.0992 201.974 76.8069 204 73.5587 206.53C71.3491 208.247 68.8878 209.963 66.6279 211.806C65.7969 212.487 63.5622 214.172 63.0523 214.822C62.5424 215.472 62.5928 215.762 61.8185 216.28C61.466 216.513 61.1386 216.425 61.1197 216.45C61.0442 216.558 61.0883 216.86 60.9749 216.974C60.6539 217.302 60.0685 217.416 60.1125 217.971C60.5406 218.003 60.9435 217.908 61.3338 217.731C62.4417 217.214 63.8958 215.971 65.0478 215.396C66.5838 214.633 66.5145 214.898 67.9057 213.762C69.0326 212.847 70.4363 212.348 71.6639 211.528C72.2178 211.162 72.4696 210.828 72.9669 210.43C74.654 209.067 75.4912 208.392 77.279 207.306C77.7448 207.022 79.1423 205.129 79.967 204.845L79.8096 204.498C81.1064 204.164 81.5659 202.655 82.4598 201.772C83.0767 201.16 83.9706 200.964 84.1154 199.809L84.449 199.955L84.4553 199.961ZM69.8887 217.94C69.7942 217.864 69.9957 217.504 69.6683 217.586C69.8761 218.627 69.3851 218.223 68.9822 218.552C68.7682 218.728 68.4786 219.176 68.3086 219.239C68.0694 219.328 67.6036 219.063 67.5217 219.151C67.4777 219.195 67.5973 219.561 67.4903 219.688C67.4336 219.751 66.2187 220.211 65.9354 220.344C65.2115 220.691 64.7205 220.811 63.9714 221.114C63.751 221.202 62.6116 222.01 62.5235 222.041C62.1584 222.18 61.3463 222.041 61.1323 222.142C61.0757 222.168 60.5154 222.83 60.1755 223.019C58.1233 224.124 55.876 225.077 53.6476 225.859C51.6709 226.547 51.608 226.017 49.858 227.746C48.108 229.475 46.509 231.854 45.1052 234.05C44.8031 234.524 44.0288 234.688 44.3247 235.76C45.5962 235.918 46.5594 235.325 47.6421 234.915C53.2195 232.794 58.7528 228.03 63.1845 224.578C63.3733 224.433 63.2978 224.061 63.4867 223.89C63.7762 223.625 64.8275 223.348 65.2304 223.051C66.2061 222.344 67.144 220.88 68.0254 220.129C68.6108 219.624 69.2655 219.511 69.7754 219.151C70.109 218.911 71.1666 217.921 70.9462 217.586C70.7448 217.782 70.1342 218.129 69.895 217.94H69.8887Z" fill="black"/>
<path d="M101.565 204.801C99.3179 207.679 96.7999 210.531 94.8232 213.428C94.6785 213.642 94.647 213.932 94.4455 214.166C93.8601 214.828 92.7459 214.993 92.6892 216.217L93.0355 216.072L93.174 216.419H93.5642C93.8664 216.28 93.665 215.863 93.8475 215.731C94.2441 215.441 94.7729 215.636 94.8107 215.605C94.8799 215.535 95.1821 214.633 95.4716 214.507C96.8439 213.907 97.0139 213.535 98.1911 212.645C98.6128 212.329 99.4816 211.976 99.9033 211.623C101.08 210.638 102.132 209.25 103.561 208.449C104.543 207.893 104.197 208.026 104.82 207.546C105.009 207.401 106.614 206.732 106.878 206.682C107.791 206.511 109.069 206.871 110.051 206.644C110.108 207.054 110.007 207.338 109.831 207.691C109.686 207.988 107.319 210.916 107.13 211.017C106.96 211.105 106.752 210.929 106.746 210.947C106.696 211.042 106.796 211.534 106.683 211.875C106.614 212.09 105.751 212.424 105.575 212.607L105.965 212.897C105.097 212.834 104.807 213.781 104.398 213.97C104.209 214.059 103.894 213.894 103.813 213.97C103.63 214.122 103.705 214.507 103.58 214.62C103.353 214.835 102.843 214.368 103.202 215.011C103.082 215.201 101.981 215.731 101.76 215.908C99.7459 217.548 97.8889 219.303 95.6668 220.691C94.4959 221.423 94.4393 221.612 93.4761 222.363C92.3997 223.196 91.1658 223.234 90.1712 223.569C89.2648 223.871 89.0256 224.578 87.4896 224.578C86.0858 224.578 85.1604 223.335 84.0273 224.042C83.0705 224.641 81.1379 227.342 80.137 228.352C77.2539 231.267 72.4319 235.988 69.2089 238.31C68.8689 238.556 67.3581 239.553 67.0686 239.099C67.0182 238.089 68.1135 237.881 68.7053 237.401C69.3788 236.858 70.3168 235.483 70.9337 234.852C75.8501 229.841 81.5219 224.837 85.3241 218.697C86.0921 217.454 87.0678 216.223 88.0246 214.948C89.8187 212.55 91.7891 210.462 93.6587 208.083C94.0301 207.609 94.3385 206.543 94.7729 206.069C95.4087 205.369 95.9375 205.495 96.5984 204.359C97.5931 202.655 99.5823 200.914 101.087 199.311C101.483 198.888 102.012 198.188 102.283 197.664L102.73 197.841L103.095 197.392L103.624 197.355C106.488 199.109 104.587 201.015 103.126 202.908C102.648 203.526 102.107 204.157 101.603 204.807L101.565 204.801Z" fill="black"/>
<path d="M126.997 187.094L127.092 186.116L127.394 186.602L126.997 187.094Z" fill="black"/>
</g>
<defs>
<clipPath id="clip0_4979_2583">
<rect width="100.19" height="100.19" fill="white" transform="translate(1423.81 80)"/>
</clipPath>
<clipPath id="clip1_4979_2583">
<rect width="139" height="131" fill="white" transform="translate(40 143.69)"/>
</clipPath>
</defs>
</svg>
