<svg width="1440" height="205" viewBox="0 0 1440 205" fill="none" xmlns="http://www.w3.org/2000/svg">
<path d="M40.96 172.19L67.072 103.262H80.992L107.104 172.19H94.72L88.768 156.446H59.008L53.152 172.19H40.96ZM84.736 145.694L73.792 116.894L63.04 145.694H84.736ZM142.719 172.19H113.631V103.262H140.991C155.679 103.262 163.647 109.598 163.647 121.406C163.647 128.606 160.095 133.886 153.855 136.286C161.439 138.686 165.855 144.926 165.855 152.99C165.855 164.894 157.023 172.19 142.719 172.19ZM125.439 113.63V131.774H139.839C147.807 131.774 152.031 128.702 152.031 122.654C152.031 116.798 147.903 113.63 139.839 113.63H125.439ZM142.047 142.142H125.439V161.822H142.047C149.439 161.822 154.047 158.078 154.047 151.934C154.047 145.886 149.439 142.142 142.047 142.142ZM178.879 162.686C173.407 156.254 170.431 147.614 170.431 137.726C170.431 127.838 173.407 119.198 178.879 112.766C184.735 105.95 192.991 102.206 202.495 102.206C211.999 102.206 220.255 105.95 226.111 112.766C231.583 119.198 234.559 127.838 234.559 137.726C234.559 147.614 231.583 156.254 226.111 162.686C220.255 169.502 211.999 173.246 202.495 173.246C192.991 173.246 184.735 169.502 178.879 162.686ZM202.495 162.398C208.351 162.398 213.151 160.094 216.799 155.582C220.447 151.07 222.271 145.118 222.271 137.726C222.271 130.334 220.447 124.382 216.799 119.87C213.151 115.358 208.351 113.054 202.495 113.054C196.639 113.054 191.839 115.358 188.191 119.87C184.543 124.382 182.719 130.334 182.719 137.726C182.719 145.118 184.543 151.07 188.191 155.582C191.839 160.094 196.639 162.398 202.495 162.398ZM269.836 173.15C252.46 173.15 242.092 162.782 242.092 144.83V103.262H254.38V144.446C254.38 156.062 259.852 162.302 269.836 162.302C279.916 162.302 285.388 156.062 285.388 144.446V103.262H297.676V144.83C297.676 162.878 287.404 173.15 269.836 173.15ZM360.303 103.262V114.014H338.127V172.19H325.839V114.014H303.663V103.262H360.303ZM412.831 173.15C395.455 173.15 385.087 162.782 385.087 144.83V103.262H397.375V144.446C397.375 156.062 402.847 162.302 412.831 162.302C422.911 162.302 428.383 156.062 428.383 144.446V103.262H440.671V144.83C440.671 162.878 430.399 173.15 412.831 173.15ZM473.633 173.246C467.585 173.246 461.921 171.902 456.641 169.31C451.361 166.622 447.329 163.07 444.737 158.75L454.145 150.974C459.041 158.558 466.241 162.782 474.017 162.782C482.37 162.782 487.65 158.846 487.65 152.606C487.65 149.918 486.594 147.998 484.289 146.558C482.754 145.502 480.737 144.734 477.377 143.87L473.538 143.006C471.906 142.526 470.753 142.238 470.178 142.142C462.114 140.222 458.465 138.686 455.393 136.67C450.881 133.598 448.673 129.182 448.673 123.134C448.673 116.702 451.361 111.326 456.449 107.486C460.769 104.03 466.913 102.206 473.538 102.206C484.386 102.206 494.178 107.198 499.17 114.974L490.146 122.75C485.634 115.838 480.354 112.67 473.153 112.67C465.762 112.67 460.674 116.414 460.674 121.886C460.674 125.246 462.209 127.262 466.049 128.798C467.681 129.47 469.601 130.046 475.266 131.294C480.45 132.446 484.098 133.406 486.21 134.174C488.418 134.942 490.241 135.806 491.778 136.766C497.153 139.934 499.746 144.734 499.746 151.358C499.746 157.982 496.866 163.646 491.585 167.774C486.882 171.23 480.546 173.246 473.633 173.246Z" fill="black"/>
<path d="M1299.81 130.19C1299.81 102.576 1277.42 80.1899 1249.81 80.1899C1222.2 80.1899 1199.81 102.576 1199.81 130.19C1199.81 157.804 1222.2 180.19 1249.81 180.19C1277.42 180.19 1299.81 157.804 1299.81 130.19Z" stroke="black" stroke-width="2" stroke-miterlimit="10"/>
<g clip-path="url(#clip0_4889_2259)">
<path d="M1399 179.19L1300.52 80.71" stroke="black" stroke-width="2" stroke-miterlimit="10"/>
<path d="M1399 80.71V179.19H1300.52" stroke="black" stroke-width="2" stroke-miterlimit="10"/>
</g>
<defs>
<clipPath id="clip0_4889_2259">
<rect width="100.19" height="100.19" fill="white" transform="translate(1299.81 80)"/>
</clipPath>
</defs>
</svg>
