<svg width="1440" height="284" viewBox="0 0 1440 284" fill="none" xmlns="http://www.w3.org/2000/svg">
<path d="M103.84 93H92.608V85.896C89.632 90.888 82.528 94.056 74.08 94.056C64.864 94.056 56.8 90.216 51.04 83.304C45.76 77.064 42.976 68.424 42.976 58.824C42.976 49.128 45.952 40.296 51.328 33.768C57.184 26.856 65.536 23.016 74.848 23.016C88.384 23.016 98.368 30.12 102.688 42.792L90.976 46.728C88.96 38.568 83.104 33.864 74.944 33.864C69.088 33.864 64.384 36.168 60.736 40.776C57.088 45.288 55.264 51.24 55.264 58.632C55.264 66.024 57.088 72.072 60.736 76.68C64.384 81.192 69.184 83.496 75.136 83.496C84.832 83.496 91.648 76.68 92.032 66.6H73.888V55.848H103.84V93ZM115.318 93V24.072H161.974V34.824H127.414V52.104H156.502V62.856H127.414V82.248H161.974V93H115.318ZM222.91 24.072V34.824H200.734V93H188.446V34.824H166.27V24.072H222.91ZM300.303 24.072V34.824H278.127V93H265.839V34.824H243.663V24.072H300.303ZM307.437 83.496C301.965 77.064 298.989 68.424 298.989 58.536C298.989 48.648 301.965 40.008 307.437 33.576C313.293 26.76 321.549 23.016 331.053 23.016C340.557 23.016 348.813 26.76 354.669 33.576C360.141 40.008 363.117 48.648 363.117 58.536C363.117 68.424 360.141 77.064 354.669 83.496C348.813 90.312 340.557 94.056 331.053 94.056C321.549 94.056 313.293 90.312 307.437 83.496ZM331.053 83.208C336.909 83.208 341.709 80.904 345.357 76.392C349.005 71.88 350.829 65.928 350.829 58.536C350.829 51.144 349.005 45.192 345.357 40.68C341.709 36.168 336.909 33.864 331.053 33.864C325.197 33.864 320.397 36.168 316.749 40.68C313.101 45.192 311.277 51.144 311.277 58.536C311.277 65.928 313.101 71.88 316.749 76.392C320.397 80.904 325.197 83.208 331.053 83.208ZM390.527 24.072H402.815V56.712L431.423 24.072H445.919L419.135 53.928L447.455 93H432.959L411.167 62.952L402.815 72.168V93H390.527V24.072ZM497.589 24.072H509.397V93H498.645L464.469 42.408V93H452.661V24.072H465.333L497.589 72.36V24.072ZM526.346 83.496C520.874 77.064 517.898 68.424 517.898 58.536C517.898 48.648 520.874 40.008 526.346 33.576C532.202 26.76 540.458 23.016 549.962 23.016C559.466 23.016 567.722 26.76 573.578 33.576C579.05 40.008 582.026 48.648 582.026 58.536C582.026 68.424 579.05 77.064 573.578 83.496C567.722 90.312 559.466 94.056 549.962 94.056C540.458 94.056 532.202 90.312 526.346 83.496ZM549.962 83.208C555.818 83.208 560.618 80.904 564.266 76.392C567.914 71.88 569.738 65.928 569.738 58.536C569.738 51.144 567.914 45.192 564.266 40.68C560.618 36.168 555.818 33.864 549.962 33.864C544.106 33.864 539.306 36.168 535.658 40.68C532.01 45.192 530.186 51.144 530.186 58.536C530.186 65.928 532.01 71.88 535.658 76.392C539.306 80.904 544.106 83.208 549.962 83.208ZM608.338 74.664L621.106 24.072H631.954L644.818 74.664L657.874 24.072H670.162L651.538 93H639.442L626.386 44.424L613.426 93H601.33L582.61 24.072H595.282L608.338 74.664ZM722.165 93.96C704.789 93.96 694.421 83.592 694.421 65.64V24.072H706.709V65.256C706.709 76.872 712.181 83.112 722.165 83.112C732.245 83.112 737.717 76.872 737.717 65.256V24.072H750.005V65.64C750.005 83.688 739.733 93.96 722.165 93.96ZM782.967 94.056C776.919 94.056 771.255 92.712 765.975 90.12C760.695 87.432 756.663 83.88 754.071 79.56L763.479 71.784C768.375 79.368 775.575 83.592 783.351 83.592C791.703 83.592 796.983 79.656 796.983 73.416C796.983 70.728 795.927 68.808 793.623 67.368C792.087 66.312 790.071 65.544 786.711 64.68L782.871 63.816C781.239 63.336 780.087 63.048 779.511 62.952C771.447 61.032 767.799 59.496 764.727 57.48C760.215 54.408 758.007 49.992 758.007 43.944C758.007 37.512 760.695 32.136 765.783 28.296C770.103 24.84 776.247 23.016 782.871 23.016C793.719 23.016 803.511 28.008 808.503 35.784L799.479 43.56C794.967 36.648 789.687 33.48 782.487 33.48C775.095 33.48 770.007 37.224 770.007 42.696C770.007 46.056 771.543 48.072 775.383 49.608C777.015 50.28 778.935 50.856 784.599 52.104C789.783 53.256 793.431 54.216 795.543 54.984C797.751 55.752 799.575 56.616 801.111 57.576C806.487 60.744 809.079 65.544 809.079 72.168C809.079 78.792 806.199 84.456 800.919 88.584C796.215 92.04 789.879 94.056 782.967 94.056Z" fill="black"/>
<path d="M1299.81 51C1299.81 23.3858 1277.42 1 1249.81 1C1222.2 1 1199.81 23.3858 1199.81 51C1199.81 78.6142 1222.2 101 1249.81 101C1277.42 101 1299.81 78.6142 1299.81 51Z" stroke="black" stroke-width="2" stroke-miterlimit="10"/>
<g clip-path="url(#clip0_6889_5363)">
<path d="M1399 100L1300.52 1.51999" stroke="black" stroke-width="2" stroke-miterlimit="10"/>
<path d="M1399 1.51999V100H1300.52" stroke="black" stroke-width="2" stroke-miterlimit="10"/>
</g>
<path d="M196.987 184.551C193.106 184.57 191.314 188.451 187.951 189.433C180.959 193.651 174.271 198.391 166.689 201.555C164.443 202.492 162.046 204.367 159.713 202.15C157.067 199.641 158.365 196.712 159.6 194.007C160.635 191.737 161.846 189.545 162.979 187.314C175.428 171.315 189.469 156.523 199.443 138.65C203.627 131.146 201.371 125.707 193.023 124.374C185.251 123.134 177.464 123.061 169.614 123.93C163.95 124.555 158.39 126.337 152.609 125.722C149.939 125.439 146.59 124.438 148.801 121.235C152.951 115.23 148.084 115.772 145.067 115.64C133.008 115.123 120.915 114.63 109.154 118.282C102.31 117.471 95.9581 120.244 89.3624 121.196C84.6317 121.88 79.9108 122.895 75.1312 123.427C63.5266 125.024 52.0684 128.446 40 125.531C51.7999 123.11 63.5998 120.693 75.3949 118.272C86.8726 117.954 97.9304 115.006 109.12 112.877C119.699 110.187 130.523 110.099 141.263 110.744C147.137 111.095 155.226 108.898 156.061 119.175C156.242 121.387 158.844 120.244 160.406 119.985C170.258 118.369 180.178 117.935 190.128 118.418C205.15 119.146 210.354 128.309 203.222 141.613C196.479 154.194 186.715 164.554 177.659 175.416C175.36 178.175 172.714 180.655 171.693 184.258C171.371 184.453 171.049 184.648 170.727 184.843C171.298 185.639 171.615 184.887 172.011 184.634C173.011 185.39 174.017 186.142 175.028 186.899C168.657 185.937 165.356 189.643 163.037 194.822C162.622 195.745 161.841 196.721 162.71 197.693C163.584 198.665 164.692 198.093 165.6 197.664C171.435 194.886 177.498 192.474 182.087 187.646C208.89 170.646 234.603 152.158 259.272 132.171C263.979 128.358 267.547 123.217 273.206 120.483C275.207 119.517 277.629 117.784 276.726 115.098C275.793 112.33 272.84 112.828 270.623 113.082C259.053 114.395 247.502 115.85 235.956 117.334C233.935 117.593 231.967 118.291 228.73 117.203C241.077 113.204 252.652 111.266 264.276 109.538C269.09 108.82 273.904 108.103 278.732 107.453C281.271 107.111 284.146 106.672 285.675 109.221C287.149 111.681 284.971 113.522 283.6 115.377C275.681 126.088 265.023 133.831 254.595 141.73C235.521 156.176 216.203 170.29 196.987 184.546V184.551Z" fill="black"/>
<path d="M933.031 196.19H918.487V161.726H932.167C939.511 161.726 943.495 164.894 943.495 170.798C943.495 174.398 941.719 177.038 938.599 178.238C942.391 179.438 944.599 182.558 944.599 186.59C944.599 192.542 940.183 196.19 933.031 196.19ZM924.391 166.91V175.982H931.591C935.575 175.982 937.687 174.446 937.687 171.422C937.687 168.494 935.623 166.91 931.591 166.91H924.391ZM932.695 181.166H924.391V191.006H932.695C936.391 191.006 938.695 189.134 938.695 186.062C938.695 183.038 936.391 181.166 932.695 181.166ZM948.663 196.19V161.726H971.991V167.102H954.711V175.742H969.255V181.118H954.711V190.814H971.991V196.19H948.663ZM987.627 196.718C984.603 196.718 981.771 196.046 979.131 194.75C976.491 193.406 974.475 191.63 973.179 189.47L977.883 185.582C980.331 189.374 983.931 191.486 987.819 191.486C991.995 191.486 994.635 189.518 994.635 186.398C994.635 185.054 994.107 184.094 992.955 183.374C992.187 182.846 991.179 182.462 989.499 182.03L987.579 181.598C986.763 181.358 986.187 181.214 985.899 181.166C981.867 180.206 980.043 179.438 978.507 178.43C976.251 176.894 975.147 174.686 975.147 171.662C975.147 168.446 976.491 165.758 979.035 163.838C981.195 162.11 984.267 161.198 987.579 161.198C993.003 161.198 997.899 163.694 1000.4 167.582L995.883 171.47C993.627 168.014 990.987 166.43 987.387 166.43C983.691 166.43 981.147 168.302 981.147 171.038C981.147 172.718 981.915 173.726 983.835 174.494C984.651 174.83 985.611 175.118 988.443 175.742C991.035 176.318 992.859 176.798 993.915 177.182C995.019 177.566 995.931 177.998 996.699 178.478C999.387 180.062 1000.68 182.462 1000.68 185.774C1000.68 189.086 999.243 191.918 996.603 193.982C994.251 195.71 991.083 196.718 987.627 196.718ZM1018.29 182.846H1010.66V196.19H1004.52V161.726H1018.29C1026.21 161.726 1030.77 165.566 1030.77 172.286C1030.77 179.006 1026.16 182.846 1018.29 182.846ZM1010.66 167.006V177.566H1017.96C1022.32 177.566 1024.72 175.694 1024.72 172.286C1024.72 168.83 1022.37 167.006 1017.96 167.006H1010.66ZM1037.05 191.438C1034.31 188.222 1032.82 183.902 1032.82 178.958C1032.82 174.014 1034.31 169.694 1037.05 166.478C1039.97 163.07 1044.1 161.198 1048.85 161.198C1053.61 161.198 1057.73 163.07 1060.66 166.478C1063.4 169.694 1064.89 174.014 1064.89 178.958C1064.89 183.902 1063.4 188.222 1060.66 191.438C1057.73 194.846 1053.61 196.718 1048.85 196.718C1044.1 196.718 1039.97 194.846 1037.05 191.438ZM1048.85 191.294C1051.78 191.294 1054.18 190.142 1056.01 187.886C1057.83 185.63 1058.74 182.654 1058.74 178.958C1058.74 175.262 1057.83 172.286 1056.01 170.03C1054.18 167.774 1051.78 166.622 1048.85 166.622C1045.93 166.622 1043.53 167.774 1041.7 170.03C1039.88 172.286 1038.97 175.262 1038.97 178.958C1038.97 182.654 1039.88 185.63 1041.7 187.886C1043.53 190.142 1045.93 191.294 1048.85 191.294ZM1069.18 161.726H1075.32V178.046L1089.63 161.726H1096.88L1083.48 176.654L1097.64 196.19H1090.4L1079.5 181.166L1075.32 185.774V196.19H1069.18V161.726ZM1100.25 196.19V161.726H1123.58V167.102H1106.3V175.742H1120.84V181.118H1106.3V190.814H1123.58V196.19H1100.25ZM1134.89 196.19L1147.95 161.726H1154.91L1167.97 196.19H1161.77L1158.8 188.318H1143.92L1140.99 196.19H1134.89ZM1156.78 182.942L1151.31 168.542L1145.93 182.942H1156.78ZM1182.94 182.846H1177.37V196.19H1171.23V161.726H1185.01C1192.93 161.726 1197.49 165.566 1197.49 172.286C1197.49 177.614 1194.65 181.166 1189.47 182.366L1198.35 196.19H1191.34L1182.94 182.846ZM1177.37 167.006V177.566H1184.67C1189.04 177.566 1191.44 175.694 1191.44 172.286C1191.44 168.83 1189.09 167.006 1184.67 167.006H1177.37ZM1227.42 161.726V167.102H1216.33V196.19H1210.18V167.102H1199.1V161.726H1227.42ZM1260.16 161.726L1247.44 196.19H1240.96L1228.14 161.726H1234.77L1244.27 188.51L1253.82 161.726H1260.16ZM1263.4 161.726H1269.54V196.19H1263.4V161.726ZM1286.52 196.718C1283.49 196.718 1280.66 196.046 1278.02 194.75C1275.38 193.406 1273.37 191.63 1272.07 189.47L1276.77 185.582C1279.22 189.374 1282.82 191.486 1286.71 191.486C1290.89 191.486 1293.53 189.518 1293.53 186.398C1293.53 185.054 1293 184.094 1291.85 183.374C1291.08 182.846 1290.07 182.462 1288.39 182.03L1286.47 181.598C1285.65 181.358 1285.08 181.214 1284.79 181.166C1280.76 180.206 1278.93 179.438 1277.4 178.43C1275.14 176.894 1274.04 174.686 1274.04 171.662C1274.04 168.446 1275.38 165.758 1277.93 163.838C1280.09 162.11 1283.16 161.198 1286.47 161.198C1291.89 161.198 1296.79 163.694 1299.29 167.582L1294.77 171.47C1292.52 168.014 1289.88 166.43 1286.28 166.43C1282.58 166.43 1280.04 168.302 1280.04 171.038C1280.04 172.718 1280.81 173.726 1282.73 174.494C1283.54 174.83 1284.5 175.118 1287.33 175.742C1289.93 176.318 1291.75 176.798 1292.81 177.182C1293.91 177.566 1294.82 177.998 1295.59 178.478C1298.28 180.062 1299.57 182.462 1299.57 185.774C1299.57 189.086 1298.13 191.918 1295.49 193.982C1293.14 195.71 1289.97 196.718 1286.52 196.718ZM1305.86 191.438C1303.12 188.222 1301.63 183.902 1301.63 178.958C1301.63 174.014 1303.12 169.694 1305.86 166.478C1308.78 163.07 1312.91 161.198 1317.66 161.198C1322.42 161.198 1326.54 163.07 1329.47 166.478C1332.21 169.694 1333.7 174.014 1333.7 178.958C1333.7 183.902 1332.21 188.222 1329.47 191.438C1326.54 194.846 1322.42 196.718 1317.66 196.718C1312.91 196.718 1308.78 194.846 1305.86 191.438ZM1317.66 191.294C1320.59 191.294 1322.99 190.142 1324.82 187.886C1326.64 185.63 1327.55 182.654 1327.55 178.958C1327.55 175.262 1326.64 172.286 1324.82 170.03C1322.99 167.774 1320.59 166.622 1317.66 166.622C1314.74 166.622 1312.34 167.774 1310.51 170.03C1308.69 172.286 1307.78 175.262 1307.78 178.958C1307.78 182.654 1308.69 185.63 1310.51 187.886C1312.34 190.142 1314.74 191.294 1317.66 191.294ZM1349.7 182.846H1344.13V196.19H1337.99V161.726H1351.77C1359.69 161.726 1364.25 165.566 1364.25 172.286C1364.25 177.614 1361.41 181.166 1356.23 182.366L1365.11 196.19H1358.1L1349.7 182.846ZM1344.13 167.006V177.566H1351.43C1355.8 177.566 1358.2 175.694 1358.2 172.286C1358.2 168.83 1355.85 167.006 1351.43 167.006H1344.13ZM1370.59 161.726L1379.52 176.366L1388.45 161.726H1394.97L1382.54 181.982V196.19H1376.4V181.982L1363.92 161.726H1370.59ZM1398.1 196.19H1391.14V189.23H1398.1V196.19Z" fill="black"/>
<defs>
<clipPath id="clip0_6889_5363">
<rect width="100.19" height="100.19" fill="white" transform="translate(1299.81 0.809998)"/>
</clipPath>
</defs>
</svg>
