<svg width="1563" height="353" viewBox="0 0 1563 353" fill="none" xmlns="http://www.w3.org/2000/svg">
<path d="M143.84 139H132.608V131.896C129.632 136.888 122.528 140.056 114.08 140.056C104.864 140.056 96.8 136.216 91.04 129.304C85.76 123.064 82.976 114.424 82.976 104.824C82.976 95.128 85.952 86.296 91.328 79.768C97.184 72.856 105.536 69.016 114.848 69.016C128.384 69.016 138.368 76.12 142.688 88.792L130.976 92.728C128.96 84.568 123.104 79.864 114.944 79.864C109.088 79.864 104.384 82.168 100.736 86.776C97.088 91.288 95.264 97.24 95.264 104.632C95.264 112.024 97.088 118.072 100.736 122.68C104.384 127.192 109.184 129.496 115.136 129.496C124.832 129.496 131.648 122.68 132.032 112.6H113.888V101.848H143.84V139ZM155.318 139V70.072H201.974V80.824H167.414V98.104H196.502V108.856H167.414V128.248H201.974V139H155.318ZM262.91 70.072V80.824H240.734V139H228.446V80.824H206.27V70.072H262.91ZM340.303 70.072V80.824H318.127V139H305.839V80.824H283.663V70.072H340.303ZM347.437 129.496C341.965 123.064 338.989 114.424 338.989 104.536C338.989 94.648 341.965 86.008 347.437 79.576C353.293 72.76 361.549 69.016 371.053 69.016C380.557 69.016 388.813 72.76 394.669 79.576C400.141 86.008 403.117 94.648 403.117 104.536C403.117 114.424 400.141 123.064 394.669 129.496C388.813 136.312 380.557 140.056 371.053 140.056C361.549 140.056 353.293 136.312 347.437 129.496ZM371.053 129.208C376.909 129.208 381.709 126.904 385.357 122.392C389.005 117.88 390.829 111.928 390.829 104.536C390.829 97.144 389.005 91.192 385.357 86.68C381.709 82.168 376.909 79.864 371.053 79.864C365.197 79.864 360.397 82.168 356.749 86.68C353.101 91.192 351.277 97.144 351.277 104.536C351.277 111.928 353.101 117.88 356.749 122.392C360.397 126.904 365.197 129.208 371.053 129.208ZM430.527 70.072H442.815V102.712L471.423 70.072H485.919L459.135 99.928L487.455 139H472.959L451.167 108.952L442.815 118.168V139H430.527V70.072ZM537.589 70.072H549.397V139H538.645L504.469 88.408V139H492.661V70.072H505.333L537.589 118.36V70.072ZM566.346 129.496C560.874 123.064 557.898 114.424 557.898 104.536C557.898 94.648 560.874 86.008 566.346 79.576C572.202 72.76 580.458 69.016 589.962 69.016C599.466 69.016 607.722 72.76 613.578 79.576C619.05 86.008 622.026 94.648 622.026 104.536C622.026 114.424 619.05 123.064 613.578 129.496C607.722 136.312 599.466 140.056 589.962 140.056C580.458 140.056 572.202 136.312 566.346 129.496ZM589.962 129.208C595.818 129.208 600.618 126.904 604.266 122.392C607.914 117.88 609.738 111.928 609.738 104.536C609.738 97.144 607.914 91.192 604.266 86.68C600.618 82.168 595.818 79.864 589.962 79.864C584.106 79.864 579.306 82.168 575.658 86.68C572.01 91.192 570.186 97.144 570.186 104.536C570.186 111.928 572.01 117.88 575.658 122.392C579.306 126.904 584.106 129.208 589.962 129.208ZM648.338 120.664L661.106 70.072H671.954L684.818 120.664L697.874 70.072H710.162L691.538 139H679.442L666.386 90.424L653.426 139H641.33L622.61 70.072H635.282L648.338 120.664ZM762.165 139.96C744.789 139.96 734.421 129.592 734.421 111.64V70.072H746.709V111.256C746.709 122.872 752.181 129.112 762.165 129.112C772.245 129.112 777.717 122.872 777.717 111.256V70.072H790.005V111.64C790.005 129.688 779.733 139.96 762.165 139.96ZM822.967 140.056C816.919 140.056 811.255 138.712 805.975 136.12C800.695 133.432 796.663 129.88 794.071 125.56L803.479 117.784C808.375 125.368 815.575 129.592 823.351 129.592C831.703 129.592 836.983 125.656 836.983 119.416C836.983 116.728 835.927 114.808 833.623 113.368C832.087 112.312 830.071 111.544 826.711 110.68L822.871 109.816C821.239 109.336 820.087 109.048 819.511 108.952C811.447 107.032 807.799 105.496 804.727 103.48C800.215 100.408 798.007 95.992 798.007 89.944C798.007 83.512 800.695 78.136 805.783 74.296C810.103 70.84 816.247 69.016 822.871 69.016C833.719 69.016 843.511 74.008 848.503 81.784L839.479 89.56C834.967 82.648 829.687 79.48 822.487 79.48C815.095 79.48 810.007 83.224 810.007 88.696C810.007 92.056 811.543 94.072 815.383 95.608C817.015 96.28 818.935 96.856 824.599 98.104C829.783 99.256 833.431 100.216 835.543 100.984C837.751 101.752 839.575 102.616 841.111 103.576C846.487 106.744 849.079 111.544 849.079 118.168C849.079 124.792 846.199 130.456 840.919 134.584C836.215 138.04 829.879 140.056 822.967 140.056Z" fill="black"/>
<path d="M1403.81 97C1403.81 69.3858 1381.42 47 1353.81 47C1326.2 47 1303.81 69.3858 1303.81 97C1303.81 124.614 1326.2 147 1353.81 147C1381.42 147 1403.81 124.614 1403.81 97Z" stroke="black" stroke-width="2" stroke-miterlimit="10"/>
<g clip-path="url(#clip0_6934_2233)">
<path d="M1503 146L1404.52 47.52" stroke="black" stroke-width="2" stroke-miterlimit="10"/>
<path d="M1503 47.52V146H1404.52" stroke="black" stroke-width="2" stroke-miterlimit="10"/>
</g>
<path d="M1037.03 300H1022.49V265.536H1036.17C1043.51 265.536 1047.49 268.704 1047.49 274.608C1047.49 278.208 1045.72 280.848 1042.6 282.048C1046.39 283.248 1048.6 286.368 1048.6 290.4C1048.6 296.352 1044.18 300 1037.03 300ZM1028.39 270.72V279.792H1035.59C1039.57 279.792 1041.69 278.256 1041.69 275.232C1041.69 272.304 1039.62 270.72 1035.59 270.72H1028.39ZM1036.69 284.976H1028.39V294.816H1036.69C1040.39 294.816 1042.69 292.944 1042.69 289.872C1042.69 286.848 1040.39 284.976 1036.69 284.976ZM1052.66 300V265.536H1075.99V270.912H1058.71V279.552H1073.25V284.928H1058.71V294.624H1075.99V300H1052.66ZM1091.63 300.528C1088.6 300.528 1085.77 299.856 1083.13 298.56C1080.49 297.216 1078.47 295.44 1077.18 293.28L1081.88 289.392C1084.33 293.184 1087.93 295.296 1091.82 295.296C1095.99 295.296 1098.63 293.328 1098.63 290.208C1098.63 288.864 1098.11 287.904 1096.95 287.184C1096.19 286.656 1095.18 286.272 1093.5 285.84L1091.58 285.408C1090.76 285.168 1090.19 285.024 1089.9 284.976C1085.87 284.016 1084.04 283.248 1082.51 282.24C1080.25 280.704 1079.15 278.496 1079.15 275.472C1079.15 272.256 1080.49 269.568 1083.03 267.648C1085.19 265.92 1088.27 265.008 1091.58 265.008C1097 265.008 1101.9 267.504 1104.39 271.392L1099.88 275.28C1097.63 271.824 1094.99 270.24 1091.39 270.24C1087.69 270.24 1085.15 272.112 1085.15 274.848C1085.15 276.528 1085.91 277.536 1087.83 278.304C1088.65 278.64 1089.61 278.928 1092.44 279.552C1095.03 280.128 1096.86 280.608 1097.91 280.992C1099.02 281.376 1099.93 281.808 1100.7 282.288C1103.39 283.872 1104.68 286.272 1104.68 289.584C1104.68 292.896 1103.24 295.728 1100.6 297.792C1098.25 299.52 1095.08 300.528 1091.63 300.528ZM1122.29 286.656H1114.66V300H1108.52V265.536H1122.29C1130.21 265.536 1134.77 269.376 1134.77 276.096C1134.77 282.816 1130.16 286.656 1122.29 286.656ZM1114.66 270.816V281.376H1121.96C1126.32 281.376 1128.72 279.504 1128.72 276.096C1128.72 272.64 1126.37 270.816 1121.96 270.816H1114.66ZM1141.05 295.248C1138.31 292.032 1136.82 287.712 1136.82 282.768C1136.82 277.824 1138.31 273.504 1141.05 270.288C1143.97 266.88 1148.1 265.008 1152.85 265.008C1157.61 265.008 1161.73 266.88 1164.66 270.288C1167.4 273.504 1168.89 277.824 1168.89 282.768C1168.89 287.712 1167.4 292.032 1164.66 295.248C1161.73 298.656 1157.61 300.528 1152.85 300.528C1148.1 300.528 1143.97 298.656 1141.05 295.248ZM1152.85 295.104C1155.78 295.104 1158.18 293.952 1160.01 291.696C1161.83 289.44 1162.74 286.464 1162.74 282.768C1162.74 279.072 1161.83 276.096 1160.01 273.84C1158.18 271.584 1155.78 270.432 1152.85 270.432C1149.93 270.432 1147.53 271.584 1145.7 273.84C1143.88 276.096 1142.97 279.072 1142.97 282.768C1142.97 286.464 1143.88 289.44 1145.7 291.696C1147.53 293.952 1149.93 295.104 1152.85 295.104ZM1173.18 265.536H1179.32V281.856L1193.63 265.536H1200.88L1187.48 280.464L1201.64 300H1194.4L1183.5 284.976L1179.32 289.584V300H1173.18V265.536ZM1204.25 300V265.536H1227.58V270.912H1210.3V279.552H1224.84V284.928H1210.3V294.624H1227.58V300H1204.25ZM1238.89 300L1251.95 265.536H1258.91L1271.97 300H1265.77L1262.8 292.128H1247.92L1244.99 300H1238.89ZM1260.78 286.752L1255.31 272.352L1249.93 286.752H1260.78ZM1286.94 286.656H1281.37V300H1275.23V265.536H1289.01C1296.93 265.536 1301.49 269.376 1301.49 276.096C1301.49 281.424 1298.65 284.976 1293.47 286.176L1302.35 300H1295.34L1286.94 286.656ZM1281.37 270.816V281.376H1288.67C1293.04 281.376 1295.44 279.504 1295.44 276.096C1295.44 272.64 1293.09 270.816 1288.67 270.816H1281.37ZM1331.42 265.536V270.912H1320.33V300H1314.18V270.912H1303.1V265.536H1331.42ZM1364.16 265.536L1351.44 300H1344.96L1332.14 265.536H1338.77L1348.27 292.32L1357.82 265.536H1364.16ZM1367.4 265.536H1373.54V300H1367.4V265.536ZM1390.52 300.528C1387.49 300.528 1384.66 299.856 1382.02 298.56C1379.38 297.216 1377.37 295.44 1376.07 293.28L1380.77 289.392C1383.22 293.184 1386.82 295.296 1390.71 295.296C1394.89 295.296 1397.53 293.328 1397.53 290.208C1397.53 288.864 1397 287.904 1395.85 287.184C1395.08 286.656 1394.07 286.272 1392.39 285.84L1390.47 285.408C1389.65 285.168 1389.08 285.024 1388.79 284.976C1384.76 284.016 1382.93 283.248 1381.4 282.24C1379.14 280.704 1378.04 278.496 1378.04 275.472C1378.04 272.256 1379.38 269.568 1381.93 267.648C1384.09 265.92 1387.16 265.008 1390.47 265.008C1395.89 265.008 1400.79 267.504 1403.29 271.392L1398.77 275.28C1396.52 271.824 1393.88 270.24 1390.28 270.24C1386.58 270.24 1384.04 272.112 1384.04 274.848C1384.04 276.528 1384.81 277.536 1386.73 278.304C1387.54 278.64 1388.5 278.928 1391.33 279.552C1393.93 280.128 1395.75 280.608 1396.81 280.992C1397.91 281.376 1398.82 281.808 1399.59 282.288C1402.28 283.872 1403.57 286.272 1403.57 289.584C1403.57 292.896 1402.13 295.728 1399.49 297.792C1397.14 299.52 1393.97 300.528 1390.52 300.528ZM1409.86 295.248C1407.12 292.032 1405.63 287.712 1405.63 282.768C1405.63 277.824 1407.12 273.504 1409.86 270.288C1412.78 266.88 1416.91 265.008 1421.66 265.008C1426.42 265.008 1430.54 266.88 1433.47 270.288C1436.21 273.504 1437.7 277.824 1437.7 282.768C1437.7 287.712 1436.21 292.032 1433.47 295.248C1430.54 298.656 1426.42 300.528 1421.66 300.528C1416.91 300.528 1412.78 298.656 1409.86 295.248ZM1421.66 295.104C1424.59 295.104 1426.99 293.952 1428.82 291.696C1430.64 289.44 1431.55 286.464 1431.55 282.768C1431.55 279.072 1430.64 276.096 1428.82 273.84C1426.99 271.584 1424.59 270.432 1421.66 270.432C1418.74 270.432 1416.34 271.584 1414.51 273.84C1412.69 276.096 1411.78 279.072 1411.78 282.768C1411.78 286.464 1412.69 289.44 1414.51 291.696C1416.34 293.952 1418.74 295.104 1421.66 295.104ZM1453.7 286.656H1448.13V300H1441.99V265.536H1455.77C1463.69 265.536 1468.25 269.376 1468.25 276.096C1468.25 281.424 1465.41 284.976 1460.23 286.176L1469.11 300H1462.1L1453.7 286.656ZM1448.13 270.816V281.376H1455.43C1459.8 281.376 1462.2 279.504 1462.2 276.096C1462.2 272.64 1459.85 270.816 1455.43 270.816H1448.13ZM1474.59 265.536L1483.52 280.176L1492.45 265.536H1498.97L1486.54 285.792V300H1480.4V285.792L1467.92 265.536H1474.59ZM1502.1 300H1495.14V293.04H1502.1V300Z" fill="black"/>
<path d="M239.944 238.361C236.044 238.38 234.243 242.261 230.863 243.243C223.839 247.461 217.118 252.201 209.5 255.365C207.243 256.302 204.835 258.177 202.49 255.96C199.831 253.451 201.136 250.522 202.377 247.817C203.417 245.547 204.634 243.355 205.772 241.124C218.281 225.125 232.389 210.333 242.411 192.459C246.615 184.956 244.349 179.517 235.96 178.184C228.151 176.944 220.326 176.871 212.438 177.74C206.748 178.365 201.161 180.147 195.353 179.532C192.669 179.249 189.304 178.248 191.526 175.045C195.696 169.04 190.805 169.582 187.774 169.45C175.657 168.933 163.506 168.44 151.689 172.092C144.811 171.281 138.429 174.054 131.802 175.006C127.048 175.69 122.305 176.705 117.502 177.237C105.842 178.834 94.3286 182.256 82.2021 179.341C94.0588 176.92 105.915 174.503 117.767 172.082C129.3 171.764 140.411 168.816 151.654 166.687C162.285 163.997 173.16 163.909 183.952 164.554C189.853 164.905 197.982 162.708 198.821 172.985C199.002 175.197 201.617 174.054 203.187 173.795C213.086 172.179 223.054 171.745 233.051 172.228C248.146 172.956 253.375 182.119 246.208 195.423C239.433 208.004 229.622 218.364 220.523 229.226C218.212 231.985 215.553 234.465 214.528 238.068C214.204 238.263 213.881 238.458 213.557 238.653C214.131 239.449 214.45 238.697 214.847 238.444C215.853 239.2 216.863 239.952 217.879 240.709C211.477 239.747 208.161 243.453 205.831 248.632C205.414 249.555 204.629 250.531 205.502 251.503C206.38 252.475 207.494 251.903 208.406 251.474C214.268 248.696 220.361 246.284 224.972 241.456C251.903 224.456 277.74 205.968 302.528 185.981C307.257 182.168 310.843 177.027 316.528 174.293C318.54 173.327 320.973 171.594 320.065 168.908C319.128 166.14 316.16 166.638 313.933 166.892C302.307 168.205 290.701 169.66 279.099 171.144C277.068 171.403 275.092 172.101 271.839 171.013C284.245 167.014 295.876 165.076 307.556 163.348C312.393 162.63 317.23 161.913 322.081 161.263C324.632 160.921 327.522 160.482 329.057 163.031C330.538 165.491 328.351 167.332 326.972 169.187C319.015 179.898 308.307 187.641 297.829 195.54C278.663 209.986 259.252 224.1 239.944 238.356V238.361Z" fill="black"/>
<defs>
<clipPath id="clip0_6934_2233">
<rect width="100.19" height="100.19" fill="white" transform="translate(1403.81 46.81)"/>
</clipPath>
</defs>
</svg>
