<svg width="1440" height="285" viewBox="0 0 1440 285" fill="none" xmlns="http://www.w3.org/2000/svg">
<path d="M46.528 63.262H58.816V132.19H46.528V63.262ZM115.809 63.262H127.617V132.19H116.865L82.6885 81.598V132.19H70.8805V63.262H83.5525L115.809 111.55V63.262ZM161.559 133.246C155.511 133.246 149.847 131.902 144.567 129.31C139.287 126.622 135.255 123.07 132.663 118.75L142.071 110.974C146.967 118.558 154.167 122.782 161.943 122.782C170.295 122.782 175.575 118.846 175.575 112.606C175.575 109.918 174.519 107.998 172.215 106.558C170.679 105.502 168.663 104.734 165.303 103.87L161.463 103.006C159.831 102.526 158.679 102.238 158.103 102.142C150.039 100.222 146.391 98.686 143.319 96.67C138.807 93.598 136.599 89.182 136.599 83.134C136.599 76.702 139.287 71.326 144.375 67.486C148.695 64.03 154.839 62.206 161.463 62.206C172.311 62.206 182.103 67.198 187.095 74.974L178.071 82.75C173.559 75.838 168.279 72.67 161.079 72.67C153.687 72.67 148.599 76.414 148.599 81.886C148.599 85.246 150.135 87.262 153.975 88.798C155.607 89.47 157.527 90.046 163.191 91.294C168.375 92.446 172.023 93.406 174.135 94.174C176.343 94.942 178.167 95.806 179.703 96.766C185.079 99.934 187.671 104.734 187.671 111.358C187.671 117.982 184.791 123.646 179.511 127.774C174.807 131.23 168.471 133.246 161.559 133.246ZM195.335 63.262H207.623V132.19H195.335V63.262ZM242.728 132.19H219.688V63.262H242.728C253.192 63.262 261.928 66.43 267.976 72.574C274.12 78.622 277.384 87.358 277.384 97.726C277.384 108.094 274.12 116.83 267.976 122.878C261.928 129.022 253.192 132.19 242.728 132.19ZM231.688 73.822V121.63H242.728C256.648 121.63 265.288 112.414 265.288 97.726C265.288 82.846 256.744 73.822 242.632 73.822H231.688ZM286.04 132.19V63.262H332.696V74.014H298.136V91.294H327.224V102.046H298.136V121.438H332.696V132.19H286.04ZM412.454 63.262V74.014H390.278V132.19H377.99V74.014H355.814V63.262H412.454ZM464.785 91.294V63.262H477.073V132.19H464.785V102.046H431.761V132.19H419.473V63.262H431.761V91.294H464.785ZM489.2 132.19V63.262H535.856V74.014H501.296V91.294H530.384V102.046H501.296V121.438H535.856V132.19H489.2ZM577.406 81.022C574.334 85.342 572.798 91.198 572.798 97.726C572.798 104.254 574.334 110.11 577.406 114.43C580.862 119.518 586.142 122.398 592.19 122.398C600.158 122.398 606.014 117.598 608.222 109.438L619.742 113.374C615.518 126.046 605.63 133.246 592.19 133.246C582.878 133.246 574.526 129.406 568.766 122.494C563.39 116.062 560.51 107.422 560.51 97.726C560.51 88.03 563.39 79.39 568.766 72.958C574.526 66.046 582.878 62.206 592.19 62.206C605.63 62.206 615.518 69.406 619.742 82.078L608.222 86.014C606.014 77.854 600.158 73.054 592.19 73.054C586.142 73.054 580.862 75.934 577.406 81.022ZM650.557 105.502H639.421V132.19H627.133V63.262H654.685C670.525 63.262 679.645 70.942 679.645 84.382C679.645 95.038 673.981 102.142 663.613 104.542L681.373 132.19H667.357L650.557 105.502ZM639.421 73.822V94.942H654.013C662.749 94.942 667.549 91.198 667.549 84.382C667.549 77.47 662.845 73.822 654.013 73.822H639.421ZM682.855 132.19L708.967 63.262H722.887L748.999 132.19H736.615L730.663 116.446H700.903L695.047 132.19H682.855ZM726.631 105.694L715.687 76.894L704.935 105.694H726.631ZM767.621 103.486V132.19H755.525V63.262H801.51V74.014H767.621V92.734H796.037V103.486H767.621ZM861.524 63.262V74.014H839.348V132.19H827.06V74.014H804.884V63.262H861.524Z" fill="black"/>
<path d="M1299.81 90.19C1299.81 62.5758 1277.42 40.19 1249.81 40.19C1222.2 40.19 1199.81 62.5758 1199.81 90.19C1199.81 117.804 1222.2 140.19 1249.81 140.19C1277.42 140.19 1299.81 117.804 1299.81 90.19Z" stroke="black" stroke-width="2" stroke-miterlimit="10"/>
<g clip-path="url(#clip0_6926_2477)">
<path d="M1399 139.19L1300.52 40.71" stroke="black" stroke-width="2" stroke-miterlimit="10"/>
<path d="M1399 40.71V139.19H1300.52" stroke="black" stroke-width="2" stroke-miterlimit="10"/>
</g>
<path d="M196.987 241.551C193.106 241.57 191.314 245.451 187.951 246.433C180.959 250.651 174.271 255.391 166.689 258.555C164.443 259.492 162.046 261.367 159.713 259.15C157.067 256.641 158.365 253.712 159.6 251.007C160.635 248.737 161.846 246.545 162.979 244.314C175.428 228.315 189.469 213.523 199.443 195.65C203.627 188.146 201.371 182.707 193.023 181.374C185.251 180.134 177.464 180.061 169.614 180.93C163.95 181.555 158.39 183.337 152.609 182.722C149.939 182.439 146.59 181.438 148.801 178.235C152.951 172.23 148.084 172.772 145.067 172.64C133.008 172.123 120.915 171.63 109.154 175.282C102.31 174.471 95.9581 177.244 89.3624 178.196C84.6317 178.88 79.9108 179.895 75.1312 180.427C63.5266 182.024 52.0684 185.446 40 182.531C51.7999 180.11 63.5998 177.693 75.3949 175.272C86.8726 174.954 97.9304 172.006 109.12 169.877C119.699 167.187 130.523 167.099 141.263 167.744C147.137 168.095 155.226 165.898 156.061 176.175C156.242 178.387 158.844 177.244 160.406 176.985C170.258 175.369 180.178 174.935 190.128 175.418C205.15 176.146 210.354 185.309 203.222 198.613C196.479 211.194 186.715 221.554 177.659 232.416C175.36 235.175 172.714 237.655 171.693 241.258C171.371 241.453 171.049 241.648 170.727 241.843C171.298 242.639 171.615 241.887 172.011 241.634C173.011 242.39 174.017 243.142 175.028 243.899C168.657 242.937 165.356 246.643 163.037 251.822C162.622 252.745 161.841 253.721 162.71 254.693C163.584 255.665 164.692 255.093 165.6 254.664C171.435 251.886 177.498 249.474 182.087 244.646C208.89 227.646 234.603 209.158 259.272 189.171C263.979 185.358 267.547 180.217 273.206 177.483C275.207 176.517 277.629 174.784 276.726 172.098C275.793 169.33 272.84 169.828 270.623 170.082C259.053 171.395 247.502 172.85 235.956 174.334C233.935 174.593 231.967 175.291 228.73 174.203C241.077 170.204 252.652 168.266 264.276 166.538C269.09 165.82 273.904 165.103 278.732 164.453C281.271 164.111 284.146 163.672 285.675 166.221C287.149 168.681 284.971 170.522 283.6 172.377C275.681 183.088 265.023 190.831 254.595 198.73C235.521 213.176 216.203 227.29 196.987 241.546V241.551Z" fill="black"/>
<defs>
<clipPath id="clip0_6926_2477">
<rect width="100.19" height="100.19" fill="white" transform="translate(1299.81 40)"/>
</clipPath>
</defs>
</svg>
