<svg width="1440" height="271" viewBox="0 0 1440 271" fill="none" xmlns="http://www.w3.org/2000/svg">
<path d="M98.08 103.262V114.014H75.904V172.19H63.616V114.014H41.44V103.262H98.08ZM105.214 162.686C99.742 156.254 96.766 147.614 96.766 137.726C96.766 127.838 99.742 119.198 105.214 112.766C111.07 105.95 119.326 102.206 128.83 102.206C138.334 102.206 146.59 105.95 152.446 112.766C157.918 119.198 160.894 127.838 160.894 137.726C160.894 147.614 157.918 156.254 152.446 162.686C146.59 169.502 138.334 173.246 128.83 173.246C119.326 173.246 111.07 169.502 105.214 162.686ZM128.83 162.398C134.686 162.398 139.486 160.094 143.134 155.582C146.782 151.07 148.606 145.118 148.606 137.726C148.606 130.334 146.782 124.382 143.134 119.87C139.486 115.358 134.686 113.054 128.83 113.054C122.974 113.054 118.174 115.358 114.526 119.87C110.878 124.382 109.054 130.334 109.054 137.726C109.054 145.118 110.878 151.07 114.526 155.582C118.174 160.094 122.974 162.398 128.83 162.398ZM197.035 145.502H181.771V172.19H169.483V103.262H197.035C212.875 103.262 221.995 110.942 221.995 124.382C221.995 137.822 212.779 145.502 197.035 145.502ZM181.771 113.822V134.942H196.363C205.099 134.942 209.899 131.198 209.899 124.382C209.899 117.47 205.195 113.822 196.363 113.822H181.771ZM275.553 145.502H260.289V172.19H248.001V103.262H275.553C291.393 103.262 300.513 110.942 300.513 124.382C300.513 137.822 291.297 145.502 275.553 145.502ZM260.289 113.822V134.942H274.881C283.617 134.942 288.417 131.198 288.417 124.382C288.417 117.47 283.713 113.822 274.881 113.822H260.289ZM307.697 103.262H319.985V172.19H307.697V103.262ZM345.393 121.022C342.321 125.342 340.785 131.198 340.785 137.726C340.785 144.254 342.321 150.11 345.393 154.43C348.849 159.518 354.129 162.398 360.177 162.398C368.145 162.398 374.001 157.598 376.209 149.438L387.729 153.374C383.505 166.046 373.617 173.246 360.177 173.246C350.865 173.246 342.513 169.406 336.753 162.494C331.377 156.062 328.497 147.422 328.497 137.726C328.497 128.03 331.377 119.39 336.753 112.958C342.513 106.046 350.865 102.206 360.177 102.206C373.617 102.206 383.505 109.406 387.729 122.078L376.209 126.014C374.001 117.854 368.145 113.054 360.177 113.054C354.129 113.054 348.849 115.934 345.393 121.022ZM395.12 103.262H407.408V135.902L436.017 103.262H450.513L423.729 133.118L452.049 172.19H437.553L415.761 142.142L407.408 151.358V172.19H395.12V103.262ZM478.205 173.246C472.157 173.246 466.493 171.902 461.213 169.31C455.933 166.622 451.901 163.07 449.309 158.75L458.717 150.974C463.613 158.558 470.813 162.782 478.589 162.782C486.941 162.782 492.221 158.846 492.221 152.606C492.221 149.918 491.165 147.998 488.861 146.558C487.325 145.502 485.309 144.734 481.949 143.87L478.109 143.006C476.477 142.526 475.325 142.238 474.749 142.142C466.685 140.222 463.037 138.686 459.965 136.67C455.453 133.598 453.245 129.182 453.245 123.134C453.245 116.702 455.933 111.326 461.021 107.486C465.341 104.03 471.485 102.206 478.109 102.206C488.957 102.206 498.749 107.198 503.741 114.974L494.717 122.75C490.205 115.838 484.925 112.67 477.725 112.67C470.333 112.67 465.245 116.414 465.245 121.886C465.245 125.246 466.781 127.262 470.621 128.798C472.253 129.47 474.173 130.046 479.837 131.294C485.021 132.446 488.669 133.406 490.781 134.174C492.989 134.942 494.813 135.806 496.349 136.766C501.725 139.934 504.317 144.734 504.317 151.358C504.317 157.982 501.437 163.646 496.157 167.774C491.453 171.23 485.117 173.246 478.205 173.246Z" fill="black"/>
<path d="M1299.81 130.19C1299.81 102.576 1277.42 80.1899 1249.81 80.1899C1222.2 80.1899 1199.81 102.576 1199.81 130.19C1199.81 157.804 1222.2 180.19 1249.81 180.19C1277.42 180.19 1299.81 157.804 1299.81 130.19Z" stroke="black" stroke-width="2" stroke-miterlimit="10"/>
<g clip-path="url(#clip0_4998_1758)">
<path d="M1399 179.19L1300.52 80.71" stroke="black" stroke-width="2" stroke-miterlimit="10"/>
<path d="M1399 80.71V179.19H1300.52" stroke="black" stroke-width="2" stroke-miterlimit="10"/>
</g>
<g clip-path="url(#clip1_4998_1758)">
<path d="M153.272 140.057C153.404 140.12 154.147 141.104 154.235 141.338C154.324 141.571 154.512 142.814 154.475 143.023C154.261 144.323 153.404 145.907 152.844 147.061C151.428 149.971 149.854 152.987 148.211 155.896C146.253 159.373 143.987 162.995 141.872 166.435C141.841 166.491 141.979 166.63 141.941 166.731C141.419 168.056 140.141 169.76 139.222 171.319C138.523 172.512 138.202 173.25 137.862 174.569C137.831 174.689 136.509 176.178 136.408 176.405C136.257 176.759 136.446 177.181 136.263 177.541C136.125 177.819 135.678 177.857 135.602 177.964C135.539 178.059 135.734 178.374 135.627 178.652C135.451 179.1 134.564 180.021 134.242 180.602C133.959 181.126 133.852 181.763 133.6 182.268C133.43 182.602 132.801 183.271 132.65 183.7C132.499 184.129 132.769 183.934 132.895 183.953C133.147 183.991 134.431 183.902 134.822 183.883C137.957 183.719 141.098 183.524 144.239 183.593C146.14 183.637 149.332 183.574 151.075 183.997C151.371 184.066 151.415 183.858 151.371 184.382C150.207 184.615 149.011 184.811 147.846 185.057C147.002 185.234 145.718 185.707 144.85 185.732C144.56 185.739 144.195 185.486 143.899 185.543C143.698 185.581 143.641 186.136 143.477 186.142C143.439 186.142 143.276 185.858 143.087 185.833C142.873 185.808 142.59 186.035 142.313 186.048C139.543 186.174 136.376 186.761 133.525 186.748C133.009 186.748 132.675 186.407 132.555 186.407C132.385 186.407 131.479 186.982 130.925 186.748L129.704 189.683C128.873 190.402 128.627 191.898 128.193 192.686C127.796 193.4 126.575 194.693 126.361 195.387C126.147 196.081 126.777 195.987 125.82 196.227C125.769 196.473 125.757 196.763 125.644 196.99C124.385 199.54 123.056 201.843 121.703 204.38C120.551 206.532 119.141 208.753 118.165 210.81C118.008 211.138 117.926 211.574 117.819 211.927L117.441 211.738C117.17 212.754 116.409 213.473 115.93 214.432C109.931 226.568 103.151 238.539 96.6991 250.832C95.075 255.596 92.4499 260.165 90.2341 264.904C89.6613 266.122 89.2206 267.92 88.6603 268.993C88.503 269.296 87.074 270.747 86.8159 270.874C86.0227 271.246 84.449 270.691 84.1783 269.801C84.1028 269.555 84.0839 268.577 84.1594 268.356C84.2475 268.097 84.5371 267.952 84.6252 267.687C86.4445 262.411 88.5596 256.486 91.1469 251.538C93.3879 247.241 95.2638 241.978 97.3349 237.573C104.964 221.298 113.815 205.812 122.704 190.282C122.943 189.866 124.441 187.272 124.271 187.108C122.502 186.843 121.023 187.752 119.336 187.108C119.021 186.919 118.971 185.997 119.185 185.669C119.814 184.704 124.838 184.546 126.097 184.338L126.411 183.58L127.091 184.35C127.67 184.23 127.576 183.801 127.796 183.505C128.275 182.874 128.52 182.407 128.835 181.618C130.132 178.387 132.171 175.238 133.67 172.196C134.815 169.88 136.037 167.457 137.182 164.964C137.434 164.415 137.994 163.885 138.089 163.178L138.693 163.059L138.391 162.478C138.945 161.62 139.612 160.812 140.109 159.929C141.475 157.486 142.778 155.265 143.981 152.665C144.05 152.514 144.296 152.488 144.302 152.476C144.359 152.312 144.038 151.958 144.17 151.756C144.226 151.674 144.875 151.517 145.038 151.138C145.215 150.734 144.975 150.879 145.315 150.229C146.077 148.772 146.807 147.358 147.689 145.806C148.633 144.133 149.464 142.297 150.899 141.003C151.101 140.82 151.409 140.833 151.51 140.726C151.617 140.612 151.484 140.309 151.686 140.196C151.931 140.05 152.989 139.918 153.266 140.057H153.272ZM126.021 187.121L125.266 187.146L123.881 190.831C124.668 190.579 124.945 188.73 125.228 188.376C125.499 188.048 126.046 187.872 126.021 187.114V187.121ZM122.704 193.759L123.094 192.194C122.697 192.301 122.232 193.576 122.704 193.759ZM119.695 199.559C120.198 198.618 121.451 196.479 121.684 195.57C121.734 195.381 121.879 194.882 121.539 194.933C119.581 198.423 117.995 202.114 116.163 205.673C116.025 205.945 115.786 206.109 115.477 206.721C114.797 208.046 114.004 209.334 113.545 210.766C113.96 211.258 116.415 205.85 116.585 205.509C117.636 203.408 118.744 201.319 119.695 199.559ZM112.676 212.849C112.928 212.306 113.381 211.814 113.343 211.157L111.788 213.991C112.411 214.432 112.361 213.107 112.443 212.962C112.468 212.912 112.651 212.905 112.676 212.849ZM111.977 214.287C111.473 214.167 111.637 214.439 111.473 214.66C111.297 214.899 110.271 216.218 110.907 216.439C111.096 215.556 112.021 215.202 111.977 214.294V214.287Z" fill="black"/>
<path d="M178.201 177.857C176.079 181.952 172.29 185.947 169.809 189.866C167.644 193.28 165.661 196.732 163.533 200.19C162.022 202.651 160.518 205.087 158.913 207.302C158.094 208.431 157.307 210.028 156.678 211.296C155.306 214.079 153.745 216.812 151.825 219.632C151.73 219.771 151.755 219.98 151.762 220.15L151.378 219.948L151.554 220.623L151.025 220.964C151.428 221.98 150.817 221.854 150.534 222.346C149.823 223.614 149.269 225.949 148.771 227.382C148.671 227.666 149.086 228.044 148.45 227.969C148.369 228.297 148.709 228.095 148.797 228.183C148.834 228.221 148.847 229.155 148.847 229.205C148.828 229.363 148.488 229.319 148.394 229.578C148.362 229.654 148.054 231.111 148.048 231.193C147.991 232.058 148.413 232.771 147.588 233.654C146.965 234.166 143.949 232.67 143.824 231.749C143.792 231.503 144 231.231 143.975 231.023C143.975 230.972 143.817 230.89 143.679 230.215C143.616 229.906 142.955 229.508 143.767 229.527C143.144 228.991 143.723 228.77 143.698 228.461C143.578 226.921 144.17 224.58 144.686 222.933C144.787 222.605 145.127 221.709 145.328 221.223C145.718 220.295 146.807 218.755 147.04 218.055C147.298 217.272 146.814 216.849 146.505 217.367C145.8 218.547 145.089 219.071 144.151 220.049C142.351 221.917 140.267 224.113 138.391 225.892C137.617 226.624 137.547 226.46 137.063 226.807C136.773 227.009 136.37 227.432 136.018 227.571C135.395 227.817 134.211 227.798 133.632 227.483C133.223 227.262 133.374 226.524 132.461 226.801C132.958 225.892 131.863 225.224 132.071 224.391C132.109 224.245 132.461 224.277 132.474 224.138C133.009 218.44 138.309 212.287 141.236 207.207L144.359 203.44C144.403 203.124 144.371 203.118 144.063 203.143C143.037 203.225 142.527 204.424 141.815 204.992C140.468 206.077 140.091 205.926 138.844 207.39C138.762 207.485 137.126 208.431 136.83 208.684C136.333 209.106 135.86 210.242 135.218 209.801C135.011 210.324 134.885 210.911 134.224 210.772L134.387 211.126C133.015 211.858 131.737 212.823 131.07 214.256C130.283 214.041 129.402 215.486 128.823 215.638C128.413 215.745 128.199 215.259 127.922 215.297C127.847 215.31 126.739 216.017 126.613 216.136C126.172 216.559 125.927 217.279 125.537 217.79C122.874 221.242 120.387 224.996 117.649 228.455C116.352 230.095 115.03 231.528 113.545 232.948C113.224 233.257 111.763 235.339 111.31 234.62C110.794 233.812 111.751 233.364 112.179 232.891C116.975 227.596 120.929 220.724 125.272 214.59C125.524 210.823 128.174 207.933 130.207 205.074C130.975 203.989 131.076 203.787 132.002 202.764C132.562 202.14 132.82 201.433 133.279 200.714C134.595 198.663 135.949 196.511 137.359 194.491C138.007 193.557 138.416 192.787 139.323 191.923C139.442 191.809 139.864 191.488 139.984 191.488C140.468 191.866 140.884 191.614 141.488 191.854C144.182 192.926 141.614 195.823 140.789 197.3C139.965 198.776 139.36 199.899 138.397 201.25C138.007 201.793 136.817 203.307 138.366 202.531C140.915 201.25 143.175 198.827 145.932 197.565C147.985 196.624 150.012 196.561 151.585 194.826C156.829 189.026 163.023 182.754 169.337 178.027C169.772 177.699 170.426 177.617 170.798 177.144C170.942 177.112 170.93 177.346 170.892 177.434C170.747 177.762 168.192 179.946 167.669 180.457C162.495 185.505 157.408 191.317 152.945 197.129C148.482 202.941 143.666 209.018 139.902 215.789C139.285 216.9 137.869 219.658 137.485 220.97C137.428 221.166 137.138 222.169 137.642 221.911L142.036 217.758C146.688 212.849 151.611 207.605 155.866 202.064C159.083 197.874 162.022 193.059 164.918 189.071C165.277 188.572 165.478 187.676 165.667 187.354C166.051 186.685 167.109 185.758 167.663 184.956C168.166 184.218 168.04 184.117 168.739 183.309C170.88 180.854 172.353 178.034 174.405 175.535C174.927 174.897 175.758 174.638 176.274 174.02C177.011 174.254 179.101 174.651 179.019 175.648C178.981 176.102 178.452 177.415 178.219 177.857H178.201Z" fill="black"/>
<path d="M95.075 192.453C94.9176 192.674 94.968 193.04 94.8421 193.242C94.6721 193.513 94.2629 193.431 94.0867 193.608C93.8789 193.822 93.1991 195.381 92.6703 196.006C91.5687 197.306 90.316 198.524 89.2584 199.811C88.6352 200.575 87.6909 201.408 87.6091 202.367L87.2251 202.171C87.2692 202.613 87.1433 202.935 86.9041 203.294C86.5956 203.755 85.3177 204.676 85.1729 204.916C85.0659 205.093 85.2548 205.408 85.1792 205.509C85.0596 205.673 84.6819 205.617 84.4805 205.831C84.0273 206.298 83.681 207.421 83.3285 207.895C83.1334 208.16 82.485 208.545 82.2269 208.904C81.8366 209.46 80.6846 211.782 80.5587 211.902C80.5146 211.946 80.2125 211.732 80.0992 211.934C79.9166 212.255 80.2062 212.552 80.0992 212.735C80.0614 212.804 79.1423 213.492 78.9031 213.789C78.0533 214.849 77.7322 216.124 76.8195 217.165C73.8482 220.585 71.7394 224.82 69.4732 228.663C68.573 230.19 67.3833 231.218 67.1189 233.099C66.1998 233.818 65.6899 235.737 64.3176 235.592C64.2043 235.579 62.5991 234.828 62.5046 234.752C62.1773 234.487 61.9884 233.061 62.1018 232.752C62.1458 232.626 62.769 232.664 62.2402 231.786L62.6116 231.591C62.5802 229.969 63.4804 228.126 64.3931 226.744C65.2807 225.4 65.8536 224.359 66.6845 222.933C66.886 222.586 68.6863 220.85 67.8113 220.535C67.7232 220.503 67.7295 220.743 67.5469 220.901C66.8293 221.494 65.9858 221.753 65.243 222.358C64.859 222.674 64.3113 223.539 63.9273 223.873C62.3221 225.268 60.3832 226.94 58.6395 227.956C56.3041 229.319 54.3715 231.149 51.9857 232.626C51.224 233.099 51.1799 233.067 50.4623 233.635C49.965 234.027 45.6844 235.693 45.0045 235.787C43.1349 236.059 42.5872 235.56 41.3471 234.487C41.2905 234.437 40.9631 234.588 40.7995 234.348C40.6169 234.077 40.4343 232.417 40.4343 231.995C40.4343 231.42 41.1583 229.199 41.429 228.694C41.6556 228.278 42.0018 228.265 42.1718 228.019C42.5432 227.489 44.589 224.744 44.5198 224.378C44.0099 223.791 43.5315 224.378 43.0342 224.441C42.4487 224.517 40.5225 224.744 40.1385 224.472C39.7671 224.037 40.1951 222.321 40.5414 222.087C41.0576 221.74 41.8822 221.98 42.241 221.891C42.3984 221.854 42.3732 221.538 42.6061 221.456C44.5198 220.806 48.7312 220.15 50.1035 218.919C50.2923 218.749 50.6197 217.884 50.947 217.506C51.8409 216.477 54.1134 215.108 54.7744 214.237C54.9066 214.06 54.7492 213.069 55.6242 213.303L55.429 212.918C56.5118 212.867 57.6197 211.719 58.4129 210.968C59.8481 209.611 61.0945 208.046 62.7187 206.746C63.216 206.349 64.4876 205.8 64.9156 205.427C65.9984 204.481 66.5397 203.686 67.9246 202.676C71.4184 200.133 74.975 197.426 78.5758 195.129C79.2934 194.668 79.4886 194.605 80.1118 194.163C80.4895 193.892 82.3024 192.806 82.7808 192.548C83.2593 192.289 83.7817 192.346 83.9014 192.283C84.1091 192.169 85.0407 191.102 85.324 190.907C86.5578 190.055 89.2458 188.187 90.2719 187.714C92.4059 186.729 93.2431 187.701 95.1694 187.991C95.8807 188.099 96.548 187.461 96.7495 188.799C96.9509 190.137 96.2962 191.09 95.5849 192.112C95.4653 192.283 95.1568 192.333 95.0624 192.459L95.075 192.453ZM84.4553 196.271C84.6379 195.943 85.0785 195.318 84.4931 195.135C84.5057 195.368 83.7692 195.949 83.637 196.037C80.0992 198.284 76.8069 200.31 73.5587 202.84C71.3491 204.557 68.8878 206.273 66.6279 208.116C65.7969 208.797 63.5622 210.482 63.0523 211.132C62.5424 211.782 62.5928 212.072 61.8185 212.59C61.466 212.823 61.1386 212.735 61.1197 212.76C61.0442 212.867 61.0883 213.17 60.9749 213.284C60.6539 213.612 60.0685 213.726 60.1125 214.281C60.5406 214.313 60.9435 214.218 61.3338 214.041C62.4417 213.524 63.8958 212.281 65.0478 211.706C66.5838 210.943 66.5145 211.208 67.9057 210.072C69.0326 209.157 70.4363 208.658 71.6639 207.838C72.2178 207.472 72.4696 207.138 72.9669 206.74C74.654 205.377 75.4912 204.702 77.279 203.616C77.7448 203.332 79.1423 201.439 79.967 201.155L79.8096 200.808C81.1064 200.474 81.5659 198.965 82.4598 198.082C83.0767 197.47 83.9706 197.274 84.1154 196.119L84.449 196.264L84.4553 196.271ZM69.8887 214.249C69.7942 214.174 69.9957 213.814 69.6683 213.896C69.8761 214.937 69.3851 214.533 68.9822 214.862C68.7682 215.038 68.4786 215.486 68.3086 215.549C68.0694 215.638 67.6036 215.373 67.5217 215.461C67.4777 215.505 67.5973 215.871 67.4903 215.997C67.4336 216.061 66.2187 216.521 65.9354 216.654C65.2115 217.001 64.7205 217.121 63.9714 217.424C63.751 217.512 62.6116 218.32 62.5235 218.351C62.1584 218.49 61.3463 218.351 61.1323 218.452C61.0757 218.478 60.5154 219.14 60.1755 219.329C58.1233 220.434 55.876 221.387 53.6476 222.169C51.6709 222.857 51.608 222.327 49.858 224.056C48.108 225.785 46.509 228.164 45.1052 230.36C44.8031 230.833 44.0288 230.998 44.3247 232.07C45.5962 232.228 46.5594 231.635 47.6421 231.225C53.2195 229.104 58.7528 224.34 63.1845 220.888C63.3733 220.743 63.2978 220.371 63.4867 220.2C63.7762 219.935 64.8275 219.658 65.2304 219.361C66.2061 218.654 67.144 217.19 68.0254 216.439C68.6108 215.934 69.2655 215.821 69.7754 215.461C70.109 215.221 71.1666 214.231 70.9462 213.896C70.7448 214.092 70.1342 214.439 69.895 214.249H69.8887Z" fill="black"/>
<path d="M101.565 201.111C99.3179 203.989 96.7999 206.841 94.8232 209.737C94.6785 209.952 94.647 210.242 94.4455 210.476C93.8601 211.138 92.7459 211.302 92.6892 212.527L93.0355 212.382L93.174 212.729H93.5642C93.8664 212.59 93.665 212.173 93.8475 212.041C94.2441 211.75 94.7729 211.946 94.8107 211.915C94.8799 211.845 95.1821 210.943 95.4716 210.817C96.8439 210.217 97.0139 209.845 98.1911 208.955C98.6128 208.639 99.4816 208.286 99.9033 207.933C101.08 206.948 102.132 205.56 103.561 204.758C104.543 204.203 104.197 204.336 104.82 203.856C105.009 203.711 106.614 203.042 106.878 202.991C107.791 202.821 109.069 203.181 110.051 202.954C110.108 203.364 110.007 203.648 109.831 204.001C109.686 204.298 107.319 207.226 107.13 207.327C106.96 207.415 106.752 207.238 106.746 207.257C106.696 207.352 106.796 207.844 106.683 208.185C106.614 208.4 105.751 208.734 105.575 208.917L105.965 209.207C105.097 209.144 104.807 210.091 104.398 210.28C104.209 210.368 103.894 210.204 103.813 210.28C103.63 210.432 103.705 210.817 103.58 210.93C103.353 211.145 102.843 210.678 103.202 211.321C103.082 211.511 101.981 212.041 101.76 212.217C99.7459 213.858 97.8889 215.613 95.6668 217.001C94.4959 217.733 94.4393 217.922 93.4761 218.673C92.3997 219.506 91.1658 219.544 90.1712 219.878C89.2648 220.181 89.0256 220.888 87.4896 220.888C86.0858 220.888 85.1604 219.645 84.0273 220.352C83.0705 220.951 81.1379 223.652 80.137 224.662C77.2539 227.577 72.4319 232.298 69.2089 234.62C68.8689 234.866 67.3581 235.863 67.0686 235.409C67.0182 234.399 68.1135 234.191 68.7053 233.711C69.3788 233.168 70.3168 231.793 70.9337 231.162C75.8501 226.151 81.5219 221.147 85.3241 215.007C86.0921 213.764 87.0678 212.533 88.0246 211.258C89.8187 208.86 91.7891 206.771 93.6587 204.392C94.0301 203.919 94.3385 202.853 94.7729 202.379C95.4087 201.679 95.9375 201.805 96.5984 200.669C97.5931 198.965 99.5823 197.224 101.087 195.621C101.483 195.198 102.012 194.498 102.283 193.974L102.73 194.15L103.095 193.702L103.624 193.665C106.488 195.419 104.587 197.325 103.126 199.218C102.648 199.836 102.107 200.467 101.603 201.117L101.565 201.111Z" fill="black"/>
<path d="M126.997 183.404L127.092 182.426L127.394 182.912L126.997 183.404Z" fill="black"/>
</g>
<defs>
<clipPath id="clip0_4998_1758">
<rect width="100.19" height="100.19" fill="white" transform="translate(1299.81 80)"/>
</clipPath>
<clipPath id="clip1_4998_1758">
<rect width="139" height="131" fill="white" transform="translate(40 140)"/>
</clipPath>
</defs>
</svg>
