<svg width="1440" height="353" viewBox="0 0 1440 353" fill="none" xmlns="http://www.w3.org/2000/svg">
<path d="M91.424 129.496C85.952 123.064 82.976 114.424 82.976 104.536C82.976 94.648 85.952 86.008 91.424 79.576C97.28 72.76 105.536 69.016 115.04 69.016C124.544 69.016 132.8 72.76 138.656 79.576C144.128 86.008 147.104 94.648 147.104 104.536C147.104 114.424 144.128 123.064 138.656 129.496C132.8 136.312 124.544 140.056 115.04 140.056C105.536 140.056 97.28 136.312 91.424 129.496ZM115.04 129.208C120.896 129.208 125.696 126.904 129.344 122.392C132.992 117.88 134.816 111.928 134.816 104.536C134.816 97.144 132.992 91.192 129.344 86.68C125.696 82.168 120.896 79.864 115.04 79.864C109.184 79.864 104.384 82.168 100.736 86.68C97.088 91.192 95.264 97.144 95.264 104.536C95.264 111.928 97.088 117.88 100.736 122.392C104.384 126.904 109.184 129.208 115.04 129.208ZM182.381 139.96C165.005 139.96 154.637 129.592 154.637 111.64V70.072H166.925V111.256C166.925 122.872 172.397 129.112 182.381 129.112C192.461 129.112 197.933 122.872 197.933 111.256V70.072H210.221V111.64C210.221 129.688 199.949 139.96 182.381 139.96ZM244.72 112.312H233.584V139H221.296V70.072H248.848C264.688 70.072 273.808 77.752 273.808 91.192C273.808 101.848 268.144 108.952 257.776 111.352L275.536 139H261.52L244.72 112.312ZM233.584 80.632V101.752H248.176C256.912 101.752 261.712 98.008 261.712 91.192C261.712 84.28 257.008 80.632 248.176 80.632H233.584ZM353.428 70.072V80.824H331.252V139H318.964V80.824H296.788V70.072H353.428ZM360.562 129.496C355.09 123.064 352.114 114.424 352.114 104.536C352.114 94.648 355.09 86.008 360.562 79.576C366.418 72.76 374.674 69.016 384.178 69.016C393.682 69.016 401.938 72.76 407.794 79.576C413.266 86.008 416.242 94.648 416.242 104.536C416.242 114.424 413.266 123.064 407.794 129.496C401.938 136.312 393.682 140.056 384.178 140.056C374.674 140.056 366.418 136.312 360.562 129.496ZM384.178 129.208C390.034 129.208 394.834 126.904 398.482 122.392C402.13 117.88 403.954 111.928 403.954 104.536C403.954 97.144 402.13 91.192 398.482 86.68C394.834 82.168 390.034 79.864 384.178 79.864C378.322 79.864 373.522 82.168 369.874 86.68C366.226 91.192 364.402 97.144 364.402 104.536C364.402 111.928 366.226 117.88 369.874 122.392C373.522 126.904 378.322 129.208 384.178 129.208ZM452.382 112.312H437.118V139H424.83V70.072H452.382C468.222 70.072 477.342 77.752 477.342 91.192C477.342 104.632 468.126 112.312 452.382 112.312ZM437.118 80.632V101.752H451.71C460.446 101.752 465.246 98.008 465.246 91.192C465.246 84.28 460.542 80.632 451.71 80.632H437.118ZM530.9 112.312H515.636V139H503.348V70.072H530.9C546.74 70.072 555.86 77.752 555.86 91.192C555.86 104.632 546.644 112.312 530.9 112.312ZM515.636 80.632V101.752H530.228C538.964 101.752 543.764 98.008 543.764 91.192C543.764 84.28 539.06 80.632 530.228 80.632H515.636ZM563.044 70.072H575.332V139H563.044V70.072ZM600.741 87.832C597.669 92.152 596.133 98.008 596.133 104.536C596.133 111.064 597.669 116.92 600.741 121.24C604.197 126.328 609.477 129.208 615.525 129.208C623.493 129.208 629.349 124.408 631.557 116.248L643.077 120.184C638.853 132.856 628.965 140.056 615.525 140.056C606.213 140.056 597.861 136.216 592.101 129.304C586.725 122.872 583.845 114.232 583.845 104.536C583.845 94.84 586.725 86.2 592.101 79.768C597.861 72.856 606.213 69.016 615.525 69.016C628.965 69.016 638.853 76.216 643.077 88.888L631.557 92.824C629.349 84.664 623.493 79.864 615.525 79.864C609.477 79.864 604.197 82.744 600.741 87.832ZM650.468 70.072H662.756V102.712L691.364 70.072H705.86L679.076 99.928L707.396 139H692.9L671.108 108.952L662.756 118.168V139H650.468V70.072ZM733.552 140.056C727.504 140.056 721.84 138.712 716.56 136.12C711.28 133.432 707.248 129.88 704.656 125.56L714.064 117.784C718.96 125.368 726.16 129.592 733.936 129.592C742.288 129.592 747.568 125.656 747.568 119.416C747.568 116.728 746.512 114.808 744.208 113.368C742.672 112.312 740.656 111.544 737.296 110.68L733.456 109.816C731.824 109.336 730.672 109.048 730.096 108.952C722.032 107.032 718.384 105.496 715.312 103.48C710.8 100.408 708.592 95.992 708.592 89.944C708.592 83.512 711.28 78.136 716.368 74.296C720.688 70.84 726.832 69.016 733.456 69.016C744.304 69.016 754.096 74.008 759.088 81.784L750.064 89.56C745.552 82.648 740.272 79.48 733.072 79.48C725.68 79.48 720.592 83.224 720.592 88.696C720.592 92.056 722.128 94.072 725.968 95.608C727.6 96.28 729.52 96.856 735.184 98.104C740.368 99.256 744.016 100.216 746.128 100.984C748.336 101.752 750.16 102.616 751.696 103.576C757.072 106.744 759.664 111.544 759.664 118.168C759.664 124.792 756.784 130.456 751.504 134.584C746.8 138.04 740.464 140.056 733.552 140.056Z" fill="black"/>
<path d="M1284.81 97C1284.81 69.3858 1262.42 47 1234.81 47C1207.2 47 1184.81 69.3858 1184.81 97C1184.81 124.614 1207.2 147 1234.81 147C1262.42 147 1284.81 124.614 1284.81 97Z" stroke="black" stroke-width="2" stroke-miterlimit="10"/>
<g clip-path="url(#clip0_6889_2937)">
<path d="M1384 146L1285.52 47.52" stroke="black" stroke-width="2" stroke-miterlimit="10"/>
<path d="M1384 47.52V146H1285.52" stroke="black" stroke-width="2" stroke-miterlimit="10"/>
</g>
<path d="M798.957 231.552V217.536H805.101V252H798.957V236.928H782.445V252H776.301V217.536H782.445V231.552H798.957ZM824.509 252.48C815.821 252.48 810.637 247.296 810.637 238.32V217.536H816.781V238.128C816.781 243.936 819.517 247.056 824.509 247.056C829.549 247.056 832.285 243.936 832.285 238.128V217.536H838.429V238.32C838.429 247.344 833.293 252.48 824.509 252.48ZM866.43 217.536H872.334V252H866.958L849.87 226.704V252H843.966V217.536H850.302L866.43 241.68V217.536ZM889.881 252H878.361V217.536H889.881C895.113 217.536 899.481 219.12 902.505 222.192C905.577 225.216 907.209 229.584 907.209 234.768C907.209 239.952 905.577 244.32 902.505 247.344C899.481 250.416 895.113 252 889.881 252ZM884.361 222.816V246.72H889.881C896.841 246.72 901.161 242.112 901.161 234.768C901.161 227.328 896.889 222.816 889.833 222.816H884.361ZM923.25 238.656H917.682V252H911.538V217.536H925.314C933.234 217.536 937.794 221.376 937.794 228.096C937.794 233.424 934.962 236.976 929.778 238.176L938.658 252H931.65L923.25 238.656ZM917.682 222.816V233.376H924.978C929.346 233.376 931.746 231.504 931.746 228.096C931.746 224.64 929.394 222.816 924.978 222.816H917.682ZM942.417 252V217.536H965.745V222.912H948.465V231.552H963.009V236.928H948.465V246.624H965.745V252H942.417ZM981.957 252H970.437V217.536H981.957C987.189 217.536 991.557 219.12 994.581 222.192C997.653 225.216 999.285 229.584 999.285 234.768C999.285 239.952 997.653 244.32 994.581 247.344C991.557 250.416 987.189 252 981.957 252ZM976.437 222.816V246.72H981.957C988.917 246.72 993.237 242.112 993.237 234.768C993.237 227.328 988.965 222.816 981.909 222.816H976.437ZM1014.56 252.528C1011.53 252.528 1008.7 251.856 1006.06 250.56C1003.42 249.216 1001.41 247.44 1000.11 245.28L1004.81 241.392C1007.26 245.184 1010.86 247.296 1014.75 247.296C1018.93 247.296 1021.57 245.328 1021.57 242.208C1021.57 240.864 1021.04 239.904 1019.89 239.184C1019.12 238.656 1018.11 238.272 1016.43 237.84L1014.51 237.408C1013.69 237.168 1013.12 237.024 1012.83 236.976C1008.8 236.016 1006.97 235.248 1005.44 234.24C1003.18 232.704 1002.08 230.496 1002.08 227.472C1002.08 224.256 1003.42 221.568 1005.97 219.648C1008.13 217.92 1011.2 217.008 1014.51 217.008C1019.93 217.008 1024.83 219.504 1027.33 223.392L1022.81 227.28C1020.56 223.824 1017.92 222.24 1014.32 222.24C1010.62 222.24 1008.08 224.112 1008.08 226.848C1008.08 228.528 1008.85 229.536 1010.77 230.304C1011.58 230.64 1012.54 230.928 1015.37 231.552C1017.97 232.128 1019.79 232.608 1020.85 232.992C1021.95 233.376 1022.86 233.808 1023.63 234.288C1026.32 235.872 1027.61 238.272 1027.61 241.584C1027.61 244.896 1026.17 247.728 1023.53 249.792C1021.18 251.52 1018.01 252.528 1014.56 252.528ZM1043.3 247.248C1040.57 244.032 1039.08 239.712 1039.08 234.768C1039.08 229.824 1040.57 225.504 1043.3 222.288C1046.23 218.88 1050.36 217.008 1055.11 217.008C1059.86 217.008 1063.99 218.88 1066.92 222.288C1069.66 225.504 1071.14 229.824 1071.14 234.768C1071.14 239.712 1069.66 244.032 1066.92 247.248C1063.99 250.656 1059.86 252.528 1055.11 252.528C1050.36 252.528 1046.23 250.656 1043.3 247.248ZM1055.11 247.104C1058.04 247.104 1060.44 245.952 1062.26 243.696C1064.09 241.44 1065 238.464 1065 234.768C1065 231.072 1064.09 228.096 1062.26 225.84C1060.44 223.584 1058.04 222.432 1055.11 222.432C1052.18 222.432 1049.78 223.584 1047.96 225.84C1046.14 228.096 1045.22 231.072 1045.22 234.768C1045.22 238.464 1046.14 241.44 1047.96 243.696C1049.78 245.952 1052.18 247.104 1055.11 247.104ZM1081.49 237.648V252H1075.44V217.536H1098.43V222.912H1081.49V232.272H1095.69V237.648H1081.49ZM1140.82 225.36L1131.8 252H1126.81L1117.78 225.36V252H1112.07V217.536H1120.52L1129.4 243.936L1138.28 217.536H1146.54V252H1140.82V225.36ZM1155.01 247.248C1152.27 244.032 1150.79 239.712 1150.79 234.768C1150.79 229.824 1152.27 225.504 1155.01 222.288C1157.94 218.88 1162.07 217.008 1166.82 217.008C1171.57 217.008 1175.7 218.88 1178.63 222.288C1181.36 225.504 1182.85 229.824 1182.85 234.768C1182.85 239.712 1181.36 244.032 1178.63 247.248C1175.7 250.656 1171.57 252.528 1166.82 252.528C1162.07 252.528 1157.94 250.656 1155.01 247.248ZM1166.82 247.104C1169.75 247.104 1172.15 245.952 1173.97 243.696C1175.79 241.44 1176.71 238.464 1176.71 234.768C1176.71 231.072 1175.79 228.096 1173.97 225.84C1172.15 223.584 1169.75 222.432 1166.82 222.432C1163.89 222.432 1161.49 223.584 1159.67 225.84C1157.84 228.096 1156.93 231.072 1156.93 234.768C1156.93 238.464 1157.84 241.44 1159.67 243.696C1161.49 245.952 1163.89 247.104 1166.82 247.104ZM1200.49 252.48C1191.8 252.48 1186.62 247.296 1186.62 238.32V217.536H1192.76V238.128C1192.76 243.936 1195.5 247.056 1200.49 247.056C1205.53 247.056 1208.26 243.936 1208.26 238.128V217.536H1214.41V238.32C1214.41 247.344 1209.27 252.48 1200.49 252.48ZM1242.31 252H1219.95V217.536H1226.09V246.624H1242.31V252ZM1257.33 252H1245.81V217.536H1257.33C1262.56 217.536 1266.93 219.12 1269.95 222.192C1273.02 225.216 1274.66 229.584 1274.66 234.768C1274.66 239.952 1273.02 244.32 1269.95 247.344C1266.93 250.416 1262.56 252 1257.33 252ZM1251.81 222.816V246.72H1257.33C1264.29 246.72 1268.61 242.112 1268.61 234.768C1268.61 227.328 1264.34 222.816 1257.28 222.816H1251.81ZM1278.99 217.536H1285.13V252H1278.99V217.536ZM1313.63 217.536H1319.53V252H1314.15L1297.07 226.704V252H1291.16V217.536H1297.5L1313.63 241.68V217.536ZM1354.21 252H1348.6V248.448C1347.11 250.944 1343.56 252.528 1339.33 252.528C1334.72 252.528 1330.69 250.608 1327.81 247.152C1325.17 244.032 1323.78 239.712 1323.78 234.912C1323.78 230.064 1325.27 225.648 1327.96 222.384C1330.88 218.928 1335.06 217.008 1339.72 217.008C1346.48 217.008 1351.48 220.56 1353.64 226.896L1347.78 228.864C1346.77 224.784 1343.84 222.432 1339.76 222.432C1336.84 222.432 1334.48 223.584 1332.66 225.888C1330.84 228.144 1329.92 231.12 1329.92 234.816C1329.92 238.512 1330.84 241.536 1332.66 243.84C1334.48 246.096 1336.88 247.248 1339.86 247.248C1344.71 247.248 1348.12 243.84 1348.31 238.8H1339.24V233.424H1354.21V252ZM1370.9 252.528C1367.87 252.528 1365.04 251.856 1362.4 250.56C1359.76 249.216 1357.74 247.44 1356.45 245.28L1361.15 241.392C1363.6 245.184 1367.2 247.296 1371.09 247.296C1375.26 247.296 1377.9 245.328 1377.9 242.208C1377.9 240.864 1377.38 239.904 1376.22 239.184C1375.46 238.656 1374.45 238.272 1372.77 237.84L1370.85 237.408C1370.03 237.168 1369.46 237.024 1369.17 236.976C1365.14 236.016 1363.31 235.248 1361.78 234.24C1359.52 232.704 1358.42 230.496 1358.42 227.472C1358.42 224.256 1359.76 221.568 1362.3 219.648C1364.46 217.92 1367.54 217.008 1370.85 217.008C1376.27 217.008 1381.17 219.504 1383.66 223.392L1379.15 227.28C1376.9 223.824 1374.26 222.24 1370.66 222.24C1366.96 222.24 1364.42 224.112 1364.42 226.848C1364.42 228.528 1365.18 229.536 1367.1 230.304C1367.92 230.64 1368.88 230.928 1371.71 231.552C1374.3 232.128 1376.13 232.608 1377.18 232.992C1378.29 233.376 1379.2 233.808 1379.97 234.288C1382.66 235.872 1383.95 238.272 1383.95 241.584C1383.95 244.896 1382.51 247.728 1379.87 249.792C1377.52 251.52 1374.35 252.528 1370.9 252.528ZM890.02 265.536H896.164V300H890.02V265.536ZM924.66 265.536H930.564V300H925.188L908.1 274.704V300H902.196V265.536H908.532L924.66 289.68V265.536ZM942.639 285.648V300H936.591V265.536H959.583V270.912H942.639V280.272H956.847V285.648H942.639ZM963.815 265.536H969.959V300H963.815V265.536ZM998.455 265.536H1004.36V300H998.983L981.895 274.704V300H975.991V265.536H982.327L998.455 289.68V265.536ZM1036.16 265.536V270.912H1025.07V300H1018.93V270.912H1007.84V265.536H1036.16ZM1039.67 265.536H1045.82V300H1039.67V265.536ZM1051.85 300V265.536H1075.18V270.912H1057.9V279.552H1072.44V284.928H1057.9V294.624H1075.18V300H1051.85ZM1103.05 286.656H1095.42V300H1089.28V265.536H1103.05C1110.97 265.536 1115.53 269.376 1115.53 276.096C1115.53 282.816 1110.93 286.656 1103.05 286.656ZM1095.42 270.816V281.376H1102.72C1107.09 281.376 1109.49 279.504 1109.49 276.096C1109.49 272.64 1107.13 270.816 1102.72 270.816H1095.42ZM1121.81 295.248C1119.07 292.032 1117.58 287.712 1117.58 282.768C1117.58 277.824 1119.07 273.504 1121.81 270.288C1124.74 266.88 1128.86 265.008 1133.62 265.008C1138.37 265.008 1142.5 266.88 1145.42 270.288C1148.16 273.504 1149.65 277.824 1149.65 282.768C1149.65 287.712 1148.16 292.032 1145.42 295.248C1142.5 298.656 1138.37 300.528 1133.62 300.528C1128.86 300.528 1124.74 298.656 1121.81 295.248ZM1133.62 295.104C1136.54 295.104 1138.94 293.952 1140.77 291.696C1142.59 289.44 1143.5 286.464 1143.5 282.768C1143.5 279.072 1142.59 276.096 1140.77 273.84C1138.94 271.584 1136.54 270.432 1133.62 270.432C1130.69 270.432 1128.29 271.584 1126.46 273.84C1124.64 276.096 1123.73 279.072 1123.73 282.768C1123.73 286.464 1124.64 289.44 1126.46 291.696C1128.29 293.952 1130.69 295.104 1133.62 295.104ZM1164.89 300.528C1161.86 300.528 1159.03 299.856 1156.39 298.56C1153.75 297.216 1151.74 295.44 1150.44 293.28L1155.14 289.392C1157.59 293.184 1161.19 295.296 1165.08 295.296C1169.26 295.296 1171.9 293.328 1171.9 290.208C1171.9 288.864 1171.37 287.904 1170.22 287.184C1169.45 286.656 1168.44 286.272 1166.76 285.84L1164.84 285.408C1164.02 285.168 1163.45 285.024 1163.16 284.976C1159.13 284.016 1157.3 283.248 1155.77 282.24C1153.51 280.704 1152.41 278.496 1152.41 275.472C1152.41 272.256 1153.75 269.568 1156.3 267.648C1158.46 265.92 1161.53 265.008 1164.84 265.008C1170.26 265.008 1175.16 267.504 1177.66 271.392L1173.14 275.28C1170.89 271.824 1168.25 270.24 1164.65 270.24C1160.95 270.24 1158.41 272.112 1158.41 274.848C1158.41 276.528 1159.18 277.536 1161.1 278.304C1161.91 278.64 1162.87 278.928 1165.7 279.552C1168.3 280.128 1170.12 280.608 1171.18 280.992C1172.28 281.376 1173.19 281.808 1173.96 282.288C1176.65 283.872 1177.94 286.272 1177.94 289.584C1177.94 292.896 1176.5 295.728 1173.86 297.792C1171.51 299.52 1168.34 300.528 1164.89 300.528ZM1193.19 300.528C1190.16 300.528 1187.33 299.856 1184.69 298.56C1182.05 297.216 1180.04 295.44 1178.74 293.28L1183.44 289.392C1185.89 293.184 1189.49 295.296 1193.38 295.296C1197.56 295.296 1200.2 293.328 1200.2 290.208C1200.2 288.864 1199.67 287.904 1198.52 287.184C1197.75 286.656 1196.74 286.272 1195.06 285.84L1193.14 285.408C1192.32 285.168 1191.75 285.024 1191.46 284.976C1187.43 284.016 1185.6 283.248 1184.07 282.24C1181.81 280.704 1180.71 278.496 1180.71 275.472C1180.71 272.256 1182.05 269.568 1184.6 267.648C1186.76 265.92 1189.83 265.008 1193.14 265.008C1198.56 265.008 1203.46 267.504 1205.96 271.392L1201.44 275.28C1199.19 271.824 1196.55 270.24 1192.95 270.24C1189.25 270.24 1186.71 272.112 1186.71 274.848C1186.71 276.528 1187.48 277.536 1189.4 278.304C1190.21 278.64 1191.17 278.928 1194 279.552C1196.6 280.128 1198.42 280.608 1199.48 280.992C1200.58 281.376 1201.49 281.808 1202.26 282.288C1204.95 283.872 1206.24 286.272 1206.24 289.584C1206.24 292.896 1204.8 295.728 1202.16 297.792C1199.81 299.52 1196.64 300.528 1193.19 300.528ZM1210.08 265.536H1216.22V300H1210.08V265.536ZM1236.8 300H1222.25V265.536H1235.93C1243.28 265.536 1247.26 268.704 1247.26 274.608C1247.26 278.208 1245.49 280.848 1242.37 282.048C1246.16 283.248 1248.37 286.368 1248.37 290.4C1248.37 296.352 1243.95 300 1236.8 300ZM1228.16 270.72V279.792H1235.36C1239.34 279.792 1241.45 278.256 1241.45 275.232C1241.45 272.304 1239.39 270.72 1235.36 270.72H1228.16ZM1236.46 284.976H1228.16V294.816H1236.46C1240.16 294.816 1242.46 292.944 1242.46 289.872C1242.46 286.848 1240.16 284.976 1236.46 284.976ZM1274.8 300H1252.43V265.536H1258.57V294.624H1274.8V300ZM1278.29 265.536H1284.44V300H1278.29V265.536ZM1290.47 265.536H1296.61V300H1290.47V265.536ZM1328.42 265.536V270.912H1317.33V300H1311.19V270.912H1300.1V265.536H1328.42ZM1331.93 300V265.536H1355.26V270.912H1337.98V279.552H1352.52V284.928H1337.98V294.624H1355.26V300H1331.93ZM1370.9 300.528C1367.87 300.528 1365.04 299.856 1362.4 298.56C1359.76 297.216 1357.74 295.44 1356.45 293.28L1361.15 289.392C1363.6 293.184 1367.2 295.296 1371.09 295.296C1375.26 295.296 1377.9 293.328 1377.9 290.208C1377.9 288.864 1377.38 287.904 1376.22 287.184C1375.46 286.656 1374.45 286.272 1372.77 285.84L1370.85 285.408C1370.03 285.168 1369.46 285.024 1369.17 284.976C1365.14 284.016 1363.31 283.248 1361.78 282.24C1359.52 280.704 1358.42 278.496 1358.42 275.472C1358.42 272.256 1359.76 269.568 1362.3 267.648C1364.46 265.92 1367.54 265.008 1370.85 265.008C1376.27 265.008 1381.17 267.504 1383.66 271.392L1379.15 275.28C1376.9 271.824 1374.26 270.24 1370.66 270.24C1366.96 270.24 1364.42 272.112 1364.42 274.848C1364.42 276.528 1365.18 277.536 1367.1 278.304C1367.92 278.64 1368.88 278.928 1371.71 279.552C1374.3 280.128 1376.13 280.608 1377.18 280.992C1378.29 281.376 1379.2 281.808 1379.97 282.288C1382.66 283.872 1383.95 286.272 1383.95 289.584C1383.95 292.896 1382.51 295.728 1379.87 297.792C1377.52 299.52 1374.35 300.528 1370.9 300.528Z" fill="black"/>
<path d="M223.691 238.361C220.108 238.38 218.454 242.261 215.349 243.243C208.895 247.461 202.721 252.201 195.722 255.365C193.649 256.302 191.436 258.177 189.282 255.96C186.839 253.451 188.038 250.522 189.178 247.817C190.134 245.547 191.251 243.355 192.297 241.124C203.789 225.125 216.751 210.333 225.958 192.459C229.82 184.956 227.738 179.517 220.032 178.184C212.857 176.944 205.668 176.871 198.422 177.74C193.194 178.365 188.061 180.147 182.725 179.532C180.259 179.249 177.168 178.248 179.209 175.045C183.04 169.04 178.547 169.582 175.762 169.45C164.63 168.933 153.467 168.44 142.61 172.092C136.291 171.281 130.428 174.054 124.339 175.006C119.972 175.69 115.614 176.705 111.202 177.237C100.49 178.834 89.9122 182.256 78.7715 179.341C89.6643 176.92 100.557 174.503 111.446 172.082C122.041 171.764 132.249 168.816 142.578 166.687C152.344 163.997 162.336 163.909 172.251 164.554C177.672 164.905 185.14 162.708 185.911 172.985C186.078 175.197 188.48 174.054 189.922 173.795C199.016 172.179 208.174 171.745 217.359 172.228C231.226 172.956 236.031 182.119 229.446 195.423C223.222 208.004 214.209 218.364 205.849 229.226C203.726 231.985 201.283 234.465 200.341 238.068C200.044 238.263 199.747 238.458 199.449 238.653C199.976 239.449 200.269 238.697 200.634 238.444C201.558 239.2 202.487 239.952 203.42 240.709C197.538 239.747 194.492 243.453 192.351 248.632C191.968 249.555 191.247 250.531 192.049 251.503C192.856 252.475 193.879 251.903 194.717 251.474C200.103 248.696 205.7 246.284 209.936 241.456C234.678 224.456 258.416 205.968 281.188 185.981C285.533 182.168 288.827 177.027 294.051 174.293C295.898 173.327 298.134 171.594 297.3 168.908C296.439 166.14 293.713 166.638 291.667 166.892C280.986 168.205 270.323 169.66 259.664 171.144C257.798 171.403 255.982 172.101 252.994 171.013C264.392 167.014 275.077 165.076 285.808 163.348C290.251 162.63 294.695 161.913 299.152 161.263C301.496 160.921 304.15 160.482 305.561 163.031C306.922 165.491 304.912 167.332 303.646 169.187C296.336 179.898 286.497 187.641 276.871 195.54C259.263 209.986 241.43 224.1 223.691 238.356V238.361Z" fill="black"/>
<defs>
<clipPath id="clip0_6889_2937">
<rect width="100.19" height="100.19" fill="white" transform="translate(1284.81 46.81)"/>
</clipPath>
</defs>
</svg>
