<svg width="1440" height="205" viewBox="0 0 1440 205" fill="none" xmlns="http://www.w3.org/2000/svg">
<path d="M98.08 103.262V114.014H75.904V172.19H63.616V114.014H41.44V103.262H98.08ZM105.214 162.686C99.742 156.254 96.766 147.614 96.766 137.726C96.766 127.838 99.742 119.198 105.214 112.766C111.07 105.95 119.326 102.206 128.83 102.206C138.334 102.206 146.59 105.95 152.446 112.766C157.918 119.198 160.894 127.838 160.894 137.726C160.894 147.614 157.918 156.254 152.446 162.686C146.59 169.502 138.334 173.246 128.83 173.246C119.326 173.246 111.07 169.502 105.214 162.686ZM128.83 162.398C134.686 162.398 139.486 160.094 143.134 155.582C146.782 151.07 148.606 145.118 148.606 137.726C148.606 130.334 146.782 124.382 143.134 119.87C139.486 115.358 134.686 113.054 128.83 113.054C122.974 113.054 118.174 115.358 114.526 119.87C110.878 124.382 109.054 130.334 109.054 137.726C109.054 145.118 110.878 151.07 114.526 155.582C118.174 160.094 122.974 162.398 128.83 162.398ZM197.035 145.502H181.771V172.19H169.483V103.262H197.035C212.875 103.262 221.995 110.942 221.995 124.382C221.995 137.822 212.779 145.502 197.035 145.502ZM181.771 113.822V134.942H196.363C205.099 134.942 209.899 131.198 209.899 124.382C209.899 117.47 205.195 113.822 196.363 113.822H181.771ZM275.553 145.502H260.289V172.19H248.001V103.262H275.553C291.393 103.262 300.513 110.942 300.513 124.382C300.513 137.822 291.297 145.502 275.553 145.502ZM260.289 113.822V134.942H274.881C283.617 134.942 288.417 131.198 288.417 124.382C288.417 117.47 283.713 113.822 274.881 113.822H260.289ZM307.697 103.262H319.985V172.19H307.697V103.262ZM345.393 121.022C342.321 125.342 340.785 131.198 340.785 137.726C340.785 144.254 342.321 150.11 345.393 154.43C348.849 159.518 354.129 162.398 360.177 162.398C368.145 162.398 374.001 157.598 376.209 149.438L387.729 153.374C383.505 166.046 373.617 173.246 360.177 173.246C350.865 173.246 342.513 169.406 336.753 162.494C331.377 156.062 328.497 147.422 328.497 137.726C328.497 128.03 331.377 119.39 336.753 112.958C342.513 106.046 350.865 102.206 360.177 102.206C373.617 102.206 383.505 109.406 387.729 122.078L376.209 126.014C374.001 117.854 368.145 113.054 360.177 113.054C354.129 113.054 348.849 115.934 345.393 121.022ZM395.12 103.262H407.408V135.902L436.017 103.262H450.513L423.729 133.118L452.049 172.19H437.553L415.761 142.142L407.408 151.358V172.19H395.12V103.262ZM478.205 173.246C472.157 173.246 466.493 171.902 461.213 169.31C455.933 166.622 451.901 163.07 449.309 158.75L458.717 150.974C463.613 158.558 470.813 162.782 478.589 162.782C486.941 162.782 492.221 158.846 492.221 152.606C492.221 149.918 491.165 147.998 488.861 146.558C487.325 145.502 485.309 144.734 481.949 143.87L478.109 143.006C476.477 142.526 475.325 142.238 474.749 142.142C466.685 140.222 463.037 138.686 459.965 136.67C455.453 133.598 453.245 129.182 453.245 123.134C453.245 116.702 455.933 111.326 461.021 107.486C465.341 104.03 471.485 102.206 478.109 102.206C488.957 102.206 498.749 107.198 503.741 114.974L494.717 122.75C490.205 115.838 484.925 112.67 477.725 112.67C470.333 112.67 465.245 116.414 465.245 121.886C465.245 125.246 466.781 127.262 470.621 128.798C472.253 129.47 474.173 130.046 479.837 131.294C485.021 132.446 488.669 133.406 490.781 134.174C492.989 134.942 494.813 135.806 496.349 136.766C501.725 139.934 504.317 144.734 504.317 151.358C504.317 157.982 501.437 163.646 496.157 167.774C491.453 171.23 485.117 173.246 478.205 173.246Z" fill="black"/>
<path d="M1299.81 130.19C1299.81 102.576 1277.42 80.1899 1249.81 80.1899C1222.2 80.1899 1199.81 102.576 1199.81 130.19C1199.81 157.804 1222.2 180.19 1249.81 180.19C1277.42 180.19 1299.81 157.804 1299.81 130.19Z" stroke="black" stroke-width="2" stroke-miterlimit="10"/>
<g clip-path="url(#clip0_4889_3149)">
<path d="M1399 179.19L1300.52 80.71" stroke="black" stroke-width="2" stroke-miterlimit="10"/>
<path d="M1399 80.71V179.19H1300.52" stroke="black" stroke-width="2" stroke-miterlimit="10"/>
</g>
<defs>
<clipPath id="clip0_4889_3149">
<rect width="100.19" height="100.19" fill="white" transform="translate(1299.81 80)"/>
</clipPath>
</defs>
</svg>
