<svg width="1440" height="353" viewBox="0 0 1440 353" fill="none" xmlns="http://www.w3.org/2000/svg">
<path d="M143.84 139H132.608V131.896C129.632 136.888 122.528 140.056 114.08 140.056C104.864 140.056 96.8 136.216 91.04 129.304C85.76 123.064 82.976 114.424 82.976 104.824C82.976 95.128 85.952 86.296 91.328 79.768C97.184 72.856 105.536 69.016 114.848 69.016C128.384 69.016 138.368 76.12 142.688 88.792L130.976 92.728C128.96 84.568 123.104 79.864 114.944 79.864C109.088 79.864 104.384 82.168 100.736 86.776C97.088 91.288 95.264 97.24 95.264 104.632C95.264 112.024 97.088 118.072 100.736 122.68C104.384 127.192 109.184 129.496 115.136 129.496C124.832 129.496 131.648 122.68 132.032 112.6H113.888V101.848H143.84V139ZM155.318 139V70.072H201.974V80.824H167.414V98.104H196.502V108.856H167.414V128.248H201.974V139H155.318ZM262.91 70.072V80.824H240.734V139H228.446V80.824H206.27V70.072H262.91ZM288.751 70.072H301.039V139H288.751V70.072ZM358.031 70.072H369.839V139H359.087L324.911 88.408V139H313.103V70.072H325.775L358.031 118.36V70.072ZM452.266 70.072V80.824H430.09V139H417.802V80.824H395.626V70.072H452.266ZM459.4 129.496C453.928 123.064 450.952 114.424 450.952 104.536C450.952 94.648 453.928 86.008 459.4 79.576C465.256 72.76 473.512 69.016 483.016 69.016C492.52 69.016 500.776 72.76 506.632 79.576C512.104 86.008 515.08 94.648 515.08 104.536C515.08 114.424 512.104 123.064 506.632 129.496C500.776 136.312 492.52 140.056 483.016 140.056C473.512 140.056 465.256 136.312 459.4 129.496ZM483.016 129.208C488.872 129.208 493.672 126.904 497.32 122.392C500.968 117.88 502.792 111.928 502.792 104.536C502.792 97.144 500.968 91.192 497.32 86.68C493.672 82.168 488.872 79.864 483.016 79.864C477.16 79.864 472.36 82.168 468.712 86.68C465.064 91.192 463.24 97.144 463.24 104.536C463.24 111.928 465.064 117.88 468.712 122.392C472.36 126.904 477.16 129.208 483.016 129.208ZM550.357 139.96C532.981 139.96 522.613 129.592 522.613 111.64V70.072H534.901V111.256C534.901 122.872 540.373 129.112 550.357 129.112C560.437 129.112 565.909 122.872 565.909 111.256V70.072H578.197V111.64C578.197 129.688 567.925 139.96 550.357 139.96ZM602.616 87.832C599.544 92.152 598.008 98.008 598.008 104.536C598.008 111.064 599.544 116.92 602.616 121.24C606.072 126.328 611.352 129.208 617.4 129.208C625.368 129.208 631.224 124.408 633.432 116.248L644.952 120.184C640.728 132.856 630.84 140.056 617.4 140.056C608.088 140.056 599.736 136.216 593.976 129.304C588.6 122.872 585.72 114.232 585.72 104.536C585.72 94.84 588.6 86.2 593.976 79.768C599.736 72.856 608.088 69.016 617.4 69.016C630.84 69.016 640.728 76.216 644.952 88.888L633.432 92.824C631.224 84.664 625.368 79.864 617.4 79.864C611.352 79.864 606.072 82.744 602.616 87.832ZM697.655 98.104V70.072H709.943V139H697.655V108.856H664.631V139H652.343V70.072H664.631V98.104H697.655Z" fill="black"/>
<path d="M1299.81 97C1299.81 69.3858 1277.42 47 1249.81 47C1222.2 47 1199.81 69.3858 1199.81 97C1199.81 124.614 1222.2 147 1249.81 147C1277.42 147 1299.81 124.614 1299.81 97Z" stroke="black" stroke-width="2" stroke-miterlimit="10"/>
<g clip-path="url(#clip0_6924_2316)">
<path d="M1399 146L1300.52 47.52" stroke="black" stroke-width="2" stroke-miterlimit="10"/>
<path d="M1399 47.52V146H1300.52" stroke="black" stroke-width="2" stroke-miterlimit="10"/>
</g>
<path d="M1005.7 231.552V217.536H1011.85V252H1005.7V236.928H989.19V252H983.046V217.536H989.19V231.552H1005.7ZM1020.36 247.248C1017.62 244.032 1016.13 239.712 1016.13 234.768C1016.13 229.824 1017.62 225.504 1020.36 222.288C1023.29 218.88 1027.41 217.008 1032.17 217.008C1036.92 217.008 1041.05 218.88 1043.97 222.288C1046.71 225.504 1048.2 229.824 1048.2 234.768C1048.2 239.712 1046.71 244.032 1043.97 247.248C1041.05 250.656 1036.92 252.528 1032.17 252.528C1027.41 252.528 1023.29 250.656 1020.36 247.248ZM1032.17 247.104C1035.09 247.104 1037.49 245.952 1039.32 243.696C1041.14 241.44 1042.05 238.464 1042.05 234.768C1042.05 231.072 1041.14 228.096 1039.32 225.84C1037.49 223.584 1035.09 222.432 1032.17 222.432C1029.24 222.432 1026.84 223.584 1025.01 225.84C1023.19 228.096 1022.28 231.072 1022.28 234.768C1022.28 238.464 1023.19 241.44 1025.01 243.696C1026.84 245.952 1029.24 247.104 1032.17 247.104ZM1061.35 242.832L1067.74 217.536H1073.16L1079.59 242.832L1086.12 217.536H1092.27L1082.95 252H1076.91L1070.38 227.712L1063.9 252H1057.85L1048.49 217.536H1054.83L1061.35 242.832ZM1130.7 217.536V222.912H1119.61V252H1113.47V222.912H1102.38V217.536H1130.7ZM1134.27 247.248C1131.53 244.032 1130.04 239.712 1130.04 234.768C1130.04 229.824 1131.53 225.504 1134.27 222.288C1137.19 218.88 1141.32 217.008 1146.07 217.008C1150.83 217.008 1154.95 218.88 1157.88 222.288C1160.62 225.504 1162.11 229.824 1162.11 234.768C1162.11 239.712 1160.62 244.032 1157.88 247.248C1154.95 250.656 1150.83 252.528 1146.07 252.528C1141.32 252.528 1137.19 250.656 1134.27 247.248ZM1146.07 247.104C1149 247.104 1151.4 245.952 1153.23 243.696C1155.05 241.44 1155.96 238.464 1155.96 234.768C1155.96 231.072 1155.05 228.096 1153.23 225.84C1151.4 223.584 1149 222.432 1146.07 222.432C1143.15 222.432 1140.75 223.584 1138.92 225.84C1137.1 228.096 1136.19 231.072 1136.19 234.768C1136.19 238.464 1137.1 241.44 1138.92 243.696C1140.75 245.952 1143.15 247.104 1146.07 247.104ZM1187.52 238.656H1181.96V252H1175.81V217.536H1189.59C1197.51 217.536 1202.07 221.376 1202.07 228.096C1202.07 233.424 1199.24 236.976 1194.05 238.176L1202.93 252H1195.92L1187.52 238.656ZM1181.96 222.816V233.376H1189.25C1193.62 233.376 1196.02 231.504 1196.02 228.096C1196.02 224.64 1193.67 222.816 1189.25 222.816H1181.96ZM1206.69 252V217.536H1230.02V222.912H1212.74V231.552H1227.28V236.928H1212.74V246.624H1230.02V252H1206.69ZM1231.93 252L1244.98 217.536H1251.94L1265 252H1258.81L1255.83 244.128H1240.95L1238.02 252H1231.93ZM1253.81 238.752L1248.34 224.352L1242.97 238.752H1253.81ZM1273.01 226.416C1271.48 228.576 1270.71 231.504 1270.71 234.768C1270.71 238.032 1271.48 240.96 1273.01 243.12C1274.74 245.664 1277.38 247.104 1280.4 247.104C1284.39 247.104 1287.32 244.704 1288.42 240.624L1294.18 242.592C1292.07 248.928 1287.12 252.528 1280.4 252.528C1275.75 252.528 1271.57 250.608 1268.69 247.152C1266 243.936 1264.56 239.616 1264.56 234.768C1264.56 229.92 1266 225.6 1268.69 222.384C1271.57 218.928 1275.75 217.008 1280.4 217.008C1287.12 217.008 1292.07 220.608 1294.18 226.944L1288.42 228.912C1287.32 224.832 1284.39 222.432 1280.4 222.432C1277.38 222.432 1274.74 223.872 1273.01 226.416ZM1320.53 231.552V217.536H1326.68V252H1320.53V236.928H1304.02V252H1297.88V217.536H1304.02V231.552H1320.53ZM1355.49 252.48C1346.81 252.48 1341.62 247.296 1341.62 238.32V217.536H1347.77V238.128C1347.77 243.936 1350.5 247.056 1355.49 247.056C1360.53 247.056 1363.27 243.936 1363.27 238.128V217.536H1369.41V238.32C1369.41 247.344 1364.28 252.48 1355.49 252.48ZM1385.9 252.528C1382.87 252.528 1380.04 251.856 1377.4 250.56C1374.76 249.216 1372.74 247.44 1371.45 245.28L1376.15 241.392C1378.6 245.184 1382.2 247.296 1386.09 247.296C1390.26 247.296 1392.9 245.328 1392.9 242.208C1392.9 240.864 1392.38 239.904 1391.22 239.184C1390.46 238.656 1389.45 238.272 1387.77 237.84L1385.85 237.408C1385.03 237.168 1384.46 237.024 1384.17 236.976C1380.14 236.016 1378.31 235.248 1376.78 234.24C1374.52 232.704 1373.42 230.496 1373.42 227.472C1373.42 224.256 1374.76 221.568 1377.3 219.648C1379.46 217.92 1382.54 217.008 1385.85 217.008C1391.27 217.008 1396.17 219.504 1398.66 223.392L1394.15 227.28C1391.9 223.824 1389.26 222.24 1385.66 222.24C1381.96 222.24 1379.42 224.112 1379.42 226.848C1379.42 228.528 1380.18 229.536 1382.1 230.304C1382.92 230.64 1383.88 230.928 1386.71 231.552C1389.3 232.128 1391.13 232.608 1392.18 232.992C1393.29 233.376 1394.2 233.808 1394.97 234.288C1397.66 235.872 1398.95 238.272 1398.95 241.584C1398.95 244.896 1397.51 247.728 1394.87 249.792C1392.52 251.52 1389.35 252.528 1385.9 252.528Z" fill="black"/>
<path d="M225.74 238.361C222.117 238.38 220.445 242.261 217.305 243.243C210.779 247.461 204.536 252.201 197.459 255.365C195.363 256.302 193.125 258.177 190.947 255.96C188.477 253.451 189.689 250.522 190.842 247.817C191.808 245.547 192.938 243.355 193.996 241.124C205.616 225.125 218.722 210.333 228.032 192.459C231.937 184.956 229.832 179.517 222.04 178.184C214.785 176.944 207.516 176.871 200.189 177.74C194.902 178.365 189.712 180.147 184.316 179.532C181.824 179.249 178.698 178.248 180.762 175.045C184.635 169.04 180.092 169.582 177.276 169.45C166.02 168.933 154.732 168.44 143.754 172.092C137.365 171.281 131.437 174.054 125.28 175.006C120.864 175.69 116.458 176.705 111.996 177.237C101.164 178.834 90.4691 182.256 79.2041 179.341C90.2184 176.92 101.233 174.503 112.243 172.082C122.956 171.764 133.278 168.816 143.722 166.687C153.598 163.997 163.7 163.909 173.726 164.554C179.208 164.905 186.759 162.708 187.538 172.985C187.707 175.197 190.136 174.054 191.594 173.795C200.79 172.179 210.05 171.745 219.337 172.228C233.359 172.956 238.217 182.119 231.559 195.423C225.266 208.004 216.152 218.364 207.699 229.226C205.552 231.985 203.082 234.465 202.13 238.068C201.829 238.263 201.528 238.458 201.228 238.653C201.761 239.449 202.057 238.697 202.426 238.444C203.36 239.2 204.299 239.952 205.242 240.709C199.295 239.747 196.215 243.453 194.05 248.632C193.663 249.555 192.934 250.531 193.745 251.503C194.561 252.475 195.595 251.903 196.443 251.474C201.888 248.696 207.548 246.284 211.832 241.456C236.85 224.456 260.852 205.968 283.878 185.981C288.271 182.168 291.603 177.027 296.884 174.293C298.753 173.327 301.013 171.594 300.17 168.908C299.299 166.14 296.542 166.638 294.473 166.892C283.673 168.205 272.891 169.66 262.114 171.144C260.227 171.403 258.391 172.101 255.37 171.013C266.894 167.014 277.699 165.076 288.549 163.348C293.043 162.63 297.536 161.913 302.043 161.263C304.412 160.921 307.096 160.482 308.523 163.031C309.899 165.491 307.867 167.332 306.586 169.187C299.195 179.898 289.247 187.641 279.513 195.54C261.708 209.986 243.676 224.1 225.74 238.356V238.361Z" fill="black"/>
<defs>
<clipPath id="clip0_6924_2316">
<rect width="100.19" height="100.19" fill="white" transform="translate(1299.81 46.81)"/>
</clipPath>
</defs>
</svg>
