<svg width="1440" height="353" viewBox="0 0 1440 353" fill="none" xmlns="http://www.w3.org/2000/svg">
<path d="M86.528 70.072H98.816V139H86.528V70.072ZM155.809 70.072H167.617V139H156.865L122.689 88.408V139H110.881V70.072H123.553L155.809 118.36V70.072ZM201.559 140.056C195.511 140.056 189.847 138.712 184.567 136.12C179.287 133.432 175.255 129.88 172.663 125.56L182.071 117.784C186.967 125.368 194.167 129.592 201.943 129.592C210.295 129.592 215.575 125.656 215.575 119.416C215.575 116.728 214.519 114.808 212.215 113.368C210.679 112.312 208.663 111.544 205.303 110.68L201.463 109.816C199.831 109.336 198.679 109.048 198.103 108.952C190.039 107.032 186.391 105.496 183.319 103.48C178.807 100.408 176.599 95.992 176.599 89.944C176.599 83.512 179.287 78.136 184.375 74.296C188.695 70.84 194.839 69.016 201.463 69.016C212.311 69.016 222.103 74.008 227.095 81.784L218.071 89.56C213.559 82.648 208.279 79.48 201.079 79.48C193.687 79.48 188.599 83.224 188.599 88.696C188.599 92.056 190.135 94.072 193.975 95.608C195.607 96.28 197.527 96.856 203.191 98.104C208.375 99.256 212.023 100.216 214.135 100.984C216.343 101.752 218.167 102.616 219.703 103.576C225.079 106.744 227.671 111.544 227.671 118.168C227.671 124.792 224.791 130.456 219.511 134.584C214.807 138.04 208.471 140.056 201.559 140.056ZM235.335 70.072H247.623V139H235.335V70.072ZM282.728 139H259.688V70.072H282.728C293.192 70.072 301.928 73.24 307.976 79.384C314.12 85.432 317.384 94.168 317.384 104.536C317.384 114.904 314.12 123.64 307.976 129.688C301.928 135.832 293.192 139 282.728 139ZM271.688 80.632V128.44H282.728C296.648 128.44 305.288 119.224 305.288 104.536C305.288 89.656 296.744 80.632 282.632 80.632H271.688ZM326.04 139V70.072H372.696V80.824H338.136V98.104H367.224V108.856H338.136V128.248H372.696V139H326.04ZM452.454 70.072V80.824H430.278V139H417.99V80.824H395.814V70.072H452.454ZM504.785 98.104V70.072H517.073V139H504.785V108.856H471.761V139H459.473V70.072H471.761V98.104H504.785ZM529.2 139V70.072H575.856V80.824H541.296V98.104H570.384V108.856H541.296V128.248H575.856V139H529.2ZM617.406 87.832C614.334 92.152 612.798 98.008 612.798 104.536C612.798 111.064 614.334 116.92 617.406 121.24C620.862 126.328 626.142 129.208 632.19 129.208C640.158 129.208 646.014 124.408 648.222 116.248L659.742 120.184C655.518 132.856 645.63 140.056 632.19 140.056C622.878 140.056 614.526 136.216 608.766 129.304C603.39 122.872 600.51 114.232 600.51 104.536C600.51 94.84 603.39 86.2 608.766 79.768C614.526 72.856 622.878 69.016 632.19 69.016C645.63 69.016 655.518 76.216 659.742 88.888L648.222 92.824C646.014 84.664 640.158 79.864 632.19 79.864C626.142 79.864 620.862 82.744 617.406 87.832ZM690.557 112.312H679.421V139H667.133V70.072H694.685C710.525 70.072 719.645 77.752 719.645 91.192C719.645 101.848 713.981 108.952 703.613 111.352L721.373 139H707.357L690.557 112.312ZM679.421 80.632V101.752H694.013C702.749 101.752 707.549 98.008 707.549 91.192C707.549 84.28 702.845 80.632 694.013 80.632H679.421ZM722.855 139L748.967 70.072H762.887L788.999 139H776.615L770.663 123.256H740.903L735.047 139H722.855ZM766.631 112.504L755.687 83.704L744.935 112.504H766.631ZM807.621 110.296V139H795.525V70.072H841.51V80.824H807.621V99.544H836.037V110.296H807.621ZM901.524 70.072V80.824H879.348V139H867.06V80.824H844.884V70.072H901.524Z" fill="black"/>
<path d="M1299.81 97C1299.81 69.3858 1277.42 47 1249.81 47C1222.2 47 1199.81 69.3858 1199.81 97C1199.81 124.614 1222.2 147 1249.81 147C1277.42 147 1299.81 124.614 1299.81 97Z" stroke="black" stroke-width="2" stroke-miterlimit="10"/>
<g clip-path="url(#clip0_6924_2316)">
<path d="M1399 146L1300.52 47.52" stroke="black" stroke-width="2" stroke-miterlimit="10"/>
<path d="M1399 47.52V146H1300.52" stroke="black" stroke-width="2" stroke-miterlimit="10"/>
</g>
<path d="M776.517 217.536V222.912H765.429V252H759.285V222.912H748.197V217.536H776.517ZM802.683 231.552V217.536H808.827V252H802.683V236.928H786.171V252H780.027V217.536H786.171V231.552H802.683ZM814.891 252V217.536H838.219V222.912H820.939V231.552H835.483V236.928H820.939V246.624H838.219V252H814.891ZM866.865 252H852.321V217.536H866.001C873.345 217.536 877.329 220.704 877.329 226.608C877.329 230.208 875.553 232.848 872.433 234.048C876.225 235.248 878.433 238.368 878.433 242.4C878.433 248.352 874.017 252 866.865 252ZM858.225 222.72V231.792H865.425C869.409 231.792 871.521 230.256 871.521 227.232C871.521 224.304 869.457 222.72 865.425 222.72H858.225ZM866.529 236.976H858.225V246.816H866.529C870.225 246.816 872.529 244.944 872.529 241.872C872.529 238.848 870.225 236.976 866.529 236.976ZM882.498 252V217.536H905.826V222.912H888.546V231.552H903.09V236.928H888.546V246.624H905.826V252H882.498ZM907.734 252L920.79 217.536H927.75L940.806 252H934.614L931.638 244.128H916.758L913.83 252H907.734ZM929.622 238.752L924.15 224.352L918.774 238.752H929.622ZM955.725 252.48C947.037 252.48 941.853 247.296 941.853 238.32V217.536H947.997V238.128C947.997 243.936 950.733 247.056 955.725 247.056C960.765 247.056 963.501 243.936 963.501 238.128V217.536H969.645V238.32C969.645 247.344 964.509 252.48 955.725 252.48ZM1000.96 217.536V222.912H989.871V252H983.727V222.912H972.639V217.536H1000.96ZM1007.88 217.536L1016.8 232.176L1025.73 217.536H1032.26L1019.83 237.792V252H1013.68V237.792L1001.2 217.536H1007.88ZM1046.93 247.248C1044.19 244.032 1042.7 239.712 1042.7 234.768C1042.7 229.824 1044.19 225.504 1046.93 222.288C1049.85 218.88 1053.98 217.008 1058.73 217.008C1063.49 217.008 1067.61 218.88 1070.54 222.288C1073.28 225.504 1074.77 229.824 1074.77 234.768C1074.77 239.712 1073.28 244.032 1070.54 247.248C1067.61 250.656 1063.49 252.528 1058.73 252.528C1053.98 252.528 1049.85 250.656 1046.93 247.248ZM1058.73 247.104C1061.66 247.104 1064.06 245.952 1065.89 243.696C1067.71 241.44 1068.62 238.464 1068.62 234.768C1068.62 231.072 1067.71 228.096 1065.89 225.84C1064.06 223.584 1061.66 222.432 1058.73 222.432C1055.81 222.432 1053.41 223.584 1051.58 225.84C1049.76 228.096 1048.85 231.072 1048.85 234.768C1048.85 238.464 1049.76 241.44 1051.58 243.696C1053.41 245.952 1055.81 247.104 1058.73 247.104ZM1085.11 237.648V252H1079.06V217.536H1102.05V222.912H1085.11V232.272H1099.32V237.648H1085.11ZM1129.47 238.656H1121.84V252H1115.69V217.536H1129.47C1137.39 217.536 1141.95 221.376 1141.95 228.096C1141.95 234.816 1137.34 238.656 1129.47 238.656ZM1121.84 222.816V233.376H1129.13C1133.5 233.376 1135.9 231.504 1135.9 228.096C1135.9 224.64 1133.55 222.816 1129.13 222.816H1121.84ZM1157.25 238.656H1151.69V252H1145.54V217.536H1159.32C1167.24 217.536 1171.8 221.376 1171.8 228.096C1171.8 233.424 1168.97 236.976 1163.78 238.176L1172.66 252H1165.65L1157.25 238.656ZM1151.69 222.816V233.376H1158.98C1163.35 233.376 1165.75 231.504 1165.75 228.096C1165.75 224.64 1163.4 222.816 1158.98 222.816H1151.69ZM1176.42 252V217.536H1199.75V222.912H1182.47V231.552H1197.01V236.928H1182.47V246.624H1199.75V252H1176.42ZM1210.41 226.416C1208.87 228.576 1208.11 231.504 1208.11 234.768C1208.11 238.032 1208.87 240.96 1210.41 243.12C1212.14 245.664 1214.78 247.104 1217.8 247.104C1221.79 247.104 1224.71 244.704 1225.82 240.624L1231.58 242.592C1229.47 248.928 1224.52 252.528 1217.8 252.528C1213.15 252.528 1208.97 250.608 1206.09 247.152C1203.4 243.936 1201.96 239.616 1201.96 234.768C1201.96 229.92 1203.4 225.6 1206.09 222.384C1208.97 218.928 1213.15 217.008 1217.8 217.008C1224.52 217.008 1229.47 220.608 1231.58 226.944L1225.82 228.912C1224.71 224.832 1221.79 222.432 1217.8 222.432C1214.78 222.432 1212.14 223.872 1210.41 226.416ZM1235.27 217.536H1241.42V252H1235.27V217.536ZM1258.39 252.528C1255.37 252.528 1252.54 251.856 1249.9 250.56C1247.26 249.216 1245.24 247.44 1243.95 245.28L1248.65 241.392C1251.1 245.184 1254.7 247.296 1258.59 247.296C1262.76 247.296 1265.4 245.328 1265.4 242.208C1265.4 240.864 1264.87 239.904 1263.72 239.184C1262.95 238.656 1261.95 238.272 1260.27 237.84L1258.35 237.408C1257.53 237.168 1256.95 237.024 1256.67 236.976C1252.63 236.016 1250.81 235.248 1249.27 234.24C1247.02 232.704 1245.91 230.496 1245.91 227.472C1245.91 224.256 1247.26 221.568 1249.8 219.648C1251.96 217.92 1255.03 217.008 1258.35 217.008C1263.77 217.008 1268.67 219.504 1271.16 223.392L1266.65 227.28C1264.39 223.824 1261.75 222.24 1258.15 222.24C1254.46 222.24 1251.91 224.112 1251.91 226.848C1251.91 228.528 1252.68 229.536 1254.6 230.304C1255.42 230.64 1256.38 230.928 1259.21 231.552C1261.8 232.128 1263.63 232.608 1264.68 232.992C1265.79 233.376 1266.7 233.808 1267.47 234.288C1270.15 235.872 1271.45 238.272 1271.45 241.584C1271.45 244.896 1270.01 247.728 1267.37 249.792C1265.02 251.52 1261.85 252.528 1258.39 252.528ZM1275.28 217.536H1281.43V252H1275.28V217.536ZM1289.91 247.248C1287.17 244.032 1285.68 239.712 1285.68 234.768C1285.68 229.824 1287.17 225.504 1289.91 222.288C1292.83 218.88 1296.96 217.008 1301.71 217.008C1306.47 217.008 1310.59 218.88 1313.52 222.288C1316.26 225.504 1317.75 229.824 1317.75 234.768C1317.75 239.712 1316.26 244.032 1313.52 247.248C1310.59 250.656 1306.47 252.528 1301.71 252.528C1296.96 252.528 1292.83 250.656 1289.91 247.248ZM1301.71 247.104C1304.64 247.104 1307.04 245.952 1308.87 243.696C1310.69 241.44 1311.6 238.464 1311.6 234.768C1311.6 231.072 1310.69 228.096 1308.87 225.84C1307.04 223.584 1304.64 222.432 1301.71 222.432C1298.79 222.432 1296.39 223.584 1294.56 225.84C1292.74 228.096 1291.83 231.072 1291.83 234.768C1291.83 238.464 1292.74 241.44 1294.56 243.696C1296.39 245.952 1298.79 247.104 1301.71 247.104ZM1344.5 217.536H1350.41V252H1345.03L1327.94 226.704V252H1322.04V217.536H1328.38L1344.5 241.68V217.536ZM1398.1 240.336H1355.09V235.68H1398.1V240.336ZM665.968 285.648V300H659.92V265.536H682.912V270.912H665.968V280.272H680.176V285.648H665.968ZM698.855 286.656H693.287V300H687.143V265.536H700.919C708.839 265.536 713.399 269.376 713.399 276.096C713.399 281.424 710.567 284.976 705.383 286.176L714.263 300H707.255L698.855 286.656ZM693.287 270.816V281.376H700.583C704.951 281.376 707.351 279.504 707.351 276.096C707.351 272.64 704.999 270.816 700.583 270.816H693.287ZM720.471 295.248C717.735 292.032 716.247 287.712 716.247 282.768C716.247 277.824 717.735 273.504 720.471 270.288C723.399 266.88 727.527 265.008 732.279 265.008C737.031 265.008 741.159 266.88 744.087 270.288C746.823 273.504 748.311 277.824 748.311 282.768C748.311 287.712 746.823 292.032 744.087 295.248C741.159 298.656 737.031 300.528 732.279 300.528C727.527 300.528 723.399 298.656 720.471 295.248ZM732.279 295.104C735.207 295.104 737.607 293.952 739.431 291.696C741.255 289.44 742.167 286.464 742.167 282.768C742.167 279.072 741.255 276.096 739.431 273.84C737.607 271.584 735.207 270.432 732.279 270.432C729.351 270.432 726.951 271.584 725.127 273.84C723.303 276.096 722.391 279.072 722.391 282.768C722.391 286.464 723.303 289.44 725.127 291.696C726.951 293.952 729.351 295.104 732.279 295.104ZM781.357 273.36L772.333 300H767.341L758.317 273.36V300H752.605V265.536H761.053L769.933 291.936L778.813 265.536H787.069V300H781.357V273.36ZM809.177 274.416C807.641 276.576 806.873 279.504 806.873 282.768C806.873 286.032 807.641 288.96 809.177 291.12C810.905 293.664 813.545 295.104 816.569 295.104C820.553 295.104 823.481 292.704 824.585 288.624L830.345 290.592C828.233 296.928 823.289 300.528 816.569 300.528C811.913 300.528 807.737 298.608 804.857 295.152C802.169 291.936 800.729 287.616 800.729 282.768C800.729 277.92 802.169 273.6 804.857 270.384C807.737 266.928 811.913 265.008 816.569 265.008C823.289 265.008 828.233 268.608 830.345 274.944L824.585 276.912C823.481 272.832 820.553 270.432 816.569 270.432C813.545 270.432 810.905 271.872 809.177 274.416ZM836.488 295.248C833.752 292.032 832.264 287.712 832.264 282.768C832.264 277.824 833.752 273.504 836.488 270.288C839.416 266.88 843.544 265.008 848.296 265.008C853.048 265.008 857.176 266.88 860.104 270.288C862.84 273.504 864.328 277.824 864.328 282.768C864.328 287.712 862.84 292.032 860.104 295.248C857.176 298.656 853.048 300.528 848.296 300.528C843.544 300.528 839.416 298.656 836.488 295.248ZM848.296 295.104C851.224 295.104 853.624 293.952 855.448 291.696C857.272 289.44 858.184 286.464 858.184 282.768C858.184 279.072 857.272 276.096 855.448 273.84C853.624 271.584 851.224 270.432 848.296 270.432C845.368 270.432 842.968 271.584 841.144 273.84C839.32 276.096 838.408 279.072 838.408 282.768C838.408 286.464 839.32 289.44 841.144 291.696C842.968 293.952 845.368 295.104 848.296 295.104ZM891.087 265.536H896.991V300H891.615L874.527 274.704V300H868.623V265.536H874.959L891.087 289.68V265.536ZM909.69 274.416C908.154 276.576 907.386 279.504 907.386 282.768C907.386 286.032 908.154 288.96 909.69 291.12C911.418 293.664 914.058 295.104 917.082 295.104C921.066 295.104 923.994 292.704 925.098 288.624L930.858 290.592C928.746 296.928 923.802 300.528 917.082 300.528C912.426 300.528 908.25 298.608 905.37 295.152C902.682 291.936 901.242 287.616 901.242 282.768C901.242 277.92 902.682 273.6 905.37 270.384C908.25 266.928 912.426 265.008 917.082 265.008C923.802 265.008 928.746 268.608 930.858 274.944L925.098 276.912C923.994 272.832 921.066 270.432 917.082 270.432C914.058 270.432 911.418 271.872 909.69 274.416ZM934.553 300V265.536H957.881V270.912H940.601V279.552H955.145V284.928H940.601V294.624H957.881V300H934.553ZM976.349 286.656H968.717V300H962.573V265.536H976.349C984.269 265.536 988.829 269.376 988.829 276.096C988.829 282.816 984.221 286.656 976.349 286.656ZM968.717 270.816V281.376H976.013C980.381 281.376 982.781 279.504 982.781 276.096C982.781 272.64 980.429 270.816 976.013 270.816H968.717ZM1018.2 265.536V270.912H1007.11V300H1000.97V270.912H989.877V265.536H1018.2ZM1056.89 265.536V270.912H1045.81V300H1039.66V270.912H1028.57V265.536H1056.89ZM1060.46 295.248C1057.72 292.032 1056.24 287.712 1056.24 282.768C1056.24 277.824 1057.72 273.504 1060.46 270.288C1063.39 266.88 1067.52 265.008 1072.27 265.008C1077.02 265.008 1081.15 266.88 1084.08 270.288C1086.81 273.504 1088.3 277.824 1088.3 282.768C1088.3 287.712 1086.81 292.032 1084.08 295.248C1081.15 298.656 1077.02 300.528 1072.27 300.528C1067.52 300.528 1063.39 298.656 1060.46 295.248ZM1072.27 295.104C1075.2 295.104 1077.6 293.952 1079.42 291.696C1081.24 289.44 1082.16 286.464 1082.16 282.768C1082.16 279.072 1081.24 276.096 1079.42 273.84C1077.6 271.584 1075.2 270.432 1072.27 270.432C1069.34 270.432 1066.94 271.584 1065.12 273.84C1063.29 276.096 1062.38 279.072 1062.38 282.768C1062.38 286.464 1063.29 289.44 1065.12 291.696C1066.94 293.952 1069.34 295.104 1072.27 295.104ZM1108.68 274.416C1107.14 276.576 1106.37 279.504 1106.37 282.768C1106.37 286.032 1107.14 288.96 1108.68 291.12C1110.41 293.664 1113.05 295.104 1116.07 295.104C1120.05 295.104 1122.98 292.704 1124.09 288.624L1129.85 290.592C1127.73 296.928 1122.79 300.528 1116.07 300.528C1111.41 300.528 1107.24 298.608 1104.36 295.152C1101.67 291.936 1100.23 287.616 1100.23 282.768C1100.23 277.92 1101.67 273.6 1104.36 270.384C1107.24 266.928 1111.41 265.008 1116.07 265.008C1122.79 265.008 1127.73 268.608 1129.85 274.944L1124.09 276.912C1122.98 272.832 1120.05 270.432 1116.07 270.432C1113.05 270.432 1110.41 271.872 1108.68 274.416ZM1135.99 295.248C1133.25 292.032 1131.77 287.712 1131.77 282.768C1131.77 277.824 1133.25 273.504 1135.99 270.288C1138.92 266.88 1143.05 265.008 1147.8 265.008C1152.55 265.008 1156.68 266.88 1159.61 270.288C1162.34 273.504 1163.83 277.824 1163.83 282.768C1163.83 287.712 1162.34 292.032 1159.61 295.248C1156.68 298.656 1152.55 300.528 1147.8 300.528C1143.05 300.528 1138.92 298.656 1135.99 295.248ZM1147.8 295.104C1150.73 295.104 1153.13 293.952 1154.95 291.696C1156.77 289.44 1157.69 286.464 1157.69 282.768C1157.69 279.072 1156.77 276.096 1154.95 273.84C1153.13 271.584 1150.73 270.432 1147.8 270.432C1144.87 270.432 1142.47 271.584 1140.65 273.84C1138.82 276.096 1137.91 279.072 1137.91 282.768C1137.91 286.464 1138.82 289.44 1140.65 291.696C1142.47 293.952 1144.87 295.104 1147.8 295.104ZM1196.88 273.36L1187.85 300H1182.86L1173.84 273.36V300H1168.12V265.536H1176.57L1185.45 291.936L1194.33 265.536H1202.59V300H1196.88V273.36ZM1222.39 286.656H1214.76V300H1208.61V265.536H1222.39C1230.31 265.536 1234.87 269.376 1234.87 276.096C1234.87 282.816 1230.26 286.656 1222.39 286.656ZM1214.76 270.816V281.376H1222.05C1226.42 281.376 1228.82 279.504 1228.82 276.096C1228.82 272.64 1226.47 270.816 1222.05 270.816H1214.76ZM1260.83 300H1238.46V265.536H1244.6V294.624H1260.83V300ZM1264.32 300V265.536H1287.65V270.912H1270.37V279.552H1284.92V284.928H1270.37V294.624H1287.65V300H1264.32ZM1318.12 265.536V270.912H1307.03V300H1300.89V270.912H1289.8V265.536H1318.12ZM1321.63 265.536H1327.77V300H1321.63V265.536ZM1336.25 295.248C1333.52 292.032 1332.03 287.712 1332.03 282.768C1332.03 277.824 1333.52 273.504 1336.25 270.288C1339.18 266.88 1343.31 265.008 1348.06 265.008C1352.81 265.008 1356.94 266.88 1359.87 270.288C1362.61 273.504 1364.09 277.824 1364.09 282.768C1364.09 287.712 1362.61 292.032 1359.87 295.248C1356.94 298.656 1352.81 300.528 1348.06 300.528C1343.31 300.528 1339.18 298.656 1336.25 295.248ZM1348.06 295.104C1350.99 295.104 1353.39 293.952 1355.21 291.696C1357.04 289.44 1357.95 286.464 1357.95 282.768C1357.95 279.072 1357.04 276.096 1355.21 273.84C1353.39 271.584 1350.99 270.432 1348.06 270.432C1345.13 270.432 1342.73 271.584 1340.91 273.84C1339.09 276.096 1338.17 279.072 1338.17 282.768C1338.17 286.464 1339.09 289.44 1340.91 291.696C1342.73 293.952 1345.13 295.104 1348.06 295.104ZM1390.85 265.536H1396.76V300H1391.38L1374.29 274.704V300H1368.39V265.536H1374.73L1390.85 289.68V265.536Z" fill="black"/>
<path d="M225.74 238.361C222.117 238.38 220.445 242.261 217.305 243.243C210.779 247.461 204.536 252.201 197.459 255.365C195.363 256.302 193.125 258.177 190.947 255.96C188.477 253.451 189.689 250.522 190.842 247.817C191.808 245.547 192.938 243.355 193.996 241.124C205.616 225.125 218.722 210.333 228.032 192.459C231.937 184.956 229.832 179.517 222.04 178.184C214.785 176.944 207.516 176.871 200.189 177.74C194.902 178.365 189.712 180.147 184.316 179.532C181.824 179.249 178.698 178.248 180.762 175.045C184.635 169.04 180.092 169.582 177.276 169.45C166.02 168.933 154.732 168.44 143.754 172.092C137.365 171.281 131.437 174.054 125.28 175.006C120.864 175.69 116.458 176.705 111.996 177.237C101.164 178.834 90.4691 182.256 79.2041 179.341C90.2184 176.92 101.233 174.503 112.243 172.082C122.956 171.764 133.278 168.816 143.722 166.687C153.598 163.997 163.7 163.909 173.726 164.554C179.208 164.905 186.759 162.708 187.538 172.985C187.707 175.197 190.136 174.054 191.594 173.795C200.79 172.179 210.05 171.745 219.337 172.228C233.359 172.956 238.217 182.119 231.559 195.423C225.266 208.004 216.152 218.364 207.699 229.226C205.552 231.985 203.082 234.465 202.13 238.068C201.829 238.263 201.528 238.458 201.228 238.653C201.761 239.449 202.057 238.697 202.426 238.444C203.36 239.2 204.299 239.952 205.242 240.709C199.295 239.747 196.215 243.453 194.05 248.632C193.663 249.555 192.934 250.531 193.745 251.503C194.561 252.475 195.595 251.903 196.443 251.474C201.888 248.696 207.548 246.284 211.832 241.456C236.85 224.456 260.852 205.968 283.878 185.981C288.271 182.168 291.603 177.027 296.884 174.293C298.753 173.327 301.013 171.594 300.17 168.908C299.299 166.14 296.542 166.638 294.473 166.892C283.673 168.205 272.891 169.66 262.114 171.144C260.227 171.403 258.391 172.101 255.37 171.013C266.894 167.014 277.699 165.076 288.549 163.348C293.043 162.63 297.536 161.913 302.043 161.263C304.412 160.921 307.096 160.482 308.523 163.031C309.899 165.491 307.867 167.332 306.586 169.187C299.195 179.898 289.247 187.641 279.513 195.54C261.708 209.986 243.676 224.1 225.74 238.356V238.361Z" fill="black"/>
<defs>
<clipPath id="clip0_6924_2316">
<rect width="100.19" height="100.19" fill="white" transform="translate(1299.81 46.81)"/>
</clipPath>
</defs>
</svg>
