<svg width="1440" height="278" viewBox="0 0 1440 278" fill="none" xmlns="http://www.w3.org/2000/svg">
<path d="M51.424 162.686C45.952 156.254 42.976 147.614 42.976 137.726C42.976 127.838 45.952 119.198 51.424 112.766C57.28 105.95 65.536 102.206 75.04 102.206C84.544 102.206 92.8 105.95 98.656 112.766C104.128 119.198 107.104 127.838 107.104 137.726C107.104 147.614 104.128 156.254 98.656 162.686C92.8 169.502 84.544 173.246 75.04 173.246C65.536 173.246 57.28 169.502 51.424 162.686ZM75.04 162.398C80.896 162.398 85.696 160.094 89.344 155.582C92.992 151.07 94.816 145.118 94.816 137.726C94.816 130.334 92.992 124.382 89.344 119.87C85.696 115.358 80.896 113.054 75.04 113.054C69.184 113.054 64.384 115.358 60.736 119.87C57.088 124.382 55.264 130.334 55.264 137.726C55.264 145.118 57.088 151.07 60.736 155.582C64.384 160.094 69.184 162.398 75.04 162.398ZM142.381 173.15C125.005 173.15 114.637 162.782 114.637 144.83V103.262H126.925V144.446C126.925 156.062 132.397 162.302 142.381 162.302C152.461 162.302 157.933 156.062 157.933 144.446V103.262H170.221V144.83C170.221 162.878 159.949 173.15 142.381 173.15ZM204.72 145.502H193.584V172.19H181.296V103.262H208.848C224.688 103.262 233.808 110.942 233.808 124.382C233.808 135.038 228.144 142.142 217.776 144.542L235.536 172.19H221.52L204.72 145.502ZM193.584 113.822V134.942H208.176C216.912 134.942 221.712 131.198 221.712 124.382C221.712 117.47 217.008 113.822 208.176 113.822H193.584ZM282.036 153.854L294.804 103.262H305.652L318.516 153.854L331.572 103.262H343.86L325.236 172.19H313.14L300.084 123.614L287.124 172.19H275.028L256.308 103.262H268.98L282.036 153.854ZM352.812 162.686C347.34 156.254 344.364 147.614 344.364 137.726C344.364 127.838 347.34 119.198 352.812 112.766C358.668 105.95 366.924 102.206 376.428 102.206C385.932 102.206 394.188 105.95 400.044 112.766C405.516 119.198 408.492 127.838 408.492 137.726C408.492 147.614 405.516 156.254 400.044 162.686C394.188 169.502 385.932 173.246 376.428 173.246C366.924 173.246 358.668 169.502 352.812 162.686ZM376.428 162.398C382.284 162.398 387.084 160.094 390.732 155.582C394.38 151.07 396.204 145.118 396.204 137.726C396.204 130.334 394.38 124.382 390.732 119.87C387.084 115.358 382.284 113.054 376.428 113.054C370.572 113.054 365.772 115.358 362.124 119.87C358.476 124.382 356.652 130.334 356.652 137.726C356.652 145.118 358.476 151.07 362.124 155.582C365.772 160.094 370.572 162.398 376.428 162.398ZM440.504 145.502H429.368V172.19H417.08V103.262H444.632C460.472 103.262 469.592 110.942 469.592 124.382C469.592 135.038 463.928 142.142 453.56 144.542L471.32 172.19H457.304L440.504 145.502ZM429.368 113.822V134.942H443.96C452.696 134.942 457.496 131.198 457.496 124.382C457.496 117.47 452.792 113.822 443.96 113.822H429.368ZM478.839 103.262H491.127V135.902L519.735 103.262H534.231L507.447 133.118L535.767 172.19H521.271L499.479 142.142L491.127 151.358V172.19H478.839V103.262ZM561.924 173.246C555.876 173.246 550.212 171.902 544.932 169.31C539.652 166.622 535.62 163.07 533.028 158.75L542.436 150.974C547.332 158.558 554.532 162.782 562.308 162.782C570.66 162.782 575.94 158.846 575.94 152.606C575.94 149.918 574.884 147.998 572.58 146.558C571.044 145.502 569.028 144.734 565.668 143.87L561.828 143.006C560.196 142.526 559.044 142.238 558.468 142.142C550.404 140.222 546.756 138.686 543.684 136.67C539.172 133.598 536.964 129.182 536.964 123.134C536.964 116.702 539.652 111.326 544.74 107.486C549.06 104.03 555.204 102.206 561.828 102.206C572.676 102.206 582.468 107.198 587.46 114.974L578.436 122.75C573.924 115.838 568.644 112.67 561.444 112.67C554.052 112.67 548.964 116.414 548.964 121.886C548.964 125.246 550.5 127.262 554.34 128.798C555.972 129.47 557.892 130.046 563.556 131.294C568.74 132.446 572.388 133.406 574.5 134.174C576.708 134.942 578.532 135.806 580.068 136.766C585.444 139.934 588.036 144.734 588.036 151.358C588.036 157.982 585.156 163.646 579.876 167.774C575.172 171.23 568.836 173.246 561.924 173.246Z" fill="black"/>
<path d="M1299.81 130.19C1299.81 102.576 1277.42 80.19 1249.81 80.19C1222.2 80.19 1199.81 102.576 1199.81 130.19C1199.81 157.804 1222.2 180.19 1249.81 180.19C1277.42 180.19 1299.81 157.804 1299.81 130.19Z" stroke="black" stroke-width="2" stroke-miterlimit="10"/>
<g clip-path="url(#clip0_4979_2584)">
<path d="M1399 179.19L1300.52 80.71" stroke="black" stroke-width="2" stroke-miterlimit="10"/>
<path d="M1399 80.71V179.19H1300.52" stroke="black" stroke-width="2" stroke-miterlimit="10"/>
</g>
<g clip-path="url(#clip1_4979_2584)">
<path d="M150.272 147.057C150.404 147.12 151.147 148.104 151.235 148.338C151.324 148.571 151.512 149.815 151.475 150.023C151.261 151.323 150.404 152.907 149.844 154.061C148.428 156.971 146.854 159.987 145.211 162.896C143.253 166.373 140.987 169.996 138.872 173.435C138.841 173.492 138.979 173.63 138.941 173.731C138.419 175.057 137.141 176.76 136.222 178.319C135.523 179.512 135.202 180.25 134.862 181.569C134.831 181.689 133.509 183.178 133.408 183.405C133.257 183.759 133.446 184.182 133.263 184.541C133.125 184.819 132.678 184.857 132.602 184.964C132.539 185.059 132.734 185.374 132.627 185.652C132.451 186.1 131.564 187.021 131.242 187.602C130.959 188.126 130.852 188.763 130.6 189.268C130.43 189.602 129.801 190.271 129.65 190.7C129.499 191.129 129.769 190.934 129.895 190.953C130.147 190.991 131.431 190.902 131.822 190.883C134.957 190.719 138.098 190.524 141.239 190.593C143.14 190.637 146.332 190.574 148.075 190.997C148.371 191.066 148.415 190.858 148.371 191.382C147.207 191.615 146.011 191.811 144.846 192.057C144.002 192.234 142.718 192.707 141.85 192.732C141.56 192.739 141.195 192.486 140.899 192.543C140.698 192.581 140.641 193.136 140.477 193.143C140.439 193.143 140.276 192.859 140.087 192.833C139.873 192.808 139.59 193.035 139.313 193.048C136.543 193.174 133.376 193.761 130.525 193.748C130.009 193.748 129.675 193.408 129.555 193.408C129.385 193.408 128.479 193.982 127.925 193.748L126.704 196.683C125.873 197.402 125.627 198.898 125.193 199.687C124.796 200.4 123.575 201.693 123.361 202.387C123.147 203.082 123.777 202.987 122.82 203.227C122.769 203.473 122.757 203.763 122.644 203.99C121.385 206.54 120.056 208.843 118.703 211.38C117.551 213.532 116.141 215.753 115.165 217.81C115.008 218.138 114.926 218.574 114.819 218.927L114.441 218.738C114.17 219.754 113.409 220.473 112.93 221.433C106.931 233.568 100.151 245.539 93.6991 257.832C92.075 262.596 89.4499 267.165 87.2341 271.904C86.6613 273.122 86.2206 274.92 85.6603 275.993C85.503 276.296 84.074 277.748 83.8159 277.874C83.0227 278.246 81.449 277.691 81.1783 276.801C81.1028 276.555 81.0839 275.577 81.1594 275.356C81.2475 275.097 81.5371 274.952 81.6252 274.687C83.4445 269.411 85.5596 263.486 88.1469 258.538C90.3879 254.241 92.2638 248.978 94.3349 244.573C101.964 228.298 110.815 212.812 119.704 197.282C119.943 196.866 121.441 194.272 121.271 194.108C119.502 193.843 118.023 194.752 116.336 194.108C116.021 193.919 115.971 192.997 116.185 192.669C116.814 191.704 121.838 191.546 123.097 191.338L123.411 190.58L124.091 191.35C124.67 191.23 124.576 190.801 124.796 190.505C125.275 189.874 125.52 189.407 125.835 188.618C127.132 185.387 129.171 182.238 130.67 179.196C131.815 176.88 133.037 174.457 134.182 171.964C134.434 171.415 134.994 170.885 135.089 170.179L135.693 170.059L135.391 169.478C135.945 168.62 136.612 167.812 137.109 166.929C138.475 164.486 139.778 162.265 140.981 159.665C141.05 159.514 141.296 159.489 141.302 159.476C141.359 159.312 141.038 158.958 141.17 158.757C141.226 158.674 141.875 158.517 142.038 158.138C142.215 157.734 141.975 157.879 142.315 157.229C143.077 155.772 143.807 154.358 144.689 152.806C145.633 151.133 146.464 149.297 147.899 148.003C148.101 147.82 148.409 147.833 148.51 147.726C148.617 147.612 148.484 147.309 148.686 147.196C148.931 147.05 149.989 146.918 150.266 147.057H150.272ZM123.021 194.121L122.266 194.146L120.881 197.831C121.668 197.579 121.945 195.73 122.228 195.376C122.499 195.048 123.046 194.872 123.021 194.114V194.121ZM119.704 200.759L120.094 199.194C119.697 199.302 119.232 200.576 119.704 200.759ZM116.695 206.559C117.198 205.618 118.451 203.479 118.684 202.57C118.734 202.381 118.879 201.883 118.539 201.933C116.581 205.423 114.995 209.114 113.163 212.674C113.025 212.945 112.786 213.109 112.477 213.721C111.797 215.046 111.004 216.334 110.545 217.766C110.96 218.258 113.415 212.85 113.585 212.509C114.636 210.408 115.744 208.319 116.695 206.559ZM109.676 219.849C109.928 219.306 110.381 218.814 110.343 218.157L108.788 220.991C109.411 221.433 109.361 220.107 109.443 219.962C109.468 219.912 109.651 219.905 109.676 219.849ZM108.977 221.287C108.473 221.168 108.637 221.439 108.473 221.66C108.297 221.9 107.271 223.218 107.907 223.439C108.096 222.556 109.021 222.202 108.977 221.294V221.287Z" fill="black"/>
<path d="M175.2 184.857C173.079 188.952 169.289 192.947 166.809 196.866C164.644 200.28 162.661 203.732 160.533 207.19C159.022 209.651 157.518 212.087 155.912 214.302C155.094 215.431 154.307 217.028 153.678 218.296C152.305 221.079 150.744 223.812 148.824 226.632C148.73 226.771 148.755 226.979 148.761 227.15L148.377 226.948L148.554 227.623L148.025 227.964C148.428 228.98 147.817 228.854 147.534 229.346C146.822 230.614 146.269 232.949 145.771 234.382C145.67 234.666 146.086 235.044 145.45 234.969C145.368 235.297 145.708 235.095 145.796 235.183C145.834 235.221 145.847 236.155 145.847 236.205C145.828 236.363 145.488 236.319 145.394 236.578C145.362 236.653 145.054 238.111 145.047 238.193C144.991 239.058 145.412 239.771 144.588 240.654C143.965 241.166 140.949 239.67 140.823 238.749C140.792 238.502 141 238.231 140.974 238.023C140.974 237.972 140.817 237.89 140.679 237.215C140.616 236.906 139.955 236.508 140.767 236.527C140.143 235.991 140.723 235.77 140.697 235.461C140.578 233.921 141.17 231.58 141.686 229.933C141.786 229.605 142.126 228.709 142.328 228.223C142.718 227.295 143.807 225.755 144.04 225.055C144.298 224.272 143.813 223.849 143.505 224.367C142.8 225.547 142.089 226.071 141.151 227.049C139.35 228.917 137.267 231.113 135.391 232.892C134.616 233.624 134.547 233.46 134.063 233.807C133.773 234.009 133.37 234.432 133.018 234.571C132.394 234.817 131.211 234.798 130.632 234.483C130.223 234.262 130.374 233.523 129.461 233.801C129.958 232.892 128.863 232.224 129.071 231.391C129.108 231.245 129.461 231.277 129.473 231.138C130.009 225.44 135.309 219.287 138.236 214.207L141.358 210.44C141.402 210.124 141.371 210.118 141.063 210.143C140.036 210.225 139.527 211.424 138.815 211.992C137.468 213.077 137.09 212.926 135.844 214.39C135.762 214.485 134.125 215.431 133.83 215.684C133.332 216.106 132.86 217.242 132.218 216.801C132.01 217.324 131.884 217.911 131.223 217.772L131.387 218.126C130.015 218.858 128.737 219.823 128.07 221.256C127.283 221.041 126.401 222.486 125.822 222.638C125.413 222.745 125.199 222.259 124.922 222.297C124.847 222.31 123.739 223.016 123.613 223.136C123.172 223.559 122.927 224.279 122.536 224.79C119.874 228.242 117.387 231.996 114.649 235.454C113.352 237.095 112.03 238.528 110.544 239.948C110.223 240.257 108.763 242.339 108.31 241.62C107.793 240.812 108.75 240.364 109.178 239.891C113.975 234.596 117.928 227.724 122.272 221.59C122.524 217.823 125.174 214.933 127.207 212.074C127.975 210.989 128.076 210.787 129.001 209.764C129.562 209.14 129.82 208.433 130.279 207.713C131.595 205.663 132.948 203.511 134.358 201.491C135.007 200.557 135.416 199.787 136.322 198.923C136.442 198.809 136.864 198.487 136.983 198.487C137.468 198.866 137.884 198.614 138.488 198.854C141.182 199.926 138.614 202.823 137.789 204.299C136.965 205.776 136.36 206.899 135.397 208.25C135.007 208.793 133.817 210.307 135.366 209.531C137.915 208.25 140.175 205.827 142.932 204.565C144.984 203.624 147.011 203.561 148.585 201.826C153.829 196.026 160.023 189.754 166.337 185.027C166.771 184.699 167.426 184.617 167.797 184.144C167.942 184.112 167.93 184.346 167.892 184.434C167.747 184.762 165.191 186.946 164.669 187.457C159.494 192.505 154.408 198.317 149.945 204.129C145.482 209.941 140.666 216.018 136.902 222.789C136.285 223.9 134.868 226.658 134.484 227.97C134.428 228.166 134.138 229.169 134.642 228.91L139.036 224.758C143.688 219.849 148.61 214.605 152.866 209.064C156.082 204.874 159.022 200.059 161.918 196.071C162.277 195.572 162.478 194.676 162.667 194.354C163.051 193.685 164.109 192.758 164.663 191.956C165.166 191.218 165.04 191.117 165.739 190.309C167.879 187.854 169.352 185.033 171.404 182.535C171.927 181.897 172.758 181.638 173.274 181.02C174.011 181.253 176.101 181.651 176.019 182.648C175.981 183.102 175.452 184.415 175.219 184.857H175.2Z" fill="black"/>
<path d="M92.075 199.453C91.9176 199.674 91.968 200.04 91.8421 200.242C91.6721 200.513 91.2629 200.431 91.0867 200.608C90.8789 200.822 90.1991 202.381 89.6703 203.006C88.5687 204.306 87.316 205.524 86.2584 206.811C85.6352 207.575 84.6909 208.408 84.6091 209.367L84.2251 209.171C84.2692 209.613 84.1433 209.935 83.9041 210.294C83.5956 210.755 82.3177 211.676 82.1729 211.916C82.0659 212.093 82.2548 212.408 82.1792 212.509C82.0596 212.674 81.6819 212.617 81.4805 212.831C81.0273 213.298 80.681 214.422 80.3285 214.895C80.1334 215.16 79.485 215.545 79.2269 215.905C78.8366 216.46 77.6846 218.782 77.5587 218.902C77.5146 218.946 77.2125 218.732 77.0992 218.934C76.9166 219.255 77.2062 219.552 77.0992 219.735C77.0614 219.804 76.1423 220.492 75.9031 220.789C75.0533 221.849 74.7322 223.124 73.8195 224.165C70.8482 227.585 68.7394 231.82 66.4732 235.663C65.573 237.19 64.3833 238.219 64.1189 240.099C63.1998 240.818 62.6899 242.737 61.3176 242.592C61.2043 242.579 59.5991 241.828 59.5046 241.752C59.1773 241.487 58.9884 240.061 59.1018 239.752C59.1458 239.626 59.769 239.664 59.2402 238.786L59.6116 238.591C59.5802 236.969 60.4804 235.126 61.3931 233.744C62.2807 232.4 62.8536 231.359 63.6845 229.933C63.886 229.586 65.6863 227.85 64.8113 227.535C64.7232 227.503 64.7295 227.743 64.5469 227.901C63.8293 228.494 62.9858 228.753 62.243 229.359C61.859 229.674 61.3113 230.539 60.9273 230.873C59.3221 232.268 57.3832 233.94 55.6395 234.956C53.3041 236.319 51.3715 238.149 48.9857 239.626C48.224 240.099 48.1799 240.067 47.4623 240.635C46.965 241.027 42.6844 242.693 42.0045 242.787C40.1349 243.059 39.5872 242.56 38.3471 241.487C38.2905 241.437 37.9631 241.588 37.7995 241.349C37.6169 241.077 37.4343 239.417 37.4343 238.995C37.4343 238.42 38.1583 236.199 38.429 235.694C38.6556 235.278 39.0018 235.265 39.1718 235.019C39.5432 234.489 41.589 231.744 41.5198 231.378C41.0099 230.791 40.5315 231.378 40.0342 231.441C39.4487 231.517 37.5225 231.744 37.1385 231.473C36.7671 231.037 37.1951 229.321 37.5414 229.087C38.0576 228.74 38.8822 228.98 39.241 228.892C39.3984 228.854 39.3732 228.538 39.6061 228.456C41.5198 227.806 45.7312 227.15 47.1035 225.919C47.2923 225.749 47.6197 224.884 47.947 224.506C48.8409 223.477 51.1134 222.108 51.7744 221.237C51.9066 221.06 51.7492 220.069 52.6242 220.303L52.429 219.918C53.5118 219.868 54.6197 218.719 55.4129 217.968C56.8481 216.611 58.0945 215.046 59.7187 213.746C60.216 213.349 61.4876 212.8 61.9156 212.427C62.9984 211.481 63.5397 210.686 64.9246 209.676C68.4184 207.133 71.975 204.426 75.5758 202.129C76.2934 201.668 76.4886 201.605 77.1118 201.163C77.4895 200.892 79.3024 199.806 79.7808 199.548C80.2593 199.289 80.7817 199.346 80.9014 199.283C81.1091 199.169 82.0407 198.103 82.324 197.907C83.5578 197.055 86.2458 195.187 87.2719 194.714C89.4059 193.729 90.2431 194.701 92.1694 194.991C92.8807 195.099 93.548 194.461 93.7495 195.799C93.9509 197.137 93.2962 198.09 92.5849 199.112C92.4653 199.283 92.1568 199.333 92.0624 199.459L92.075 199.453ZM81.4553 203.271C81.6379 202.943 82.0785 202.318 81.4931 202.135C81.5057 202.368 80.7692 202.949 80.637 203.037C77.0992 205.284 73.8069 207.31 70.5587 209.84C68.3491 211.557 65.8878 213.273 63.6279 215.116C62.7969 215.797 60.5622 217.482 60.0523 218.132C59.5424 218.782 59.5928 219.072 58.8185 219.59C58.466 219.823 58.1386 219.735 58.1197 219.76C58.0442 219.868 58.0883 220.17 57.9749 220.284C57.6539 220.612 57.0685 220.726 57.1125 221.281C57.5406 221.313 57.9435 221.218 58.3338 221.041C59.4417 220.524 60.8958 219.281 62.0478 218.706C63.5838 217.943 63.5145 218.208 64.9057 217.072C66.0326 216.157 67.4363 215.658 68.6639 214.838C69.2178 214.472 69.4696 214.138 69.9669 213.74C71.654 212.377 72.4912 211.702 74.279 210.616C74.7448 210.332 76.1423 208.439 76.967 208.155L76.8096 207.808C78.1064 207.474 78.5659 205.965 79.4598 205.082C80.0767 204.47 80.9706 204.274 81.1154 203.119L81.449 203.265L81.4553 203.271ZM66.8887 221.25C66.7942 221.174 66.9957 220.814 66.6683 220.896C66.8761 221.937 66.3851 221.533 65.9822 221.862C65.7682 222.038 65.4786 222.486 65.3086 222.549C65.0694 222.638 64.6036 222.373 64.5217 222.461C64.4777 222.505 64.5973 222.871 64.4903 222.998C64.4336 223.061 63.2187 223.521 62.9354 223.654C62.2115 224.001 61.7205 224.121 60.9714 224.424C60.751 224.512 59.6116 225.32 59.5235 225.351C59.1584 225.49 58.3463 225.351 58.1323 225.452C58.0757 225.478 57.5154 226.14 57.1755 226.329C55.1233 227.434 52.876 228.387 50.6476 229.169C48.6709 229.857 48.608 229.327 46.858 231.056C45.108 232.785 43.509 235.164 42.1052 237.36C41.8031 237.834 41.0288 237.998 41.3247 239.07C42.5962 239.228 43.5594 238.635 44.6421 238.225C50.2195 236.104 55.7528 231.34 60.1845 227.888C60.3733 227.743 60.2978 227.371 60.4867 227.2C60.7762 226.935 61.8275 226.658 62.2304 226.361C63.2061 225.654 64.144 224.19 65.0254 223.439C65.6108 222.934 66.2655 222.821 66.7754 222.461C67.109 222.221 68.1666 221.231 67.9462 220.896C67.7448 221.092 67.1342 221.439 66.895 221.25H66.8887Z" fill="black"/>
<path d="M98.5652 208.111C96.3179 210.989 93.7999 213.841 91.8232 216.738C91.6785 216.952 91.647 217.242 91.4455 217.476C90.8601 218.138 89.7459 218.303 89.6892 219.527L90.0355 219.382L90.174 219.729H90.5642C90.8664 219.59 90.665 219.173 90.8475 219.041C91.2441 218.751 91.7729 218.946 91.8107 218.915C91.8799 218.845 92.1821 217.943 92.4716 217.817C93.8439 217.217 94.0139 216.845 95.1911 215.955C95.6128 215.639 96.4816 215.286 96.9033 214.933C98.0805 213.948 99.1317 212.56 100.561 211.759C101.543 211.203 101.197 211.336 101.82 210.856C102.009 210.711 103.614 210.042 103.878 209.992C104.791 209.821 106.069 210.181 107.051 209.954C107.108 210.364 107.007 210.648 106.831 211.001C106.686 211.298 104.319 214.226 104.13 214.327C103.96 214.415 103.752 214.239 103.746 214.257C103.696 214.352 103.796 214.844 103.683 215.185C103.614 215.4 102.751 215.734 102.575 215.917L102.965 216.207C102.097 216.144 101.807 217.091 101.398 217.28C101.209 217.369 100.894 217.204 100.813 217.28C100.63 217.432 100.705 217.817 100.58 217.93C100.353 218.145 99.8431 217.678 100.202 218.321C100.082 218.511 98.9807 219.041 98.7603 219.218C96.7459 220.858 94.8889 222.613 92.6668 224.001C91.4959 224.733 91.4393 224.922 90.4761 225.673C89.3997 226.506 88.1658 226.544 87.1712 226.879C86.2648 227.181 86.0256 227.888 84.4896 227.888C83.0858 227.888 82.1604 226.645 81.0273 227.352C80.0705 227.951 78.1379 230.652 77.137 231.662C74.2539 234.577 69.4319 239.298 66.2089 241.62C65.8689 241.866 64.3581 242.863 64.0686 242.409C64.0182 241.399 65.1135 241.191 65.7053 240.711C66.3788 240.168 67.3168 238.793 67.9337 238.162C72.8501 233.151 78.5219 228.147 82.3241 222.007C83.0921 220.764 84.0678 219.533 85.0246 218.258C86.8187 215.86 88.7891 213.772 90.6587 211.393C91.0301 210.919 91.3385 209.853 91.7729 209.379C92.4087 208.679 92.9375 208.805 93.5984 207.669C94.5931 205.965 96.5823 204.224 98.0868 202.621C98.4834 202.198 99.0121 201.498 99.2828 200.974L99.7298 201.151L100.095 200.702L100.624 200.665C103.488 202.419 101.587 204.325 100.126 206.218C99.6479 206.836 99.1066 207.467 98.603 208.117L98.5652 208.111Z" fill="black"/>
<path d="M123.997 190.404L124.092 189.426L124.394 189.912L123.997 190.404Z" fill="black"/>
</g>
<defs>
<clipPath id="clip0_4979_2584">
<rect width="100.19" height="100.19" fill="white" transform="translate(1299.81 80)"/>
</clipPath>
<clipPath id="clip1_4979_2584">
<rect width="139" height="131" fill="white" transform="translate(37 147)"/>
</clipPath>
</defs>
</svg>
